<?xml version="1.0" encoding="UTF-8"?>
<!DOCTYPE svg PUBLIC "-//W3C//DTD SVG 1.1//EN" "http://www.w3.org/Graphics/SVG/1.1/DTD/svg11.dtd">
<!-- Creator: CorelDRAW X6 -->
<svg xmlns="http://www.w3.org/2000/svg" xml:space="preserve" width="13.7795in" height="1.9685in" version="1.1" style="shape-rendering:geometricPrecision; text-rendering:geometricPrecision; image-rendering:optimizeQuality; fill-rule:evenodd; clip-rule:evenodd"
viewBox="0 0 13780 1969"
 xmlns:xlink="http://www.w3.org/1999/xlink">
 <defs>
 </defs>
 <g id="Layer_x0020_1">
  <metadata id="CorelCorpID_0Corel-Layer"/>

  <g id="_726847344" class="photos w3-hover-opacity" style="cursor:pointer" onclick="window.location.href='./about.php'">
   <polygon class="fil10" points="7842,1695 6049,1695 6049,176 7842,176 "/>
   <path class="fil1" d="M7856 1714l-1822 0 0 -1557 1822 0 0 1557zm-1793 -38l0 0 1764 0 0 -1481 -1764 0 0 1481z"/>
   <g>
    <polygon class="fil2" points="6630,1051 6297,1051 6297,718 6630,718 "/>
    <path class="fil1" d="M6644 1066l-362 0 0 -362 362 0 0 362zm-333 -29l0 0 304 0 0 -304 -304 0 0 304z"/>
   </g>
   <g>
    <polygon class="fil11" points="6630,1051 6297,1051 6297,931 6630,931 "/>
    <path class="fil1" d="M6644 1066l-362 0 0 -149 362 0 0 149zm-333 -29l0 0 304 0 0 -92 -304 0 0 92z"/>
   </g>
   <g>
    <polygon class="fil4" points="7112,1051 6779,1051 6779,718 7112,718 "/>
    <path class="fil1" d="M7126 1066l-362 0 0 -362 362 0 0 362zm-333 -29l0 0 304 0 0 -304 -304 0 0 304z"/>
   </g>
   <g>
    <polygon class="fil5" points="7594,1051 7261,1051 7261,718 7594,718 "/>
    <path class="fil1" d="M7608 1066l-362 0 0 -362 362 0 0 362zm-333 -29l0 0 304 0 0 -304 -304 0 0 304z"/>
   </g>
   <g>
    <polygon class="fil6" points="6630,1523 6297,1523 6297,1191 6630,1191 "/>
    <path class="fil1" d="M6644 1538l-362 0 0 -362 362 0 0 362zm-333 -29l0 0 304 0 0 -304 -304 0 0 304z"/>
   </g>
   <g>
    <polygon class="fil7" points="7112,1523 6779,1523 6779,1191 7112,1191 "/>
    <path class="fil1" d="M7126 1538l-362 0 0 -362 362 0 0 362zm-333 -29l0 0 304 0 0 -304 -304 0 0 304z"/>
   </g>
   <g>
    <polygon class="fil8" points="7594,1523 7261,1523 7261,1191 7594,1191 "/>
    <path class="fil1" d="M7608 1538l-362 0 0 -362 362 0 0 362zm-333 -29l0 0 304 0 0 -304 -304 0 0 304z"/>
   </g>
   <g>
    <polygon class="fil11" points="7112,1051 6779,1051 6779,931 7112,931 "/>
    <path class="fil1" d="M7126 1066l-362 0 0 -149 362 0 0 149zm-333 -29l0 0 304 0 0 -92 -304 0 0 92z"/>
   </g>
   <g>
    <polygon class="fil11" points="7594,1051 7261,1051 7261,931 7594,931 "/>
    <path class="fil1" d="M7608 1066l-362 0 0 -149 362 0 0 149zm-333 -29l0 0 304 0 0 -92 -304 0 0 92z"/>
   </g>
   <g>
    <polygon class="fil11" points="7594,1533 7261,1533 7261,1413 7594,1413 "/>
    <path class="fil1" d="M7608 1548l-362 0 0 -149 362 0 0 149zm-333 -29l0 0 304 0 0 -92 -304 0 0 92z"/>
   </g>
   <g>
    <polygon class="fil11" points="7112,1533 6779,1533 6779,1413 7112,1413 "/>
    <path class="fil1" d="M7126 1548l-362 0 0 -149 362 0 0 149zm-333 -29l0 0 304 0 0 -92 -304 0 0 92z"/>
   </g>
   <g>
    <polygon class="fil11" points="6630,1533 6297,1533 6297,1413 6630,1413 "/>
    <path class="fil1" d="M6644 1548l-362 0 0 -149 362 0 0 149zm-333 -29l0 0 304 0 0 -92 -304 0 0 92z"/>
   </g>
   <path class="fil11" d="M6271 390c1,0 1,0 2,1 0,0 1,1 1,2 0,1 0,2 -1,2l-2 2 1 1c0,0 0,0 1,1 0,0 1,1 1,2l0 1c0,1 0,2 0,3 -1,3 -2,5 -4,6 0,0 -1,0 -1,0 -1,0 -2,0 -4,-1 -1,-1 -2,-3 -2,-5 0,0 0,-1 0,-2 1,-3 3,-7 7,-11 0,0 1,-1 2,-1zm15 0c1,0 1,0 2,1 0,0 1,1 1,2 0,1 0,2 -1,2l-2 2 1 1c0,0 0,0 1,1 0,0 1,1 1,2l0 1c0,1 0,2 0,3 -1,3 -2,5 -4,6 0,0 -1,0 -1,0 -1,0 -2,0 -4,-1 -1,-1 -2,-3 -2,-5 0,0 0,-1 0,-2 1,-3 3,-7 7,-11 0,0 1,-1 2,-1zm-19 15c0,0 1,-1 1,-2 0,0 0,-1 0,-1l-1 1c0,0 0,0 0,0l0 0c0,0 0,1 0,1 0,0 0,1 0,1zm15 0c0,0 1,-1 1,-2 0,0 0,-1 0,-1l-1 1c0,0 0,0 0,0l0 0c0,0 0,1 0,1 0,0 0,1 0,1zm85 129c-6,0 -10,-3 -12,-9 -2,-4 -2,-9 -2,-15 0,-3 0,-5 0,-6 -8,8 -16,14 -22,19 -7,5 -14,8 -20,10 -2,1 -5,1 -8,1 -5,0 -9,-1 -12,-3 -3,-2 -6,-4 -7,-7 -2,-3 -3,-6 -3,-10 0,-5 1,-10 4,-16 4,-9 10,-21 20,-33 9,-13 20,-25 33,-38 11,-11 21,-20 31,-28 10,-7 17,-11 21,-11 1,0 1,0 2,0 6,1 10,5 13,9 2,3 3,7 3,12 0,5 -1,9 -2,13 0,1 -1,2 -2,2 -1,1 -2,1 -3,1 0,0 0,1 0,1l0 2c0,4 -2,10 -6,18 -4,8 -10,17 -16,26 -4,6 -9,12 -13,17 -2,8 -2,15 -2,20 0,5 1,8 2,11 1,2 2,3 3,3 1,0 4,-1 9,-4 4,-3 10,-9 18,-19 3,-4 6,-8 10,-13 4,-5 7,-10 9,-14 3,-4 4,-7 5,-8 1,-2 3,-3 5,-3 1,0 2,0 3,1 2,1 2,3 2,5 0,1 0,2 -1,3 -3,4 -7,10 -11,17 -5,7 -9,13 -13,18 -6,7 -12,13 -17,18 -7,6 -13,9 -18,9l-1 0zm22 -136c-1,0 -3,1 -5,2 -3,2 -7,4 -12,9 -10,8 -21,18 -31,29 -12,13 -22,25 -30,36 -9,13 -15,23 -17,32 -1,2 -1,4 -1,6 0,4 1,7 4,8 2,1 4,2 7,2 6,0 14,-3 23,-9 10,-7 20,-16 31,-29 0,-2 1,-6 3,-11 3,-10 6,-19 10,-28 4,-9 8,-16 12,-20 4,-4 8,-6 12,-6 1,0 2,0 2,0l0 -1c1,-2 1,-5 1,-9 0,-3 0,-5 -1,-7 -1,-2 -3,-3 -6,-4zm-1 35c-2,3 -5,7 -8,12 -3,5 -5,11 -8,18 5,-7 9,-14 13,-21 2,-4 3,-7 4,-10l-2 1zm90 34c0,1 1,1 1,2 0,1 0,2 -1,3 -1,1 -1,2 -2,2 -6,3 -11,6 -15,8 -5,2 -9,4 -13,4 -3,10 -7,16 -12,18 -3,1 -5,1 -7,1 -2,0 -4,-1 -6,-2 -2,-1 -3,-3 -4,-6 -1,-3 -1,-7 -1,-12 0,-4 0,-9 1,-17 1,-10 4,-21 8,-33 4,-12 9,-24 15,-35 6,-11 11,-19 15,-25 3,-3 5,-6 7,-7 2,-2 4,-2 6,-2 1,0 3,0 4,1 3,2 4,5 4,9 0,2 0,4 -1,7 -1,7 -4,17 -8,28 -6,15 -12,27 -19,35 -7,8 -14,14 -19,17 0,1 0,3 -1,5 0,0 0,1 0,1 1,-3 4,-5 7,-6 1,-1 3,-1 4,-1 2,0 4,1 5,2 3,2 4,5 4,10 4,-1 7,-3 11,-4 3,-2 7,-4 11,-6 1,0 1,-1 2,-1 2,0 4,1 5,3zm-35 -46c-3,8 -6,16 -10,26l2 -2c9,-10 17,-22 22,-37 4,-12 7,-21 8,-27l-2 2c-3,4 -6,9 -10,16 -4,7 -7,14 -11,22zm-6 64c-2,-1 -4,-2 -5,-3 -1,-1 -2,-3 -3,-5l0 0c0,5 0,8 0,9 0,4 0,7 1,9 0,0 1,0 2,-1 1,0 1,-1 2,-2 1,-1 2,-3 3,-5l1 -1zm59 24c-3,0 -6,-1 -9,-3 -2,-1 -4,-3 -6,-6 -2,-3 -3,-5 -3,-9 0,-2 -1,-4 -1,-6 0,-5 1,-9 2,-14l-1 1c-1,1 -2,1 -3,1 -2,0 -3,-1 -4,-2 -1,-1 -1,-2 -1,-4 0,-1 1,-3 2,-4l1 -1c5,-4 9,-8 12,-10 3,-2 6,-4 9,-6 4,-2 8,-3 12,-3 4,0 8,1 13,2 1,0 2,1 3,3 1,1 1,3 1,4l0 0c5,4 8,9 8,16 0,6 -2,12 -6,18 -4,6 -8,12 -14,16 -5,4 -9,6 -14,6zm15 -53c-2,0 -4,0 -6,1 -7,2 -12,7 -15,15 -1,5 -2,9 -2,12 0,1 0,3 0,4 1,4 2,6 4,8 1,1 2,1 3,1 2,0 5,-1 7,-3 5,-4 9,-9 12,-14 3,-5 4,-9 4,-12 0,-3 -1,-6 -4,-8 -1,0 -2,-1 -2,-2 -1,-1 -1,-2 -1,-3l-1 0zm46 43c-4,-1 -7,-4 -9,-9 -1,-3 -1,-5 -1,-8 0,-3 1,-7 3,-12 -2,1 -3,2 -5,2 -1,0 -3,-1 -4,-2 -1,-1 -1,-2 -1,-4 0,-2 1,-3 2,-4l19 -18c1,-1 2,-1 3,-1 1,0 3,1 4,2 1,1 1,2 1,3 0,1 0,2 -1,4 0,1 -1,3 -3,6 -1,3 -3,6 -4,9 -3,6 -4,10 -4,14 0,2 0,3 1,4 0,1 1,2 1,2 1,0 4,-2 6,-5 1,-1 4,-4 8,-9l4 -5 0 -1c12,-15 18,-23 18,-23 1,-1 2,-2 4,-2 1,0 2,0 2,0 1,0 2,1 3,2 1,1 1,2 1,4 0,1 -1,3 -1,6 -1,3 -1,7 -2,12 -1,5 -1,10 -1,14 0,3 0,4 0,5 3,-2 8,-6 13,-11 3,-3 5,-5 7,-8 2,-3 3,-4 4,-5 1,-1 3,-2 4,-2 1,0 2,0 3,1 1,1 2,3 2,4 0,1 0,2 -1,3 -1,1 -2,3 -5,5 -2,3 -5,5 -8,8 -6,6 -10,10 -14,12 -3,2 -6,3 -8,3 -2,0 -4,-1 -6,-3 -2,-3 -3,-7 -3,-13 0,-4 0,-9 1,-13 -1,1 -3,3 -5,6l0 1c-7,8 -12,14 -15,18 -4,4 -7,5 -11,5l-1 0zm168 -112c1,1 2,3 2,4 0,1 0,1 -1,2 -3,5 -8,9 -15,10 -7,2 -17,3 -29,3 0,0 0,1 -1,2 0,1 0,1 0,2 -3,7 -10,19 -22,33 -1,4 -2,9 -3,16 0,3 -1,5 -1,8 0,5 0,10 1,15 1,5 2,10 3,13 1,4 2,6 2,7 0,1 0,2 0,2 0,1 0,2 -1,3 -1,1 -2,2 -3,2 0,0 -1,0 -2,0 -1,0 -2,0 -3,-1 -1,-1 -2,-1 -2,-3 -1,-2 -2,-7 -4,-15 -2,-8 -3,-16 -3,-24 0,-3 0,-6 1,-8l-10 10 -3 3c-1,1 -2,1 -4,1 -1,0 -3,0 -4,-1 -1,-1 -2,-2 -2,-4 0,-1 1,-3 2,-4 8,-8 16,-17 24,-26 2,-9 6,-19 12,-31 -9,0 -16,1 -22,2 -6,1 -10,3 -14,6 0,1 1,2 1,3 0,1 0,3 -1,4 -1,1 -2,1 -3,1 -1,0 -3,-1 -4,-2 -2,-2 -3,-4 -3,-6 0,-1 0,-2 1,-3 2,-6 7,-10 16,-12 9,-2 21,-3 36,-3l2 -3c3,-3 5,-5 8,-5 1,0 2,0 3,0 3,1 4,4 5,7 9,0 16,-1 21,-1 5,-1 9,-2 12,-5 0,-1 1,-1 1,-1 1,-1 3,-2 4,-2 1,0 2,0 3,1zm26 115c0,0 -1,0 -2,0 -1,0 -2,-1 -3,-2 -1,-1 -1,-2 -1,-4 0,-2 0,-3 1,-5 1,-2 3,-5 5,-9 3,-5 5,-9 7,-13 1,-3 2,-5 2,-7 -2,1 -4,2 -7,4 -2,1 -3,2 -4,3 -1,1 -2,1 -2,2 -1,1 -3,2 -5,2 -1,0 -2,0 -3,-1 -1,-1 -2,-3 -2,-4 0,-1 0,-2 1,-3 0,0 1,-1 3,-3 2,-2 3,-3 5,-5 5,-4 10,-6 14,-6 2,0 4,1 5,2 2,1 3,3 4,4 1,1 1,3 1,4l2 -3c4,-4 7,-7 9,-9 3,-2 5,-3 7,-3 1,0 2,0 2,0 3,0 5,2 6,5 1,2 2,4 2,7 1,4 1,8 1,14 3,-5 6,-8 9,-12 4,-5 8,-7 12,-7 2,0 4,1 5,3 2,2 3,6 3,12 0,1 0,3 0,6l0 5c0,3 -1,7 -1,10l0 1c3,-3 6,-6 10,-11 2,-3 4,-6 6,-8 2,-2 3,-4 3,-5 1,-2 3,-2 4,-2 1,0 2,0 3,1 2,1 3,3 3,4 0,1 0,2 -1,3 -1,1 -2,3 -4,6 -2,3 -4,6 -7,9 -4,5 -7,8 -9,11 -4,4 -7,5 -10,5l-1 0c-3,-1 -5,-2 -6,-5 -1,-2 -1,-4 -1,-8 0,-4 0,-7 1,-11l0 -4c0,-3 0,-5 0,-6l0 -1c-3,2 -6,7 -11,14 -3,4 -5,7 -7,10 -2,3 -3,5 -3,5 0,1 -1,2 -2,2 -1,0 -2,1 -3,1 -2,0 -3,-1 -4,-2 -1,-1 -1,-3 -1,-4 0,0 0,-2 1,-7 1,-4 1,-9 1,-15 0,-6 -1,-10 -2,-13 -2,2 -6,5 -10,10 -5,6 -10,12 -15,20 -2,2 -3,4 -4,6 -1,2 -2,3 -3,4 -1,1 -1,2 -2,2 0,0 -1,1 -1,1 0,0 -1,1 -2,1 -1,1 -2,1 -4,1zm105 5c-3,0 -6,-1 -8,-3 -3,-3 -4,-7 -4,-12 0,-6 2,-14 5,-24 3,-9 8,-16 15,-21 3,-2 6,-4 9,-5 3,-1 6,-2 8,-2 3,0 6,1 8,3 2,2 3,4 3,7 0,4 -2,8 -7,12 -3,3 -7,6 -13,10 -3,2 -7,5 -10,7 -3,2 -6,3 -6,4 0,1 0,2 -1,4 0,2 -1,3 -1,5 0,3 1,4 3,4 1,0 2,0 3,-1 5,-2 12,-6 20,-13 8,-7 15,-13 21,-19 1,-1 3,-2 4,-2 1,0 3,1 4,2 1,1 2,2 2,4 0,1 0,3 -1,4 -6,6 -12,11 -15,15 -12,10 -22,17 -29,20 -3,1 -6,2 -8,2l-1 0zm25 -56c-2,0 -3,0 -5,1 -3,1 -6,3 -9,6 -3,3 -5,6 -7,10l5 -3c9,-6 14,-10 16,-14l-1 0zm23 -41c-1,0 -1,0 -2,-1 0,-1 -1,-1 -1,-2 0,-1 0,-2 1,-2l2 -2 -1 -1c0,0 0,0 -1,-1 0,0 -1,-1 -1,-2l0 -1c0,-1 0,-2 0,-3 1,-3 2,-5 4,-6 0,0 1,0 1,0 1,0 2,0 4,1 1,1 2,3 2,5 0,0 0,1 0,2 -1,3 -3,7 -7,11 0,0 -1,1 -2,1zm15 0c-1,0 -1,0 -2,-1 0,-1 -1,-1 -1,-2 0,-1 0,-1 1,-2l2 -2 -1 -1c0,0 0,0 -1,-1 0,0 -1,-1 -1,-2l0 -1c0,-1 0,-2 0,-3 1,-3 2,-5 4,-6 0,0 1,0 1,0 1,0 2,0 4,1 1,1 2,3 2,5 0,0 0,1 0,2 -1,3 -3,7 -7,11 0,0 -1,1 -2,1zm-12 -15c0,0 -1,1 -1,2 0,0 0,1 0,1l1 -1c0,0 0,0 0,0l0 0c0,0 0,-1 0,-1 0,0 0,-1 0,-1zm15 0c0,0 -1,1 -1,2 0,0 0,1 0,1l1 -1c0,0 0,0 0,0l0 0c0,0 0,-1 0,-1 0,0 0,-1 0,-1z"/>
  </g>
 </g>
</svg>
