<?xml version="1.0" encoding="UTF-8"?>
<!DOCTYPE svg PUBLIC "-//W3C//DTD SVG 1.1//EN" "http://www.w3.org/Graphics/SVG/1.1/DTD/svg11.dtd">
<!-- Creator: CorelDRAW X6 -->
<svg xmlns="http://www.w3.org/2000/svg" xml:space="preserve" width="13.7795in" height="2.3622in" version="1.1" style="shape-rendering:geometricPrecision; text-rendering:geometricPrecision; image-rendering:optimizeQuality; fill-rule:evenodd; clip-rule:evenodd"
viewBox="0 0 13780 2362"
 xmlns:xlink="http://www.w3.org/1999/xlink">
 <defs>
 </defs>
 <g id="Layer_x0020_1">
  <metadata id="CorelCorpID_0Corel-Layer"/>

  <g id="_724381248" class="blog w3-hover-opacity" style="cursor:pointer" onclick="window.location.href='https://writtenbuba.blogspot.com/'">
   <polygon class="fil11" points="5953,1407 6057,1448 6559,193 6455,151 "/>
   <path class="fil10" d="M6299 530l152 -380 103 41 -152 380c-33,-13 -68,-27 -103,-42z"/>
   <path class="fil1" d="M6434 110l159 64 -175 436 -28 -11c-33,-13 -68,-27 -103,-42l-28 -11 174 -436zm34 78l0 0 -130 324c16,6 32,13 47,19l130 -324 -47 -19z"/>
   <polygon class="fil1" points="6473,540 6581,271 6553,260 6570,216 6643,245 6500,602 6427,573 6445,529 "/>
   <path class="fil1" d="M6438 119l147 59 -520 1299 -147 -59 520 -1299zm26 62l0 0 -484 1211 59 24 484 -1211 -59 -24z"/>
   <polygon class="fil11" points="6074,1336 6166,1399 6928,282 6836,219 "/>
   <path class="fil10" d="M6602 555l231 -338 92 63 -231 338c-29,-20 -61,-42 -92,-63z"/>
   <path class="fil1" d="M6824 175l142 97 -265 388 -25 -17c-29,-20 -60,-42 -92,-63l-25 -17 265 -388zm16 84l0 0 -197 288c14,10 28,19 42,29l197 -289 -42 -29z"/>
   <polygon class="fil1" points="6769,603 6933,364 6907,347 6934,307 6999,351 6782,669 6717,625 6744,586 "/>
   <path class="fil1" d="M6826 184l131 89 -789 1156 -131 -89 789 -1156zm12 66l0 0 -735 1077 53 36 735 -1077 -53 -36z"/>
   <g>
    <g>
     <path class="fil11" d="M6306 2077l-294 69 -469 -2001 294 -69 469 2001zm-634 -1773l0 0c8,33 41,54 74,46 33,-8 54,-41 46,-74 -8,-33 -41,-54 -74,-46 -33,8 -54,41 -46,74z"/>
     <path class="fil1" d="M5523 133l477 2034 326 -76 -477 -2034 -326 76zm502 1993l0 0 -461 -1968 261 -61 461 1968 -261 61zm-369 -1818l0 0c10,42 52,68 94,58 42,-10 68,-52 58,-94 -10,-42 -52,-68 -94,-58 -42,10 -68,52 -58,94zm120 -28l0 0c6,24 -9,48 -33,54 -24,6 -48,-9 -54,-33 -6,-24 9,-48 33,-54 24,-6 48,9 54,33z"/>
    </g>
    <g>
     <polygon class="fil1" points="6069,1851 6077,1884 6240,1846 6232,1813 "/>
    </g>
    <g>
     <polygon class="fil1" points="6157,1946 6164,1978 6270,1953 6263,1921 "/>
    </g>
    <g>
     <polygon class="fil1" points="6106,1728 6113,1761 6219,1736 6212,1703 "/>
    </g>
    <g>
     <polygon class="fil1" points="6055,1511 6062,1543 6168,1518 6161,1486 "/>
    </g>
    <g>
     <polygon class="fil1" points="6004,1293 6011,1326 6117,1301 6110,1268 "/>
    </g>
    <g>
     <polygon class="fil1" points="5953,1076 5960,1108 6066,1083 6059,1051 "/>
    </g>
    <g>
     <polygon class="fil1" points="5902,858 5909,891 6015,866 6008,833 "/>
    </g>
    <g>
     <polygon class="fil1" points="5851,641 5858,673 5964,649 5957,616 "/>
    </g>
    <g>
     <polygon class="fil1" points="5800,423 5807,456 5913,431 5906,398 "/>
    </g>
    <g>
     <polygon class="fil1" points="6018,1634 6026,1667 6189,1628 6181,1596 "/>
    </g>
    <g>
     <polygon class="fil1" points="5967,1416 5975,1449 6138,1411 6130,1378 "/>
    </g>
    <g>
     <polygon class="fil1" points="5916,1199 5924,1232 6087,1193 6080,1161 "/>
    </g>
    <g>
     <polygon class="fil1" points="5865,981 5873,1014 6036,976 6029,943 "/>
    </g>
    <g>
     <polygon class="fil1" points="5814,764 5822,797 5985,758 5978,726 "/>
    </g>
    <g>
     <polygon class="fil1" points="5763,547 5771,579 5934,541 5927,508 "/>
    </g>
   </g>
   <polygon class="fil12" points="5564,706 6713,706 6566,2231 5703,2231 "/>
   <polygon class="fil13" points="5605,759 6673,759 6536,2177 5733,2177 "/>
   <polygon class="fil10" points="5954,1448 6023,1476 6053,1402 5983,1374 "/>
   <polygon class="fil10" points="6058,1371 6120,1414 6165,1348 6103,1306 "/>
   <g>
    <polygon class="fil14" points="5912,1857 5912,1570 8009,1570 8009,1857 "/>
    <path class="fil1" d="M5883 1886l0 -345 2154 0 0 345 -2154 0zm57 -288l0 0 0 230 2039 0 0 -230 -2039 0z"/>
    <polygon class="fil15" points="5912,2199 5912,1865 8255,1865 8255,2199 "/>
    <path class="fil1" d="M5883 2228l0 -391 2401 0 0 391 -2401 0zm57 -334l0 0 0 277 2286 0 0 -277 -2286 0z"/>
    <polygon class="fil16" points="5940,1545 5940,1211 8283,1211 8283,1545 "/>
    <path class="fil1" d="M5911 1574l0 -391 2401 0 0 391 -2401 0zm57 -334l0 0 0 277 2286 0 0 -277 -2286 0z"/>
    <path class="fil17" d="M6219 1364c0,6 -2,11 -7,16 -5,6 -12,10 -21,13 -6,2 -15,4 -27,7l-9 2c1,0 4,1 8,2 11,3 20,8 27,14 8,7 12,14 12,22 0,4 -1,9 -3,12 -2,4 -5,7 -10,11 -9,7 -23,14 -40,19 -6,2 -11,3 -16,3 -3,0 -5,0 -7,-1 -7,-1 -12,-4 -15,-8 -1,-1 -2,-2 -2,-3 -6,7 -11,12 -15,13 0,0 -1,0 -2,0 -1,0 -2,0 -3,-1 -1,-1 -2,-2 -2,-3 0,-1 0,-1 0,-2 0,-1 0,-2 1,-3 1,-1 2,-2 3,-2 2,-1 4,-3 7,-6 3,-3 7,-9 12,-16 7,-11 14,-26 23,-45 7,-16 15,-34 23,-57 -11,2 -19,6 -24,12 -2,2 -3,4 -4,7 -1,2 -1,4 -1,4 0,1 -1,3 -2,4 -1,1 -2,2 -4,2 -2,0 -3,-1 -4,-2 -1,-1 -2,-2 -2,-4 0,-2 1,-4 2,-8 1,-3 3,-7 6,-11 4,-5 10,-9 18,-12 10,-4 21,-6 35,-6 13,0 23,2 31,6 4,2 8,5 10,9 2,3 4,7 4,11zm-31 18c6,-2 11,-5 15,-8 4,-4 5,-7 5,-10 0,-2 -1,-5 -4,-7 -2,-2 -6,-4 -12,-6 -5,-1 -12,-2 -20,-2 -2,0 -4,0 -7,0 -4,12 -10,26 -17,42 2,0 6,-1 13,-3 10,-2 19,-4 26,-6zm-28 32c-7,-2 -12,-3 -15,-5 -1,-1 -2,-1 -3,-1l-2 5c-6,15 -13,28 -19,39 0,1 -1,3 -2,4 -1,2 -2,3 -2,4 -1,1 -1,2 -1,4 0,2 1,3 2,5 1,1 3,3 6,4 2,1 5,1 8,1 4,0 8,-1 13,-2 17,-5 29,-11 37,-17 6,-5 9,-10 9,-15 0,-5 -3,-9 -9,-14 -6,-5 -13,-8 -22,-11zm67 42c-2,0 -3,0 -5,-1 -4,-1 -6,-4 -8,-9 -1,-4 -2,-8 -2,-14 0,-10 1,-20 4,-29 3,-10 6,-19 11,-27 4,-9 10,-19 17,-30 4,-6 7,-11 11,-15 2,-2 4,-3 5,-4 1,-1 3,-1 4,-1 1,0 2,0 3,1 2,1 4,3 5,6 0,1 1,3 1,5 0,5 -1,12 -4,19 -5,16 -20,38 -46,67 0,2 0,3 0,4 0,1 0,2 0,3 0,4 0,8 1,10 1,2 1,4 2,4 1,0 3,0 5,-1 2,-1 5,-3 7,-6 3,-4 6,-8 9,-13 3,-5 4,-7 4,-7 0,-1 1,-2 2,-2 1,-1 2,-1 3,-1 1,0 2,0 3,1 2,1 3,3 3,5 0,1 0,2 -1,3 0,0 -1,2 -4,7 -2,4 -6,9 -11,15 -3,3 -6,6 -9,8 -4,2 -7,3 -10,3zm35 -117c-3,3 -6,7 -9,12 -6,10 -11,19 -15,27 -4,8 -7,15 -10,23 7,-8 13,-17 19,-25 6,-9 10,-16 12,-22 2,-5 3,-10 3,-14zm17 122c-3,0 -6,-1 -9,-3 -2,-1 -4,-3 -6,-6 -2,-3 -3,-6 -3,-9 0,-2 -1,-4 -1,-7 0,-5 1,-10 2,-14l-1 1c-1,1 -2,1 -3,1 -2,0 -3,-1 -4,-2 -1,-1 -1,-2 -1,-4 0,-1 1,-3 2,-4l1 -1c5,-4 9,-8 12,-10 3,-2 6,-4 9,-6 4,-2 8,-3 12,-3 4,0 9,1 13,2 1,0 2,1 3,3 1,1 1,3 1,4l0 0c5,4 8,9 8,16 0,6 -2,12 -6,18 -4,6 -9,12 -14,17 -5,4 -9,6 -14,6zm15 -53c-2,0 -4,0 -6,1 -7,2 -12,7 -15,16 -1,5 -2,9 -2,12 0,1 0,3 0,4 1,4 2,7 4,8 1,1 2,1 3,1 2,0 5,-1 7,-3 5,-4 9,-9 12,-14 3,-5 4,-9 4,-12 0,-4 -1,-6 -4,-8 -1,0 -2,-1 -2,-2 -1,-1 -1,-2 -1,-3l-1 0zm17 108c-1,0 -2,0 -4,-1 -1,-1 -2,-2 -3,-4 0,-1 -1,-3 -1,-5 0,-5 1,-12 4,-20 5,-13 11,-23 19,-30 6,-5 13,-7 19,-8 1,0 2,0 3,0 1,0 2,0 3,0 4,-10 7,-19 10,-28l-5 5c-15,15 -25,24 -30,27 -3,1 -5,2 -7,2 -3,0 -5,-2 -7,-4 -1,-2 -2,-4 -2,-7 0,-4 1,-7 3,-11 3,-8 9,-15 17,-22 10,-8 18,-12 26,-12 4,0 7,1 11,3l2 -2c1,-1 2,-2 4,-2 1,0 2,0 3,1 1,1 2,1 2,3 0,1 1,2 0,4 -1,4 -3,11 -6,21 -3,10 -7,20 -11,29 3,1 5,2 8,4 2,1 3,3 3,5 0,1 0,2 -1,3 0,1 -1,2 -2,2 -1,0 -2,1 -3,1 -1,0 -2,0 -3,-1 -2,-1 -4,-2 -6,-3 -3,5 -5,9 -6,11 -7,12 -15,22 -22,30 -4,4 -7,7 -10,9 -4,3 -7,4 -10,4zm47 -109c-5,0 -12,3 -19,10 -7,6 -11,12 -14,18 -1,3 -2,5 -2,8l0 0c3,-1 8,-6 15,-12 7,-7 15,-14 22,-23l-2 0 -1 0zm-10 53c-4,0 -8,2 -11,5 -3,2 -6,6 -9,10 -3,4 -5,9 -7,14 -2,5 -3,9 -4,13 0,0 0,1 0,1 2,-2 5,-4 8,-7 7,-8 14,-17 20,-28 2,-3 3,-5 4,-8z"/>
   </g>
  </g>
 </g>
</svg>
