<?xml version="1.0" encoding="UTF-8"?>
<!DOCTYPE svg PUBLIC "-//W3C//DTD SVG 1.1//EN" "http://www.w3.org/Graphics/SVG/1.1/DTD/svg11.dtd">
<!-- Creator: CorelDRAW X6 -->
<svg xmlns="http://www.w3.org/2000/svg" xml:space="preserve" width="13.7795in" height="5.70866in" version="1.1" style="shape-rendering:geometricPrecision; text-rendering:geometricPrecision; image-rendering:optimizeQuality; fill-rule:evenodd; clip-rule:evenodd"
viewBox="0 0 13780 5709"
 xmlns:xlink="http://www.w3.org/1999/xlink"
 enable-background="new 0 0 739.031 367.264">
 <defs>
 </defs>
 <g id="Layer_x0020_1">
  <metadata id="CorelCorpID_0Corel-Layer"/>

  <g id="_726239536" class="porto w3-hover-opacity" style="cursor:pointer" onclick="window.location.href='./porto'">
   <g>
    <polygon class="fil10" points="8386,5342 5186,5342 5186,3561 8386,3561 "/>
    <path class="fil3" d="M8402 5359l-3232 0 0 -1814 3232 0 0 1814zm-3200 -33l0 0 3167 0 0 -1749 -3167 0 0 1749z"/>
   </g>
   <polygon class="fil35" points="8794,5486 8606,5540 4966,5540 4778,5486 4778,5355 8794,5355 "/>
   <path class="fil1" d="M8608 5557l-3646 -1 -199 -58 0 -160 4045 0 0 160 -201 58zm-3640 -33l0 0 3636 0 175 -51 0 -102 -3986 0 0 102 175 51z"/>
   <polygon class="fil1" points="4788,5475 4966,5540 8606,5540 8799,5475 "/>
   <g>
    <polygon class="fil17" points="8085,5209 5487,5209 5487,3694 8085,3694 "/>
    <path class="fil17" d="M8098 5223l-2624 0 0 -1543 2624 0 0 1543zm-2598 -28l0 0 2571 0 0 -1487 -2571 0 0 1487z"/>
   </g>
   <path class="fil36" d="M8046 3731l10 -11 -10 -11 6 0 5 5c1,1 1,2 2,2 1,-1 2,-2 2,-2l5 -5 6 0 -10 11 10 11 -6 0 -6 -7 -1 -2 -8 8 -6 0z"/>
   <polygon class="fil36" points="7928,3725 7928,3719 7955,3719 7955,3725 "/>
   <g>
    <rect class="fil13 str2" x="7995" y="3704" width="24.1156" height="23.361"/>
    <rect class="fil13 str2" x="7987" y="3709" width="24.1156" height="23.361"/>
   </g>
   <rect class="fil12" x="5474" y="3781" width="2624.07" height="83.8295"/>
   <rect class="fil12" x="5648" y="3739" width="126.719" height="83.8295"/>
   <polygon class="fil16" points="6061,4580 6061,4143 6717,4143 6717,4580 "/>
   <polygon class="fil37" points="6944,4623 6944,4187 7600,4187 7600,4623 "/>
   <polygon class="fil38" points="6048,5126 6048,4690 6704,4690 6704,5126 "/>
   <polygon class="fil15" points="6933,5159 6933,4722 7589,4722 7589,5159 "/>
   <path class="fil36" d="M5667 3958c1,3 1,6 1,10 0,1 0,3 0,5 -1,6 -3,12 -6,18 -3,5 -8,10 -14,14 -8,5 -18,9 -29,10 -3,0 -6,1 -10,1 -5,0 -10,0 -15,-1l-3 7 -2 4c-6,12 -9,21 -11,26 -1,3 -1,5 -1,7 0,1 0,2 1,3 1,1 2,2 2,4 0,1 0,2 -1,3 -1,1 -2,2 -4,2 -1,0 -2,0 -3,-1 -3,-2 -5,-5 -5,-10 0,-3 0,-7 2,-11 1,-4 3,-8 5,-12 2,-5 5,-11 9,-19l2 -4 -4 -1c-1,0 -2,-1 -3,-2 -1,-1 -1,-2 -1,-3 0,-2 1,-3 2,-4 1,-1 3,-1 4,-1l6 2 2 -5c5,-11 8,-20 10,-27 0,-2 1,-4 1,-5 0,-1 0,-2 0,-2 -1,-1 -2,-2 -2,-4 0,0 0,-1 0,-2 0,-1 1,-2 2,-3 -16,5 -27,12 -33,19 -3,3 -4,6 -4,8 0,1 0,3 -1,4 -1,1 -2,2 -3,2 -1,0 -3,0 -4,-1 -1,-1 -2,-2 -2,-3l0 -2c0,-4 2,-9 5,-13 7,-9 20,-17 40,-24 13,-5 25,-7 36,-7 10,0 18,3 24,7 4,3 7,7 8,12zm-9 9c0,-6 -2,-10 -6,-13 -4,-3 -10,-5 -18,-5 -9,0 -19,2 -31,6l1 0c1,0 1,0 1,0 2,1 4,2 5,4 1,2 1,4 1,6 0,8 -4,20 -11,37l-1 3c3,0 7,1 11,1 13,0 24,-3 32,-9 5,-3 9,-8 12,-13 3,-5 4,-11 4,-16zm19 86c-3,0 -6,-1 -9,-3 -2,-1 -4,-3 -5,-6 -1,-2 -2,-5 -3,-8 0,-2 -1,-4 -1,-6 0,-4 1,-9 2,-13l-1 1c-1,1 -2,1 -3,1 -2,0 -3,-1 -4,-2 -1,-1 -1,-2 -1,-3 0,-1 1,-3 2,-4l1 -1c5,-4 8,-7 11,-9 3,-2 6,-4 9,-5 4,-2 7,-2 11,-2 4,0 8,1 12,2 1,0 2,1 3,2 1,1 1,2 1,4l0 0c5,3 7,8 7,15 0,5 -2,11 -5,17 -4,6 -8,11 -13,15 -4,4 -9,5 -13,5zm14 -50c-2,0 -4,0 -6,1 -7,2 -11,7 -14,15 -1,4 -2,8 -2,12 0,1 0,3 0,4 1,4 2,6 4,7 1,1 2,1 3,1 2,0 5,-1 7,-3 5,-4 8,-8 11,-13 2,-4 4,-8 4,-11 0,-3 -1,-6 -4,-7 -1,0 -2,-1 -2,-2 -1,-1 -1,-2 -1,-3l-1 0zm40 47c-2,0 -4,0 -5,-1 -3,-1 -5,-3 -6,-5 -1,-2 -1,-4 -1,-6 0,-4 1,-8 3,-13 1,-3 3,-6 5,-8 2,-3 4,-5 6,-7 1,-1 2,-3 2,-5 0,-2 0,-3 -1,-5l-1 -2 -21 20c-1,1 -2,1 -3,1 -1,0 -3,-1 -4,-2 -1,-1 -1,-2 -1,-4 0,-1 1,-3 2,-4l26 -25c1,-1 3,-2 4,-1 2,0 3,1 4,2 0,0 1,1 2,3 1,2 2,4 3,7 1,3 1,6 1,8 0,5 -2,9 -5,12 -1,1 -3,3 -4,5 -1,2 -3,4 -4,7 -2,3 -3,6 -3,8 0,1 0,1 0,1 0,0 0,0 1,0 0,0 1,0 2,0l2 0c4,-1 8,-2 11,-5 4,-3 7,-6 10,-10 2,-3 4,-5 5,-8 1,-2 2,-4 2,-4 0,-1 1,-2 2,-2 1,-1 2,-1 3,-1 2,0 3,1 4,2 1,1 1,2 1,4 0,1 0,2 -1,2 -1,2 -3,6 -6,10 -3,5 -7,9 -12,14 -5,5 -11,8 -18,8 -2,0 -3,0 -4,0zm127 -112c1,1 2,3 2,4 0,1 0,1 -1,2 -3,5 -7,8 -15,10 -7,2 -16,2 -28,2 0,0 0,1 -1,1 0,1 0,1 0,1 -2,7 -9,18 -21,31 -1,4 -2,9 -3,15 0,2 -1,5 -1,8 0,5 0,9 1,14 1,5 2,9 3,12 1,3 1,5 2,6 0,1 0,2 0,2 0,1 0,2 -1,3 -1,1 -1,2 -2,2 0,0 -1,0 -2,0 -1,0 -2,0 -3,-1 -1,-1 -2,-1 -2,-2 -1,-2 -2,-7 -4,-14 -2,-7 -2,-15 -2,-22 0,-3 0,-5 1,-8l-9 10 -3 3c-1,1 -2,1 -4,1 -1,0 -2,0 -4,-1 -1,-1 -2,-2 -2,-4 0,-1 1,-3 2,-4 7,-7 15,-16 23,-25 2,-8 6,-18 11,-30 -8,0 -15,1 -21,2 -6,1 -10,3 -13,5 0,1 1,2 1,3 0,1 0,2 -1,3 -1,1 -2,1 -3,1 -1,0 -3,-1 -4,-2 -2,-1 -3,-3 -3,-6 0,-1 0,-2 1,-3 2,-6 7,-9 15,-11 8,-2 19,-3 34,-3l2 -3c2,-3 5,-5 8,-5 1,0 1,0 2,0 3,1 4,4 4,7 8,0 15,-1 20,-1 5,-1 9,-2 11,-4 0,-1 1,-1 1,-1 1,-1 3,-2 4,-2 1,0 2,0 3,1zm-63 184c-2,0 -3,-1 -5,-2 -1,-1 -2,-3 -2,-5 0,-2 0,-5 1,-8 0,-3 2,-9 4,-17l1 -3c2,-9 6,-24 12,-44l0 0c-1,0 -2,-1 -3,-2 -1,-1 -1,-2 -1,-3 0,-1 1,-2 1,-3 1,-1 2,-2 3,-2l3 -1c1,-2 1,-4 2,-6 2,-5 3,-9 4,-13 4,-13 9,-30 16,-49 3,-9 6,-16 9,-22 3,-6 5,-11 7,-13 1,-1 3,-2 4,-2 2,0 3,1 4,2 2,2 2,4 2,7 0,4 -1,8 -3,14 -2,7 -6,17 -12,28 -6,13 -12,25 -19,38 -1,2 -2,5 -3,9l-1 4c7,-2 13,-4 19,-7 6,-3 11,-6 15,-11 1,-1 2,-2 4,-2 1,0 2,0 3,1 1,1 2,2 2,4 0,1 0,2 -1,3 -8,9 -21,16 -38,21 3,2 5,4 7,6 3,4 4,7 4,12l0 2c0,5 -2,11 -6,18 -3,7 -7,13 -9,18 -4,7 -8,13 -11,17 -5,6 -8,9 -11,10 -1,0 -2,0 -2,0zm21 -76c-4,14 -8,27 -10,38 -2,7 -3,14 -5,21 0,0 0,0 0,0 0,0 0,0 0,0 3,-5 7,-10 10,-16 4,-6 7,-12 9,-18 2,-6 4,-10 4,-13 0,-2 0,-4 -1,-6 -1,-2 -3,-4 -7,-6l0 0zm62 8c-3,0 -6,-1 -9,-3 -2,-1 -4,-3 -5,-6 -1,-2 -2,-5 -3,-8 0,-2 -1,-4 -1,-6 0,-4 1,-9 2,-13l-1 1c-1,1 -2,1 -3,1 -2,0 -3,-1 -4,-2 -1,-1 -1,-2 -1,-3 0,-1 1,-3 2,-4l1 -1c5,-4 8,-7 11,-9 3,-2 6,-4 9,-5 4,-2 7,-2 11,-2 4,0 8,1 12,2 1,0 2,1 3,2 1,1 1,2 1,4l0 0c5,3 7,8 7,15 0,5 -2,11 -5,17 -4,6 -8,11 -13,15 -4,4 -9,5 -13,5zm14 -50c-2,0 -4,0 -6,1 -7,2 -11,7 -14,15 -1,4 -2,8 -2,12 0,1 0,3 0,4 1,4 2,6 4,7 1,1 2,1 3,1 2,0 5,-1 7,-3 5,-4 8,-8 11,-13 2,-4 4,-8 4,-11 0,-3 -1,-6 -4,-7 -1,0 -2,-1 -2,-2 -1,-1 -1,-2 -1,-3l-1 0zm40 45c-2,0 -3,0 -4,-1 -3,-1 -6,-4 -8,-8 -1,-4 -2,-8 -2,-13 0,-9 1,-18 4,-27 3,-9 6,-17 10,-26 4,-8 9,-18 16,-28 4,-6 7,-11 10,-14 2,-2 3,-3 5,-3 1,-1 2,-1 4,-1 1,0 2,0 3,1 2,1 4,3 4,5 0,1 1,3 1,4 0,5 -1,11 -3,18 -5,15 -19,36 -43,63 0,1 0,3 0,4 0,1 0,2 0,3 0,4 0,7 1,10 1,2 1,3 2,4 1,0 3,0 5,-1 2,-1 4,-3 6,-5 3,-4 6,-7 9,-12 3,-4 4,-7 4,-7 0,-1 1,-1 2,-2 1,-1 2,-1 3,-1 1,0 2,0 2,1 2,1 3,3 3,5 0,1 0,2 -1,2 0,0 -1,2 -4,6 -2,4 -6,9 -10,14 -2,3 -5,5 -9,7 -3,2 -7,3 -10,3zm33 -109c-3,3 -5,7 -8,11 -6,9 -10,18 -14,25 -4,7 -7,14 -9,21 6,-8 12,-16 17,-24 5,-8 9,-15 11,-21 2,-5 3,-9 3,-13zm18 44c-1,0 -3,-1 -4,-2 -1,-1 -1,-2 -1,-4 0,-1 0,-3 1,-4 1,-1 2,-1 3,-1 0,0 1,0 1,0 0,0 0,-1 0,-1 -1,0 -2,-1 -3,-2 -1,-1 -1,-2 -1,-3 0,-1 0,-3 1,-4 1,-1 2,-1 4,-1 3,0 5,1 7,3 2,2 3,4 3,7 0,3 -1,5 -2,7 -2,3 -5,4 -8,4zm-4 63c-1,0 -1,0 -1,0 -2,0 -4,-1 -5,-3 -1,-2 -2,-4 -2,-6 0,-2 0,-5 1,-8 1,-3 2,-7 3,-12 1,-4 2,-8 3,-11l1 -3c-2,1 -4,4 -7,6 -2,2 -3,4 -5,5 -1,1 -2,2 -2,3 -1,1 -2,2 -4,2 -1,0 -2,0 -3,-1 -1,-1 -2,-2 -2,-4 0,-1 0,-2 1,-3 1,-1 2,-2 4,-4 2,-2 4,-4 6,-6 3,-3 6,-6 8,-7 2,-1 5,-2 7,-2 2,0 3,1 5,2 2,1 3,4 3,7 0,1 0,2 0,3 0,1 0,2 0,2 -1,4 -2,9 -3,14 -1,5 -2,9 -3,12 0,1 -1,2 -1,3 3,-2 7,-6 12,-11 3,-3 5,-5 7,-8 2,-2 3,-4 4,-4 1,-1 2,-2 4,-2 1,0 2,0 3,1 1,1 2,2 2,4 0,1 0,2 -1,3 0,0 -1,1 -3,4 -2,3 -5,6 -9,10 -4,5 -8,8 -11,10 -4,3 -8,5 -11,5zm49 7c-3,0 -6,-1 -9,-3 -2,-1 -4,-3 -5,-6 -1,-2 -2,-5 -3,-8 0,-2 -1,-4 -1,-6 0,-4 1,-9 2,-13l-1 1c-1,1 -2,1 -3,1 -2,0 -3,-1 -4,-2 -1,-1 -1,-2 -1,-3 0,-1 1,-3 2,-4l1 -1c5,-4 8,-7 11,-9 3,-2 6,-4 9,-5 4,-2 7,-2 11,-2 4,0 8,1 12,2 1,0 2,1 3,2 1,1 1,2 1,4l0 0c5,3 7,8 7,15 0,5 -2,11 -5,17 -4,6 -8,11 -13,15 -4,4 -9,5 -13,5zm14 -50c-2,0 -4,0 -6,1 -7,2 -11,7 -14,15 -1,4 -2,8 -2,12 0,1 0,3 0,4 1,4 2,6 4,7 1,1 2,1 3,1 2,0 5,-1 7,-3 5,-4 8,-8 11,-13 2,-4 4,-8 4,-11 0,-3 -1,-6 -4,-7 -1,0 -2,-1 -2,-2 -1,-1 -1,-2 -1,-3l-1 0z"/>
  </g>

  <g id="_726238000">
   <path class="fil39 str2" d="M6870 1013c283,0 513,61 513,61 0,0 -230,59 -513,59 -283,0 -513,-59 -513,-59 0,0 230,-61 513,-61z"/>
   <ellipse class="fil13 str2" cx="6873" cy="1052" rx="133" ry="135"/>
   <path class="fil40 str2" d="M7383 1074c-357,-84 -698,-80 -1026,0l456 -456 0 -93 114 0 0 93 456 456z"/>
   <line class="fil32 str2" x1="6862" y1="-2" x2="6870" y2= "525" />
  </g>
  <path class="fil36" d="M5529 2346c0,6 -4,11 -13,13 -7,2 -15,4 -25,4 -10,1 -16,1 -19,1 0,12 -1,25 -2,40 -1,15 -2,27 -3,36l-2 18 -1 19 -3 45c-2,20 -8,30 -19,30 -4,0 -8,-5 -12,-15 -4,-10 -6,-18 -6,-24 0,-2 2,-5 5,-9 3,-5 5,-10 6,-17 2,-11 3,-29 5,-54 2,-25 3,-46 4,-63 -15,1 -31,3 -49,5 -8,1 -25,3 -52,5 -27,3 -48,4 -64,5 -2,25 -3,57 -5,93 -2,37 -3,59 -3,67 0,3 0,7 1,12 1,5 1,9 1,12 0,3 -3,7 -8,10 -5,3 -9,5 -12,5 -4,0 -7,-3 -10,-8 -3,-5 -4,-11 -4,-17 0,-3 0,-9 1,-17 1,-8 1,-15 2,-21 2,-10 3,-19 3,-25 2,-23 3,-45 5,-66 1,-21 2,-35 2,-43 -24,4 -47,6 -69,6 -7,0 -14,-2 -19,-5 -5,-4 -8,-9 -8,-16 0,-5 1,-9 4,-11 3,-3 8,-4 15,-4l31 1c20,1 36,1 49,1 2,-33 3,-59 3,-79 0,-45 0,-85 -1,-120l0 -21c0,-6 2,-11 7,-14 4,-4 10,-5 15,-5 4,0 7,3 9,10 2,7 2,14 2,22 0,8 -1,26 -3,52 -2,45 -3,68 -3,71l-3 83c32,-1 87,-6 165,-15 2,-11 4,-41 8,-88 2,-25 3,-43 4,-55l3 -45c5,-57 8,-92 8,-106 0,-5 2,-9 6,-12 4,-3 8,-5 13,-5 7,0 10,7 10,20 0,8 -2,31 -6,68 -4,48 -7,74 -7,80 -2,30 -5,58 -7,85 -2,27 -4,45 -4,54 7,-1 13,-3 19,-5 7,-2 12,-3 16,-3 4,0 8,2 13,7 5,5 8,8 8,10zm101 -205c0,6 -6,9 -19,9 -7,0 -13,-3 -20,-8 -7,-5 -10,-10 -10,-13 0,-4 2,-8 6,-12 4,-4 8,-6 12,-6 0,0 1,0 4,1 3,1 6,4 10,8 3,3 7,7 10,12 4,5 6,8 6,9zm14 364c0,4 -2,7 -5,9 -3,2 -7,3 -11,3 -5,0 -9,-9 -12,-26 -3,-17 -5,-49 -8,-97 -2,-31 -3,-62 -4,-92 -1,-30 -2,-53 -2,-69 0,-4 1,-7 2,-10 1,-2 4,-3 8,-3 9,0 14,4 17,11 2,7 3,21 3,42l-1 68c0,39 1,70 3,94 0,1 2,14 5,37 3,16 4,27 4,32zm150 -45c0,6 -5,18 -14,38 -9,19 -19,37 -30,53 -11,16 -19,24 -24,24 -4,0 -7,-1 -10,-3 -3,-2 -4,-5 -4,-8 0,-2 2,-8 7,-16 4,-9 7,-14 8,-16l16 -31 10 -27c4,-12 8,-20 10,-26 3,-6 5,-8 8,-8 4,0 9,2 14,7 5,5 7,9 7,14zm538 -326c0,7 -4,13 -11,16 -7,3 -18,6 -32,9 -16,3 -36,6 -60,9 -24,3 -44,5 -59,5 -1,17 -3,64 -5,143 -2,79 -3,138 -3,175 21,0 48,-2 82,-4 29,-2 45,-2 48,-2 7,0 13,2 19,5 6,3 8,8 8,14 0,5 -1,9 -3,12 -2,2 -5,3 -11,3 -2,0 -9,-1 -19,-2 -8,-2 -14,-2 -20,-2 -18,0 -54,1 -109,3 -2,3 -4,5 -7,6 -3,1 -5,2 -7,2 -2,0 -5,-1 -7,-2 -2,-1 -4,-3 -4,-5l-26 3c-30,4 -52,6 -67,6 -13,0 -22,-3 -29,-8 -3,-3 -5,-9 -5,-17 0,-2 1,-5 4,-9 3,-3 5,-5 8,-5 1,0 4,1 9,3 5,2 10,3 15,3 14,0 35,-1 63,-2l27 -2 3 -85c0,-9 1,-17 1,-24 0,-7 1,-13 1,-18l6 -189c-40,3 -59,4 -57,4 -39,3 -62,5 -69,5 -7,0 -13,-2 -19,-6 -6,-4 -9,-10 -9,-16 0,-5 1,-8 4,-11 3,-3 6,-4 10,-4 3,0 6,0 9,1 3,0 6,1 9,1 10,2 19,3 28,3 8,0 25,-1 49,-2 24,-1 40,-2 48,-3 0,-5 2,-9 5,-12 3,-3 7,-5 12,-5 2,0 4,2 6,5 2,3 2,7 2,10 22,-1 63,-6 121,-15 5,-1 10,-3 15,-6 6,-3 9,-5 10,-5 4,0 8,2 11,5 3,3 5,7 5,12zm134 -3c0,6 -5,18 -14,38 -9,19 -19,37 -30,53 -11,16 -19,24 -24,24 -4,0 -7,-1 -10,-3 -3,-2 -4,-5 -4,-8 0,-2 2,-8 7,-16 4,-9 7,-14 8,-16l16 -31 10 -27c4,-12 8,-20 10,-26 3,-6 5,-8 8,-8 4,0 9,2 14,7 5,5 7,9 7,14zm422 367c0,5 -2,9 -5,12 -3,3 -7,5 -12,5 -7,0 -10,-3 -10,-10 0,-78 -3,-138 -8,-179 -5,-41 -14,-62 -26,-62 -21,0 -51,73 -91,218l0 1c0,5 -2,9 -5,12 -3,3 -7,5 -12,5 -7,0 -10,-3 -10,-10 0,-15 1,-39 2,-72 2,-36 2,-65 2,-86 0,-29 -1,-49 -3,-62 -2,-12 -5,-18 -11,-18 -13,0 -30,24 -50,72 -20,48 -41,105 -63,170l-5 15c-2,4 -4,7 -7,10 -3,3 -6,4 -10,4 -5,0 -8,0 -9,-1 -2,-1 -3,-3 -3,-7 -2,-19 -3,-44 -5,-76 -1,-8 -2,-21 -2,-40 -4,-65 -7,-109 -10,-132 -3,-23 -5,-36 -5,-38 0,-3 2,-7 5,-11 3,-4 6,-6 9,-6 6,0 11,4 15,13 2,4 4,21 6,51 2,30 4,67 6,111l3 89c21,-66 43,-125 66,-178 23,-53 44,-80 62,-80 13,0 21,9 26,28 5,19 7,45 7,80 0,19 0,45 -1,80l-1 27c16,-55 32,-101 47,-139 16,-37 31,-56 47,-56 40,0 60,88 60,264zm579 -174c0,19 -7,37 -20,56 -14,19 -32,40 -56,63 -17,17 -38,34 -61,51 -15,11 -31,20 -45,28 -15,8 -26,12 -34,12 -4,0 -7,-1 -10,-3 -3,-2 -4,-5 -4,-10 0,-6 2,-11 7,-16 5,-4 11,-8 19,-11 4,-2 9,-3 16,-5 9,-2 17,-4 24,-8 13,-7 28,-17 46,-30 18,-14 31,-26 41,-37 17,-18 29,-33 38,-47 9,-14 13,-28 13,-43 0,-8 -4,-14 -12,-18 -8,-4 -17,-5 -28,-5 -29,0 -55,5 -78,15 -10,5 -18,8 -21,10 -14,6 -25,11 -34,14 -10,4 -20,7 -29,10 -9,3 -15,5 -19,6l1 22c0,6 0,15 1,28 1,13 1,25 1,36 0,27 -2,48 -6,65 -2,5 -3,9 -5,12 -2,2 -6,3 -11,3 -3,0 -7,-1 -10,-3 -3,-2 -5,-5 -5,-9 0,-1 2,-8 5,-20 3,-12 5,-23 5,-32 0,-30 -1,-68 -4,-115l-2 -27c-2,-25 -3,-46 -3,-60 0,-11 1,-25 2,-43 2,-17 3,-28 3,-34 -15,4 -33,11 -56,21 -7,3 -15,8 -25,14 -10,6 -16,9 -20,9 -3,0 -6,-1 -8,-4 -2,-3 -3,-6 -3,-10 0,-7 13,-17 39,-28 26,-12 54,-22 84,-31 27,-8 52,-14 73,-18 21,-4 43,-6 65,-6 20,0 38,4 51,12 14,8 21,19 21,33 0,34 -19,69 -56,105 17,-2 32,-3 45,-3 18,0 33,4 46,11 13,7 19,20 19,37zm-82 -142c0,-9 -4,-16 -13,-21 -9,-5 -21,-7 -36,-7 -16,0 -36,2 -60,6 -24,4 -42,8 -56,12 -7,26 -10,48 -10,66 0,25 1,57 3,95 4,0 10,-2 19,-5 9,-3 17,-6 24,-9 37,-15 67,-35 91,-60 24,-25 36,-50 36,-76zm378 312c0,6 -2,11 -5,14 -3,3 -8,5 -14,5 -8,0 -15,-8 -21,-24 -6,-16 -10,-33 -12,-50 -2,-17 -3,-50 -3,-101 0,-8 -1,-16 -1,-25 0,-8 0,-15 -1,-21 -11,27 -26,57 -46,91 -19,34 -39,63 -58,87 -19,24 -35,36 -48,36 -13,0 -21,-7 -25,-20 -4,-14 -6,-35 -6,-64 0,-27 4,-58 11,-93 7,-35 15,-61 25,-79 4,-8 7,-14 10,-16 3,-3 6,-4 9,-4 10,0 14,2 14,6 0,2 -2,6 -6,13 -10,19 -19,42 -27,69 -8,27 -12,63 -12,109 0,30 4,46 13,46 10,0 24,-11 41,-33 17,-22 34,-49 51,-80 17,-31 30,-58 39,-80 3,-8 7,-20 10,-36 1,-7 2,-11 3,-14 1,-3 3,-4 4,-4 4,0 9,2 14,5 5,3 8,7 8,11 0,19 1,50 2,95 1,45 3,76 5,93 2,15 4,27 8,35 4,8 8,15 12,20 4,5 6,8 6,9zm296 -214c0,33 -13,69 -39,107 -26,39 -60,73 -100,103 -17,13 -30,19 -38,19 -4,0 -8,-2 -10,-5 -3,-3 -4,-7 -4,-11 0,-4 2,-8 5,-13 4,-4 9,-8 16,-11 27,-12 51,-28 73,-50 22,-22 39,-45 51,-69 12,-24 19,-46 19,-64 0,-7 -2,-13 -5,-16 -3,-4 -9,-5 -16,-5 -16,0 -33,7 -50,20 -17,13 -33,30 -47,51 -11,16 -22,36 -32,58 -10,23 -18,47 -24,72 -3,14 -10,20 -20,20 -3,0 -6,-2 -9,-7 -3,-5 -5,-9 -5,-13 0,-45 -2,-111 -5,-197 -3,-87 -5,-136 -6,-149 0,-2 0,-5 -1,-7 0,-2 -1,-4 -1,-6 0,-2 -1,-5 -1,-7 0,-3 -1,-5 -1,-7 0,-9 4,-13 12,-13 7,0 12,4 16,12 4,8 6,18 6,28l0 31c0,92 1,162 4,212 2,24 3,38 5,41 4,-13 11,-27 20,-43 9,-16 19,-30 29,-44 18,-25 38,-44 59,-59 21,-15 41,-22 58,-22 12,0 22,4 29,12 8,8 11,19 11,34zm285 187c0,3 2,5 5,8 3,3 4,5 4,7 0,5 -2,10 -6,16 -4,6 -8,9 -12,9 -7,0 -12,-4 -15,-12 -3,-8 -5,-18 -5,-28 0,-9 1,-37 2,-83l1 -22c0,-9 -2,-15 -7,-19 -17,29 -34,55 -49,76 -15,22 -34,42 -57,61 -23,19 -47,29 -73,29 -12,0 -22,-4 -29,-12 -7,-8 -10,-18 -10,-30 0,-15 7,-37 21,-63 14,-27 32,-54 53,-82 22,-28 43,-50 65,-68 14,-12 26,-19 34,-23 8,-4 16,-6 23,-6 6,0 13,2 19,6 7,4 12,9 17,16 5,7 7,15 7,24 0,12 -3,23 -10,34l10 -3c4,0 7,5 8,16 0,6 1,19 1,38 1,19 1,35 1,47 0,13 1,25 1,37 0,12 1,21 1,28zm-204 10c21,0 41,-8 60,-23 19,-15 37,-34 52,-55 15,-21 32,-48 51,-79 5,-12 7,-24 7,-38 0,-8 -2,-15 -7,-21 -5,-6 -11,-9 -19,-9 -10,0 -22,7 -37,20 -17,15 -36,34 -55,59 -19,24 -35,49 -48,73 -13,24 -19,43 -19,57 0,12 5,17 16,17z"/>
 </g>
</svg>
