<?xml version="1.0" encoding="UTF-8"?>
<!DOCTYPE svg PUBLIC "-//W3C//DTD SVG 1.1//EN" "http://www.w3.org/Graphics/SVG/1.1/DTD/svg11.dtd">
<!-- Creator: CorelDRAW X6 -->
<svg xmlns="http://www.w3.org/2000/svg" xml:space="preserve" width="13.7795in" height="6.88976in" version="1.1" style="shape-rendering:geometricPrecision; text-rendering:geometricPrecision; image-rendering:optimizeQuality; fill-rule:evenodd; clip-rule:evenodd"
viewBox="0 0 13780 6890"
 xmlns:xlink="http://www.w3.org/1999/xlink"
 enable-background="new 0 0 739.031 367.264">

 <defs>
  <style type="text/css">
   <![CDATA[
    .str2 {stroke:#373435;stroke-width:6.94488}
    .str1 {stroke:#CFD1E1;stroke-width:27.7795}
    .str0 {stroke:#CFD1E1;stroke-width:55.5551}
    .fil32 {fill:none}
    .fil18 {fill:#317283}
    .fil19 {fill:#32495E}
    .fil31 {fill:#5C6579}
    .fil39 {fill:#9D98CA}
    .fil12 {fill:#CFD1E1}
    .fil29 {fill:#E6EBEC}
    .fil13 {fill:#FEFEFE}
    .fil25 {fill:black}
    .fil30 {fill:#40BC32}
    .fil34 {fill:#898899}
    .fil33 {fill:#B7B8B7}
    .fil36 {fill:#373435;fill-rule:nonzero}
    .fil10 {fill:#317283;fill-rule:nonzero}
    .fil15 {fill:#32495E;fill-rule:nonzero}
    .fil3 {fill:#373435;fill-rule:nonzero}
    .fil40 {fill:#39354B;fill-rule:nonzero}
    .fil14 {fill:#696C6B;fill-rule:nonzero}
    .fil37 {fill:#96989A;fill-rule:nonzero}
    .fil16 {fill:#9D98CA;fill-rule:nonzero}
    .fil38 {fill:#A8518A;fill-rule:nonzero}
    .fil35 {fill:#E6E7E8;fill-rule:nonzero}
    .fil17 {fill:#FEFEFE;fill-rule:nonzero}
    .fil11 {fill:white;fill-rule:nonzero}
    .fil4 {fill:#39354B;fill-rule:nonzero}
    .fil5 {fill:#665690;fill-rule:nonzero}
    .fil6 {fill:#787EBC;fill-rule:nonzero}
    .fil9 {fill:#BD7EB5;fill-rule:nonzero}
    .fil1 {fill:#CFD1E1;fill-rule:nonzero}
    .fil2 {fill:#E2E5F0;fill-rule:nonzero}
    .fil8 {fill:#F17193;fill-rule:nonzero}
    .fil7 {fill:#F7A077;fill-rule:nonzero}
    .fil0 {fill:#FEFEFE;fill-rule:nonzero}
    .fil21 {fill:url(#id0)}
    .fil20 {fill:url(#id1)}
    .fil24 {fill:url(#id2)}
    .fil27 {fill:url(#id3)}
    .fil22 {fill:url(#id4)}
    .fil23 {fill:url(#id5)}
    .fil26 {fill:url(#id6)}
    .fil28 {fill:url(#id7)}
   ]]>
  </style>
  <linearGradient id="id0" gradientUnits="userSpaceOnUse" x1="10794.7" y1="4227.71" x2="10860.9" y2="4227.71">
   <stop offset="0" style="stop-color:#317283"/>
   <stop offset="1" style="stop-color:#898899"/>
  </linearGradient>
  <linearGradient id="id1" gradientUnits="userSpaceOnUse" x1="10794" y1="5142.8" x2="10860.2" y2="5142.8">
   <stop offset="0" style="stop-color:#32495E"/>
   <stop offset="1" style="stop-color:#898899"/>
  </linearGradient>
  <linearGradient id="id2" gradientUnits="userSpaceOnUse" x1="10791.4" y1="3725.22" x2="10861.6" y2="3725.22">
   <stop offset="0" style="stop-color:black"/>
   <stop offset="0.721569" style="stop-color:#44444C"/>
   <stop offset="1" style="stop-color:#898899"/>
  </linearGradient>
  <linearGradient id="id3" gradientUnits="userSpaceOnUse" xlink:href="#id2" x1="10789" y1="5627.36" x2="10860.7" y2="5627.36">
  </linearGradient>
  <linearGradient id="id4" gradientUnits="userSpaceOnUse" xlink:href="#id0" x1="10021.1" y1="3976.15" x2="9954.97" y2="3976.15">
  </linearGradient>
  <linearGradient id="id5" gradientUnits="userSpaceOnUse" xlink:href="#id1" x1="10021.1" y1="4891.47" x2="9954.97" y2="4891.47">
  </linearGradient>
  <linearGradient id="id6" gradientUnits="userSpaceOnUse" xlink:href="#id2" x1="9954.96" y1="3725.12" x2="10024.8" y2="3725.12">
  </linearGradient>
  <linearGradient id="id7" gradientUnits="userSpaceOnUse" xlink:href="#id2" x1="9953.97" y1="5627.28" x2="10024.8" y2="5627.28">
  </linearGradient>
 </defs>
 <g id="Layer_x0020_1">
  <metadata id="CorelCorpID_0Corel-Layer"/>

  <g id="_704982640" class="clock other">
   <path class="fil11" d="M2592 1572c0,305 -247,552 -552,552 -305,0 -552,-247 -552,-552 0,-305 247,-552 552,-552 305,0 552,247 552,552z"/>
   <path class="fil1" d="M2041 2140c-313,0 -568,-255 -568,-568 0,-313 255,-568 568,-568 313,0 568,255 568,568 0,313 -255,568 -568,568zm0 -1103l0 0c-295,0 -535,240 -535,535 0,295 240,535 535,535 295,0 535,-240 535,-535 0,-295 -240,-535 -535,-535z"/>
   <path class="fil2" d="M2408 1572c0,203 -164,367 -367,367 -203,0 -367,-164 -367,-367 0,-203 164,-367 367,-367 203,0 367,164 367,367z"/>
   <path class="fil1" d="M2041 1956c-211,0 -383,-172 -383,-384 0,-211 172,-383 383,-383 211,0 384,172 384,383 0,211 -172,384 -384,384zm0 -734l0 0c-193,0 -351,157 -351,351 0,193 157,351 351,351 193,0 351,-157 351,-351 0,-193 -157,-351 -351,-351z"/>
   <path class="fil1" d="M2057 1601c-3,9 -12,14 -20,11 -9,-3 -14,-12 -11,-20l74 -247c3,-9 12,-14 20,-11 9,3 14,12 11,20l-74 247z"/>
   <path class="fil1" d="M2174 1481c7,-5 16,-3 21,4 5,7 3,16 -4,21l-146 103c-7,5 -16,3 -21,-4 -5,-7 -3,-16 4,-21l146 -103z"/>
  </g>

  <g id="_704980176" class="shelf other">
   <polygon class="fil11" points="11713,6159 1784,6159 1784,5798 11713,5798 "/>
   <path class="fil1" d="M11733 6180l-9968 0 0 -403 9968 0 0 403zm-9928 -42l0 0 9888 0 0 -319 -9888 0 0 319z"/>
  </g>

  <g id="_706133232" class="photos w3-hover-opacity" style="cursor:pointer" onclick="window.location.href='./about'">
   <polygon class="fil10" points="12097,3872 10304,3872 10304,2353 12097,2353 "/>
   <path class="fil1" d="M12112 3891l-1822 0 0 -1557 1822 0 0 1557zm-1793 -38l0 0 1764 0 0 -1481 -1764 0 0 1481z"/>
   <g>
    <polygon class="fil2" points="10885,3229 10553,3229 10553,2896 10885,2896 "/>
    <path class="fil1" d="M10900 3243l-362 0 0 -362 362 0 0 362zm-333 -29l0 0 304 0 0 -304 -304 0 0 304z"/>
   </g>
   <g>
    <polygon class="fil11" points="10885,3229 10553,3229 10553,3108 10885,3108 "/>
    <path class="fil1" d="M10900 3243l-362 0 0 -149 362 0 0 149zm-333 -29l0 0 304 0 0 -92 -304 0 0 92z"/>
   </g>
   <g>
    <polygon class="fil4" points="11367,3229 11035,3229 11035,2896 11367,2896 "/>
    <path class="fil1" d="M11382 3243l-362 0 0 -362 362 0 0 362zm-333 -29l0 0 304 0 0 -304 -304 0 0 304z"/>
   </g>
   <g>
    <polygon class="fil5" points="11849,3229 11517,3229 11517,2896 11849,2896 "/>
    <path class="fil1" d="M11864 3243l-362 0 0 -362 362 0 0 362zm-333 -29l0 0 304 0 0 -304 -304 0 0 304z"/>
   </g>
   <g>
    <polygon class="fil6" points="10885,3701 10553,3701 10553,3368 10885,3368 "/>
    <path class="fil1" d="M10900 3716l-362 0 0 -362 362 0 0 362zm-333 -29l0 0 304 0 0 -304 -304 0 0 304z"/>
   </g>
   <g>
    <polygon class="fil7" points="11367,3701 11035,3701 11035,3368 11367,3368 "/>
    <path class="fil1" d="M11382 3716l-362 0 0 -362 362 0 0 362zm-333 -29l0 0 304 0 0 -304 -304 0 0 304z"/>
   </g>
   <g>
    <polygon class="fil8" points="11849,3701 11517,3701 11517,3368 11849,3368 "/>
    <path class="fil1" d="M11864 3716l-362 0 0 -362 362 0 0 362zm-333 -29l0 0 304 0 0 -304 -304 0 0 304z"/>
   </g>
   <g>
    <polygon class="fil11" points="11367,3229 11035,3229 11035,3108 11367,3108 "/>
    <path class="fil1" d="M11382 3243l-362 0 0 -149 362 0 0 149zm-333 -29l0 0 304 0 0 -92 -304 0 0 92z"/>
   </g>
   <g>
    <polygon class="fil11" points="11849,3229 11517,3229 11517,3108 11849,3108 "/>
    <path class="fil1" d="M11864 3243l-362 0 0 -149 362 0 0 149zm-333 -29l0 0 304 0 0 -92 -304 0 0 92z"/>
   </g>
   <g>
    <polygon class="fil11" points="11849,3711 11517,3711 11517,3590 11849,3590 "/>
    <path class="fil1" d="M11864 3725l-362 0 0 -149 362 0 0 149zm-333 -29l0 0 304 0 0 -92 -304 0 0 92z"/>
   </g>
   <g>
    <polygon class="fil11" points="11367,3711 11035,3711 11035,3590 11367,3590 "/>
    <path class="fil1" d="M11382 3725l-362 0 0 -149 362 0 0 149zm-333 -29l0 0 304 0 0 -92 -304 0 0 92z"/>
   </g>
   <g>
    <polygon class="fil11" points="10885,3711 10553,3711 10553,3590 10885,3590 "/>
    <path class="fil1" d="M10900 3725l-362 0 0 -149 362 0 0 149zm-333 -29l0 0 304 0 0 -92 -304 0 0 92z"/>
   </g>
   <path class="fil11" d="M10527 2567c1,0 1,0 2,1 0,0 1,1 1,2 0,1 0,2 -1,2l-2 2 1 1c0,0 0,0 1,1 0,0 1,1 1,2l0 1c0,1 0,2 0,3 -1,3 -2,5 -4,6 0,0 -1,0 -1,0 -1,0 -2,0 -4,-1 -1,-1 -2,-3 -2,-5 0,0 0,-1 0,-2 1,-3 3,-7 7,-11 0,0 1,-1 2,-1zm15 0c1,0 1,0 2,1 0,0 1,1 1,2 0,1 0,2 -1,2l-2 2 1 1c0,0 0,0 1,1 0,0 1,1 1,2l0 1c0,1 0,2 0,3 -1,3 -2,5 -4,6 0,0 -1,0 -1,0 -1,0 -2,0 -4,-1 -1,-1 -2,-3 -2,-5 0,0 0,-1 0,-2 1,-3 3,-7 7,-11 0,0 1,-1 2,-1zm-19 15c0,0 1,-1 1,-2 0,0 0,-1 0,-1l-1 1c0,0 0,0 0,0l0 0c0,0 0,1 0,1 0,0 0,1 0,1zm15 0c0,0 1,-1 1,-2 0,0 0,-1 0,-1l-1 1c0,0 0,0 0,0l0 0c0,0 0,1 0,1 0,0 0,1 0,1zm85 129c-6,0 -10,-3 -12,-9 -2,-4 -2,-9 -2,-15 0,-3 0,-5 0,-6 -8,8 -16,14 -22,19 -7,5 -14,8 -20,10 -2,1 -5,1 -8,1 -5,0 -9,-1 -12,-3 -3,-2 -6,-4 -7,-7 -2,-3 -3,-6 -3,-10 0,-5 1,-10 4,-16 4,-9 10,-21 20,-33 9,-13 20,-25 33,-38 11,-11 21,-20 31,-28 10,-7 17,-11 21,-11 1,0 1,0 2,0 6,1 10,5 13,9 2,3 3,7 3,12 0,5 -1,9 -2,13 0,1 -1,2 -2,2 -1,1 -2,1 -3,1 0,0 0,1 0,1l0 2c0,4 -2,10 -6,18 -4,8 -10,17 -16,26 -4,6 -9,12 -13,17 -2,8 -2,15 -2,20 0,5 1,8 2,11 1,2 2,3 3,3 1,0 4,-1 9,-4 4,-3 10,-9 18,-19 3,-4 6,-8 10,-13 4,-5 7,-10 9,-14 3,-4 4,-7 5,-8 1,-2 3,-3 5,-3 1,0 2,0 3,1 2,1 2,3 2,5 0,1 0,2 -1,3 -3,4 -7,10 -11,17 -5,7 -9,13 -13,18 -6,7 -12,13 -17,18 -7,6 -13,9 -18,9l-1 0zm22 -136c-1,0 -3,1 -5,2 -3,2 -7,4 -12,9 -10,8 -21,18 -31,29 -12,13 -22,25 -30,36 -9,13 -15,23 -17,32 -1,2 -1,4 -1,6 0,4 1,7 4,8 2,1 4,2 7,2 6,0 14,-3 23,-9 10,-7 20,-16 31,-29 0,-2 1,-6 3,-11 3,-10 6,-19 10,-28 4,-9 8,-16 12,-20 4,-4 8,-6 12,-6 1,0 2,0 2,0l0 -1c1,-2 1,-5 1,-9 0,-3 0,-5 -1,-7 -1,-2 -3,-3 -6,-4zm-1 35c-2,3 -5,7 -8,12 -3,5 -5,11 -8,18 5,-7 9,-14 13,-21 2,-4 3,-7 4,-10l-2 1zm90 34c0,1 1,1 1,2 0,1 0,2 -1,3 -1,1 -1,2 -2,2 -6,3 -11,6 -15,8 -5,2 -9,4 -13,4 -3,10 -7,16 -12,18 -3,1 -5,1 -7,1 -2,0 -4,-1 -6,-2 -2,-1 -3,-3 -4,-6 -1,-3 -1,-7 -1,-12 0,-4 0,-9 1,-17 1,-10 4,-21 8,-33 4,-12 9,-24 15,-35 6,-11 11,-19 15,-25 3,-3 5,-6 7,-7 2,-2 4,-2 6,-2 1,0 3,0 4,1 3,2 4,5 4,9 0,2 0,4 -1,7 -1,7 -4,17 -8,28 -6,15 -12,27 -19,35 -7,8 -14,14 -19,17 0,1 0,3 -1,5 0,0 0,1 0,1 1,-3 4,-5 7,-6 1,-1 3,-1 4,-1 2,0 4,1 5,2 3,2 4,5 4,10 4,-1 7,-3 11,-4 3,-2 7,-4 11,-6 1,0 1,-1 2,-1 2,0 4,1 5,3zm-35 -46c-3,8 -6,16 -10,26l2 -2c9,-10 17,-22 22,-37 4,-12 7,-21 8,-27l-2 2c-3,4 -6,9 -10,16 -4,7 -7,14 -11,22zm-6 64c-2,-1 -4,-2 -5,-3 -1,-1 -2,-3 -3,-5l0 0c0,5 0,8 0,9 0,4 0,7 1,9 0,0 1,0 2,-1 1,0 1,-1 2,-2 1,-1 2,-3 3,-5l1 -1zm59 24c-3,0 -6,-1 -9,-3 -2,-1 -4,-3 -6,-6 -2,-3 -3,-5 -3,-9 0,-2 -1,-4 -1,-6 0,-5 1,-9 2,-14l-1 1c-1,1 -2,1 -3,1 -2,0 -3,-1 -4,-2 -1,-1 -1,-2 -1,-4 0,-1 1,-3 2,-4l1 -1c5,-4 9,-8 12,-10 3,-2 6,-4 9,-6 4,-2 8,-3 12,-3 4,0 8,1 13,2 1,0 2,1 3,3 1,1 1,3 1,4l0 0c5,4 8,9 8,16 0,6 -2,12 -6,18 -4,6 -8,12 -14,16 -5,4 -9,6 -14,6zm15 -53c-2,0 -4,0 -6,1 -7,2 -12,7 -15,15 -1,5 -2,9 -2,12 0,1 0,3 0,4 1,4 2,6 4,8 1,1 2,1 3,1 2,0 5,-1 7,-3 5,-4 9,-9 12,-14 3,-5 4,-9 4,-12 0,-3 -1,-6 -4,-8 -1,0 -2,-1 -2,-2 -1,-1 -1,-2 -1,-3l-1 0zm46 43c-4,-1 -7,-4 -9,-9 -1,-3 -1,-5 -1,-8 0,-3 1,-7 3,-12 -2,1 -3,2 -5,2 -1,0 -3,-1 -4,-2 -1,-1 -1,-2 -1,-4 0,-2 1,-3 2,-4l19 -18c1,-1 2,-1 3,-1 1,0 3,1 4,2 1,1 1,2 1,3 0,1 0,2 -1,4 0,1 -1,3 -3,6 -1,3 -3,6 -4,9 -3,6 -4,10 -4,14 0,2 0,3 1,4 0,1 1,2 1,2 1,0 4,-2 6,-5 1,-1 4,-4 8,-9l4 -5 0 -1c12,-15 18,-23 18,-23 1,-1 2,-2 4,-2 1,0 2,0 2,0 1,0 2,1 3,2 1,1 1,2 1,4 0,1 -1,3 -1,6 -1,3 -1,7 -2,12 -1,5 -1,10 -1,14 0,3 0,4 0,5 3,-2 8,-6 13,-11 3,-3 5,-5 7,-8 2,-3 3,-4 4,-5 1,-1 3,-2 4,-2 1,0 2,0 3,1 1,1 2,3 2,4 0,1 0,2 -1,3 -1,1 -2,3 -5,5 -2,3 -5,5 -8,8 -6,6 -10,10 -14,12 -3,2 -6,3 -8,3 -2,0 -4,-1 -6,-3 -2,-3 -3,-7 -3,-13 0,-4 0,-9 1,-13 -1,1 -3,3 -5,6l0 1c-7,8 -12,14 -15,18 -4,4 -7,5 -11,5l-1 0zm168 -112c1,1 2,3 2,4 0,1 0,1 -1,2 -3,5 -8,9 -15,10 -7,2 -17,3 -29,3 0,0 0,1 -1,2 0,1 0,1 0,2 -3,7 -10,19 -22,33 -1,4 -2,9 -3,16 0,3 -1,5 -1,8 0,5 0,10 1,15 1,5 2,10 3,13 1,4 2,6 2,7 0,1 0,2 0,2 0,1 0,2 -1,3 -1,1 -2,2 -3,2 0,0 -1,0 -2,0 -1,0 -2,0 -3,-1 -1,-1 -2,-1 -2,-3 -1,-2 -2,-7 -4,-15 -2,-8 -3,-16 -3,-24 0,-3 0,-6 1,-8l-10 10 -3 3c-1,1 -2,1 -4,1 -1,0 -3,0 -4,-1 -1,-1 -2,-2 -2,-4 0,-1 1,-3 2,-4 8,-8 16,-17 24,-26 2,-9 6,-19 12,-31 -9,0 -16,1 -22,2 -6,1 -10,3 -14,6 0,1 1,2 1,3 0,1 0,3 -1,4 -1,1 -2,1 -3,1 -1,0 -3,-1 -4,-2 -2,-2 -3,-4 -3,-6 0,-1 0,-2 1,-3 2,-6 7,-10 16,-12 9,-2 21,-3 36,-3l2 -3c3,-3 5,-5 8,-5 1,0 2,0 3,0 3,1 4,4 5,7 9,0 16,-1 21,-1 5,-1 9,-2 12,-5 0,-1 1,-1 1,-1 1,-1 3,-2 4,-2 1,0 2,0 3,1zm26 115c0,0 -1,0 -2,0 -1,0 -2,-1 -3,-2 -1,-1 -1,-2 -1,-4 0,-2 0,-3 1,-5 1,-2 3,-5 5,-9 3,-5 5,-9 7,-13 1,-3 2,-5 2,-7 -2,1 -4,2 -7,4 -2,1 -3,2 -4,3 -1,1 -2,1 -2,2 -1,1 -3,2 -5,2 -1,0 -2,0 -3,-1 -1,-1 -2,-3 -2,-4 0,-1 0,-2 1,-3 0,0 1,-1 3,-3 2,-2 3,-3 5,-5 5,-4 10,-6 14,-6 2,0 4,1 5,2 2,1 3,3 4,4 1,1 1,3 1,4l2 -3c4,-4 7,-7 9,-9 3,-2 5,-3 7,-3 1,0 2,0 2,0 3,0 5,2 6,5 1,2 2,4 2,7 1,4 1,8 1,14 3,-5 6,-8 9,-12 4,-5 8,-7 12,-7 2,0 4,1 5,3 2,2 3,6 3,12 0,1 0,3 0,6l0 5c0,3 -1,7 -1,10l0 1c3,-3 6,-6 10,-11 2,-3 4,-6 6,-8 2,-2 3,-4 3,-5 1,-2 3,-2 4,-2 1,0 2,0 3,1 2,1 3,3 3,4 0,1 0,2 -1,3 -1,1 -2,3 -4,6 -2,3 -4,6 -7,9 -4,5 -7,8 -9,11 -4,4 -7,5 -10,5l-1 0c-3,-1 -5,-2 -6,-5 -1,-2 -1,-4 -1,-8 0,-4 0,-7 1,-11l0 -4c0,-3 0,-5 0,-6l0 -1c-3,2 -6,7 -11,14 -3,4 -5,7 -7,10 -2,3 -3,5 -3,5 0,1 -1,2 -2,2 -1,0 -2,1 -3,1 -2,0 -3,-1 -4,-2 -1,-1 -1,-3 -1,-4 0,0 0,-2 1,-7 1,-4 1,-9 1,-15 0,-6 -1,-10 -2,-13 -2,2 -6,5 -10,10 -5,6 -10,12 -15,20 -2,2 -3,4 -4,6 -1,2 -2,3 -3,4 -1,1 -1,2 -2,2 0,0 -1,1 -1,1 0,0 -1,1 -2,1 -1,1 -2,1 -4,1zm105 5c-3,0 -6,-1 -8,-3 -3,-3 -4,-7 -4,-12 0,-6 2,-14 5,-24 3,-9 8,-16 15,-21 3,-2 6,-4 9,-5 3,-1 6,-2 8,-2 3,0 6,1 8,3 2,2 3,4 3,7 0,4 -2,8 -7,12 -3,3 -7,6 -13,10 -3,2 -7,5 -10,7 -3,2 -6,3 -6,4 0,1 0,2 -1,4 0,2 -1,3 -1,5 0,3 1,4 3,4 1,0 2,0 3,-1 5,-2 12,-6 20,-13 8,-7 15,-13 21,-19 1,-1 3,-2 4,-2 1,0 3,1 4,2 1,1 2,2 2,4 0,1 0,3 -1,4 -6,6 -12,11 -15,15 -12,10 -22,17 -29,20 -3,1 -6,2 -8,2l-1 0zm25 -56c-2,0 -3,0 -5,1 -3,1 -6,3 -9,6 -3,3 -5,6 -7,10l5 -3c9,-6 14,-10 16,-14l-1 0zm23 -41c-1,0 -1,0 -2,-1 0,-1 -1,-1 -1,-2 0,-1 0,-2 1,-2l2 -2 -1 -1c0,0 0,0 -1,-1 0,0 -1,-1 -1,-2l0 -1c0,-1 0,-2 0,-3 1,-3 2,-5 4,-6 0,0 1,0 1,0 1,0 2,0 4,1 1,1 2,3 2,5 0,0 0,1 0,2 -1,3 -3,7 -7,11 0,0 -1,1 -2,1zm15 0c-1,0 -1,0 -2,-1 0,-1 -1,-1 -1,-2 0,-1 0,-1 1,-2l2 -2 -1 -1c0,0 0,0 -1,-1 0,0 -1,-1 -1,-2l0 -1c0,-1 0,-2 0,-3 1,-3 2,-5 4,-6 0,0 1,0 1,0 1,0 2,0 4,1 1,1 2,3 2,5 0,0 0,1 0,2 -1,3 -3,7 -7,11 0,0 -1,1 -2,1zm-12 -15c0,0 -1,1 -1,2 0,0 0,1 0,1l1 -1c0,0 0,0 0,0l0 0c0,0 0,-1 0,-1 0,0 0,-1 0,-1zm15 0c0,0 -1,1 -1,2 0,0 0,1 0,1l1 -1c0,0 0,0 0,0l0 0c0,0 0,-1 0,-1 0,0 0,-1 0,-1z"/>
  </g>

  <g id="_780815552" class="blog w3-hover-opacity" style="cursor:pointer" onclick="window.open('http://www.buba-kun.blogspot.com')">
   <polygon class="fil11" points="2217,4971 2320,5013 2822,3757 2719,3716 "/>
   <path class="fil10" d="M2563 4094l152 -380 103 41 -152 380c-33,-13 -68,-27 -103,-42z"/>
   <path class="fil1" d="M2698 3675l159 64 -175 436 -28 -11c-33,-13 -68,-27 -103,-42l-28 -11 174 -436zm34 78l0 0 -130 324c16,6 32,13 47,19l130 -324 -47 -19z"/>
   <polygon class="fil1" points="2737,4105 2845,3836 2816,3825 2834,3781 2906,3810 2763,4167 2691,4138 2709,4094 "/>
   <path class="fil1" d="M2701 3683l147 59 -520 1299 -147 -59 520 -1299zm26 62l0 0 -484 1211 59 24 484 -1211 -59 -24z"/>
   <polygon class="fil11" points="2338,4901 2429,4963 3192,3847 3100,3784 "/>
   <path class="fil10" d="M2865 4120l231 -338 92 63 -231 338c-29,-20 -61,-42 -92,-63z"/>
   <path class="fil1" d="M3088 3740l142 97 -265 388 -25 -17c-29,-20 -60,-42 -92,-63l-25 -17 265 -388zm16 84l0 0 -197 288c14,10 28,19 42,29l197 -289 -42 -29z"/>
   <polygon class="fil1" points="3033,4168 3196,3928 3171,3911 3198,3872 3262,3916 3045,4234 2981,4190 3008,4150 "/>
   <path class="fil1" d="M3090 3748l131 89 -789 1156 -131 -89 789 -1156zm12 66l0 0 -735 1077 53 36 735 -1077 -53 -36z"/>
   <g>
    <g>
     <path class="fil11" d="M2569 5642l-294 69 -469 -2001 294 -69 469 2001zm-634 -1773l0 0c8,33 41,54 74,46 33,-8 54,-41 46,-74 -8,-33 -41,-54 -74,-46 -33,8 -54,41 -46,74z"/>
     <path class="fil1" d="M1786 3697l477 2034 326 -76 -477 -2034 -326 76zm502 1993l0 0 -461 -1968 261 -61 461 1968 -261 61zm-369 -1818l0 0c10,42 52,68 94,58 42,-10 68,-52 58,-94 -10,-42 -52,-68 -94,-58 -42,10 -68,52 -58,94zm120 -28l0 0c6,24 -9,48 -33,54 -24,6 -48,-9 -54,-33 -6,-24 9,-48 33,-54 24,-6 48,9 54,33z"/>
    </g>
    <g>
     <polygon class="fil1" points="2333,5416 2341,5449 2504,5410 2496,5378 "/>
    </g>
    <g>
     <polygon class="fil1" points="2420,5510 2428,5543 2534,5518 2526,5485 "/>
    </g>
    <g>
     <polygon class="fil1" points="2369,5293 2377,5325 2483,5301 2475,5268 "/>
    </g>
    <g>
     <polygon class="fil1" points="2318,5075 2326,5108 2432,5083 2424,5050 "/>
    </g>
    <g>
     <polygon class="fil1" points="2267,4858 2275,4890 2381,4866 2373,4833 "/>
    </g>
    <g>
     <polygon class="fil1" points="2216,4640 2224,4673 2330,4648 2322,4616 "/>
    </g>
    <g>
     <polygon class="fil1" points="2165,4423 2173,4456 2279,4431 2271,4398 "/>
    </g>
    <g>
     <polygon class="fil1" points="2114,4205 2122,4238 2228,4213 2220,4181 "/>
    </g>
    <g>
     <polygon class="fil1" points="2063,3988 2071,4021 2177,3996 2169,3963 "/>
    </g>
    <g>
     <polygon class="fil1" points="2282,5199 2290,5231 2453,5193 2445,5160 "/>
    </g>
    <g>
     <polygon class="fil1" points="2231,4981 2239,5014 2402,4975 2394,4943 "/>
    </g>
    <g>
     <polygon class="fil1" points="2180,4764 2188,4796 2351,4758 2343,4725 "/>
    </g>
    <g>
     <polygon class="fil1" points="2129,4546 2137,4579 2300,4541 2292,4508 "/>
    </g>
    <g>
     <polygon class="fil1" points="2078,4329 2086,4361 2249,4323 2241,4290 "/>
    </g>
    <g>
     <polygon class="fil1" points="2027,4111 2035,4144 2198,4106 2190,4073 "/>
    </g>
   </g>
   <polygon class="fil12" points="1828,4270 2977,4270 2830,5795 1966,5795 "/>
   <polygon class="fil13" points="1868,4324 2936,4324 2800,5742 1997,5742 "/>
   <polygon class="fil10" points="2217,5013 2287,5041 2316,4966 2247,4939 "/>
   <polygon class="fil10" points="2321,4936 2383,4978 2428,4912 2366,4870 "/>
   <g>
    <polygon class="fil14" points="2175,5422 2175,5134 4272,5134 4272,5422 "/>
    <path class="fil1" d="M2147 5451l0 -345 2154 0 0 345 -2154 0zm57 -288l0 0 0 230 2039 0 0 -230 -2039 0z"/>
    <polygon class="fil15" points="2175,5764 2175,5430 4519,5430 4519,5764 "/>
    <path class="fil1" d="M2147 5792l0 -391 2401 0 0 391 -2401 0zm57 -334l0 0 0 277 2286 0 0 -277 -2286 0z"/>
    <polygon class="fil16" points="2203,5110 2203,4776 4546,4776 4546,5110 "/>
    <path class="fil1" d="M2174 5139l0 -391 2401 0 0 391 -2401 0zm57 -334l0 0 0 277 2286 0 0 -277 -2286 0z"/>
    <path class="fil17" d="M2482 4928c0,6 -2,11 -7,16 -5,6 -12,10 -21,13 -6,2 -15,4 -27,7l-9 2c1,0 4,1 8,2 11,3 20,8 27,14 8,7 12,14 12,22 0,4 -1,9 -3,12 -2,4 -5,7 -10,11 -9,7 -23,14 -40,19 -6,2 -11,3 -16,3 -3,0 -5,0 -7,-1 -7,-1 -12,-4 -15,-8 -1,-1 -2,-2 -2,-3 -6,7 -11,12 -15,13 0,0 -1,0 -2,0 -1,0 -2,0 -3,-1 -1,-1 -2,-2 -2,-3 0,-1 0,-1 0,-2 0,-1 0,-2 1,-3 1,-1 2,-2 3,-2 2,-1 4,-3 7,-6 3,-3 7,-9 12,-16 7,-11 14,-26 23,-45 7,-16 15,-34 23,-57 -11,2 -19,6 -24,12 -2,2 -3,4 -4,7 -1,2 -1,4 -1,4 0,1 -1,3 -2,4 -1,1 -2,2 -4,2 -2,0 -3,-1 -4,-2 -1,-1 -2,-2 -2,-4 0,-2 1,-4 2,-8 1,-3 3,-7 6,-11 4,-5 10,-9 18,-12 10,-4 21,-6 35,-6 13,0 23,2 31,6 4,2 8,5 10,9 2,3 4,7 4,11zm-31 18c6,-2 11,-5 15,-8 4,-4 5,-7 5,-10 0,-2 -1,-5 -4,-7 -2,-2 -6,-4 -12,-6 -5,-1 -12,-2 -20,-2 -2,0 -4,0 -7,0 -4,12 -10,26 -17,42 2,0 6,-1 13,-3 10,-2 19,-4 26,-6zm-28 32c-7,-2 -12,-3 -15,-5 -1,-1 -2,-1 -3,-1l-2 5c-6,15 -13,28 -19,39 0,1 -1,3 -2,4 -1,2 -2,3 -2,4 -1,1 -1,2 -1,4 0,2 1,3 2,5 1,1 3,3 6,4 2,1 5,1 8,1 4,0 8,-1 13,-2 17,-5 29,-11 37,-17 6,-5 9,-10 9,-15 0,-5 -3,-9 -9,-14 -6,-5 -13,-8 -22,-11zm67 42c-2,0 -3,0 -5,-1 -4,-1 -6,-4 -8,-9 -1,-4 -2,-8 -2,-14 0,-10 1,-20 4,-29 3,-10 6,-19 11,-27 4,-9 10,-19 17,-30 4,-6 7,-11 11,-15 2,-2 4,-3 5,-4 1,-1 3,-1 4,-1 1,0 2,0 3,1 2,1 4,3 5,6 0,1 1,3 1,5 0,5 -1,12 -4,19 -5,16 -20,38 -46,67 0,2 0,3 0,4 0,1 0,2 0,3 0,4 0,8 1,10 1,2 1,4 2,4 1,0 3,0 5,-1 2,-1 5,-3 7,-6 3,-4 6,-8 9,-13 3,-5 4,-7 4,-7 0,-1 1,-2 2,-2 1,-1 2,-1 3,-1 1,0 2,0 3,1 2,1 3,3 3,5 0,1 0,2 -1,3 0,0 -1,2 -4,7 -2,4 -6,9 -11,15 -3,3 -6,6 -9,8 -4,2 -7,3 -10,3zm35 -117c-3,3 -6,7 -9,12 -6,10 -11,19 -15,27 -4,8 -7,15 -10,23 7,-8 13,-17 19,-25 6,-9 10,-16 12,-22 2,-5 3,-10 3,-14zm17 122c-3,0 -6,-1 -9,-3 -2,-1 -4,-3 -6,-6 -2,-3 -3,-6 -3,-9 0,-2 -1,-4 -1,-7 0,-5 1,-10 2,-14l-1 1c-1,1 -2,1 -3,1 -2,0 -3,-1 -4,-2 -1,-1 -1,-2 -1,-4 0,-1 1,-3 2,-4l1 -1c5,-4 9,-8 12,-10 3,-2 6,-4 9,-6 4,-2 8,-3 12,-3 4,0 9,1 13,2 1,0 2,1 3,3 1,1 1,3 1,4l0 0c5,4 8,9 8,16 0,6 -2,12 -6,18 -4,6 -9,12 -14,17 -5,4 -9,6 -14,6zm15 -53c-2,0 -4,0 -6,1 -7,2 -12,7 -15,16 -1,5 -2,9 -2,12 0,1 0,3 0,4 1,4 2,7 4,8 1,1 2,1 3,1 2,0 5,-1 7,-3 5,-4 9,-9 12,-14 3,-5 4,-9 4,-12 0,-4 -1,-6 -4,-8 -1,0 -2,-1 -2,-2 -1,-1 -1,-2 -1,-3l-1 0zm17 108c-1,0 -2,0 -4,-1 -1,-1 -2,-2 -3,-4 0,-1 -1,-3 -1,-5 0,-5 1,-12 4,-20 5,-13 11,-23 19,-30 6,-5 13,-7 19,-8 1,0 2,0 3,0 1,0 2,0 3,0 4,-10 7,-19 10,-28l-5 5c-15,15 -25,24 -30,27 -3,1 -5,2 -7,2 -3,0 -5,-2 -7,-4 -1,-2 -2,-4 -2,-7 0,-4 1,-7 3,-11 3,-8 9,-15 17,-22 10,-8 18,-12 26,-12 4,0 7,1 11,3l2 -2c1,-1 2,-2 4,-2 1,0 2,0 3,1 1,1 2,1 2,3 0,1 1,2 0,4 -1,4 -3,11 -6,21 -3,10 -7,20 -11,29 3,1 5,2 8,4 2,1 3,3 3,5 0,1 0,2 -1,3 0,1 -1,2 -2,2 -1,0 -2,1 -3,1 -1,0 -2,0 -3,-1 -2,-1 -4,-2 -6,-3 -3,5 -5,9 -6,11 -7,12 -15,22 -22,30 -4,4 -7,7 -10,9 -4,3 -7,4 -10,4zm47 -109c-5,0 -12,3 -19,10 -7,6 -11,12 -14,18 -1,3 -2,5 -2,8l0 0c3,-1 8,-6 15,-12 7,-7 15,-14 22,-23l-2 0 -1 0zm-10 53c-4,0 -8,2 -11,5 -3,2 -6,6 -9,10 -3,4 -5,9 -7,14 -2,5 -3,9 -4,13 0,0 0,1 0,1 2,-2 5,-4 8,-7 7,-8 14,-17 20,-28 2,-3 3,-5 4,-8z"/>
   </g>
  </g>

  <g id="_780840352" class="contact w3-hover-opacity" style="cursor:pointer" onclick="window.location.href='./contact'">
   <polygon class="fil18" points="10815,4723 9988,4187 10000,3762 10810,3759 "/>
   <polygon class="fil19" points="10018,4184 10795,4689 10822,5587 10012,5593 "/>
   <polygon class="fil20" points="10794,5596 10860,5596 10860,4689 10794,4689 "/>
   <polygon class="fil21" points="10795,3764 10861,3764 10861,4691 10795,4691 "/>
   <polygon class="fil22" points="9955,3763 10021,3763 10021,4189 9955,4189 "/>
   <polygon class="fil23" points="9955,5596 10021,5596 10021,4187 9955,4187 "/>
   <path class="fil24" d="M10793 3767c58,0 49,-3 68,18 1,1 0,-20 0,-21l0 -98c0,-1 1,0 0,0l-68 0c-1,0 -1,1 -1,1l0 98c0,1 1,1 1,1z"/>
   <polygon class="fil25" points="10021,3767 10795,3767 10795,3666 10021,3666 "/>
   <path class="fil26" d="M10023 3767c-59,0 -53,-4 -68,17 0,0 0,-79 0,-100 0,-13 9,-18 21,-18l47 0c1,0 1,1 1,1l0 98c0,1 -1,1 -1,1z"/>
   <path class="fil27" d="M10790 5587c60,-2 54,-2 70,-21 1,-1 0,21 0,22l0 83c0,1 -17,12 -18,12l-52 5c-1,0 -1,-1 -1,-1l0 -98c0,-4 1,-1 1,-1z"/>
   <polygon class="fil25" points="10021,5587 10795,5587 10795,5688 10021,5688 "/>
   <path class="fil28" d="M10023 5587c-53,-2 -45,0 -68,-21 -1,-1 -1,21 -1,22l0 86c0,1 17,13 18,13l51 1c1,0 1,-1 1,-1l0 -98c0,-1 -1,-1 -1,-1z"/>
   <circle class="fil29" cx="10401" cy="5303" r="74"/>
   <path class="fil30" d="M10438 5325l-12 -12c-2,-2 -6,-2 -9,0l-6 6c0,0 -1,0 -1,-1 -4,-2 -9,-5 -14,-10 -5,-5 -8,-11 -10,-14 0,0 0,-1 -1,-1l4 -4 2 -2c2,-2 2,-6 0,-9l-12 -12c-2,-2 -6,-2 -9,0l-3 3 0 0c-1,1 -2,3 -3,5 -1,2 -1,3 -1,5 -2,13 4,25 20,41 22,22 40,20 41,20 2,0 3,-1 5,-1 2,-1 3,-2 5,-3l0 0 3 -3c2,-2 2,-6 0,-9z"/>
   <path class="fil31" d="M10083 5536l643 0c37,0 34,34 36,50l-708 0c0,-44 0,-44 29,-50z"/>
   <path class="fil17" d="M10275 4055c0,12 -1,22 -3,31 -2,9 -5,17 -9,23 -4,6 -9,11 -15,14 -6,3 -12,5 -20,5 -7,0 -13,-2 -19,-5 -6,-3 -10,-8 -14,-14 -4,-6 -7,-13 -9,-22 -2,-9 -3,-19 -3,-30 0,-12 1,-23 3,-32 2,-9 5,-17 9,-24 4,-6 9,-11 15,-14 6,-3 13,-5 20,-5 29,0 44,24 44,72zm-16 2c0,-40 -9,-60 -28,-60 -20,0 -30,20 -30,61 0,38 10,57 29,57 19,0 29,-19 29,-58zm100 -34c0,-4 -1,-8 -2,-11 -1,-3 -3,-6 -5,-8 -2,-2 -5,-4 -8,-5 -3,-1 -7,-2 -10,-2 -3,0 -6,0 -9,1 -3,1 -6,2 -9,3 -3,2 -6,3 -8,5 -3,2 -5,4 -7,7l0 -17c5,-4 10,-8 15,-10 6,-2 12,-3 20,-3 6,0 11,1 16,3 5,2 9,4 13,7 4,3 6,7 8,12 2,5 3,10 3,16 0,6 -1,11 -2,15 -1,4 -3,9 -6,13 -3,4 -6,8 -10,11 -4,4 -8,7 -14,11 -7,5 -12,9 -16,12 -4,3 -8,6 -10,9 -3,3 -4,6 -5,9 -1,3 -2,6 -2,10l70 0 0 14 -86 0 0 -7c0,-6 1,-11 2,-16 1,-5 3,-9 6,-13 3,-4 7,-8 12,-12 5,-4 11,-9 18,-14 5,-4 9,-7 13,-10 3,-3 6,-7 8,-10 2,-3 4,-7 4,-10 1,-3 1,-7 1,-11zm54 23c-3,0 -6,-1 -8,-3 -2,-2 -3,-5 -3,-8 0,-3 1,-6 3,-8 2,-2 5,-3 8,-3 3,0 6,1 8,3 2,2 3,5 3,8 0,3 -1,6 -3,8 -2,2 -5,3 -8,3zm0 83c-3,0 -6,-1 -8,-3 -2,-2 -3,-5 -3,-8 0,-3 1,-6 3,-8 2,-2 5,-3 8,-3 3,0 6,1 8,3 2,2 3,5 3,8 0,3 -1,6 -3,8 -2,2 -5,3 -8,3zm121 -73c0,12 -1,22 -3,31 -2,9 -5,17 -9,23 -4,6 -9,11 -15,14 -6,3 -12,5 -20,5 -7,0 -13,-2 -19,-5 -6,-3 -10,-8 -14,-14 -4,-6 -7,-13 -9,-22 -2,-9 -3,-19 -3,-30 0,-12 1,-23 3,-32 2,-9 5,-17 9,-24 4,-6 9,-11 15,-14 6,-3 13,-5 20,-5 29,0 44,24 44,72zm-16 2c0,-40 -9,-60 -28,-60 -20,0 -30,20 -30,61 0,38 10,57 29,57 19,0 29,-19 29,-58zm108 -71l0 92 18 0 0 15 -18 0 0 33 -16 0 0 -33 -66 0 0 -14c6,-7 12,-14 19,-22 6,-8 12,-16 18,-24 6,-8 11,-16 16,-24 5,-8 9,-16 12,-23l17 0zm-64 92l48 0 0 -69c-5,8 -10,16 -14,23 -4,7 -9,13 -12,18 -4,5 -8,10 -11,15 -4,4 -7,9 -10,13z"/>
   <path class="fil32 str0" d="M9938 3726l1 1042 1 866c1,29 25,46 65,54l806 0c50,-3 62,-52 60,-92l0 -1862c-3,-54 -27,-79 -68,-82l-791 0c-47,-1 -73,23 -75,75z"/>
   <g>
    <path class="fil18 str1" d="M10960 4389c8,-2 12,1 13,8 68,412 136,824 204,1236 4,27 5,52 3,74l-17 59 -38 -52c-9,-21 -16,-45 -20,-71l-201 -1223c-1,-9 2,-14 7,-16l50 -15z"/>
    <rect class="fil33" transform="matrix(0.107852 -0.0353933 0.025689 0.154422 10925.3 4455.01)" width="352" height="2001"/>
    <rect class="fil34" transform="matrix(0.149786 -0.0258811 0.0258811 0.149786 11041.3 5136.9)" width="221" height="884" rx="1181" ry="1181"/>
   </g>
   <path class="fil35" d="M10933 5657c0,-138 -112,-250 -250,-250l-562 0c-138,0 -250,112 -250,250 0,46 12,88 34,125l995 0c21,-37 34,-79 34,-125z"/>
   <path class="fil1" d="M10911 5803l-1019 0 -6 -10c-24,-41 -37,-88 -37,-135 0,-149 121,-271 271,-271l562 0c149,0 271,121 271,271 0,47 -13,94 -37,135l-6 10zm-995 -42l0 0 970 0c17,-32 25,-68 25,-104 0,-126 -103,-229 -229,-229l-562 0c-126,0 -229,103 -229,229 0,36 9,72 25,104z"/>
   <path class="fil17" d="M10178 4648c-5,0 -8,-2 -12,-4 -3,-3 -6,-6 -7,-11 -2,-5 -2,-10 -2,-16 0,-6 1,-14 3,-21 4,-15 10,-29 18,-43 10,-16 19,-29 28,-38 11,-12 20,-18 29,-21 2,-1 5,-1 7,-1 5,0 8,1 11,4 2,3 4,6 4,11 0,3 0,5 0,6 -1,5 -3,13 -7,23 -5,12 -11,21 -20,27 -4,3 -7,4 -9,5 -2,1 -3,1 -3,1 -3,0 -5,0 -6,-1 -1,-1 -2,-3 -2,-4 0,-2 1,-3 2,-5 1,-1 3,-2 5,-2 0,0 1,0 3,-1 1,-1 3,-1 5,-3 6,-5 11,-11 14,-20 3,-8 5,-15 6,-20 0,-2 1,-3 1,-4 0,-1 0,-2 0,-2 0,0 0,-1 0,-1l-1 0c-1,0 -3,0 -4,1 -6,1 -13,7 -22,16 -9,10 -18,22 -27,36 -8,13 -13,26 -16,39 -2,7 -3,14 -3,19 0,4 0,8 1,11 1,3 2,4 3,5 1,1 3,1 4,2 4,0 9,-2 15,-5 6,-3 12,-8 19,-15 14,-13 23,-24 27,-33 1,-1 1,-2 3,-3 1,-1 2,-1 4,-1 0,0 1,0 2,0 1,1 2,1 3,2 1,1 1,2 1,3 0,1 0,2 -1,3 -5,11 -15,23 -30,38 -6,6 -13,11 -21,16 -7,5 -14,7 -21,7l-1 0zm91 -14c-4,0 -8,-1 -11,-3 -3,-2 -5,-4 -7,-7 -2,-3 -3,-6 -4,-10 0,-2 -1,-5 -1,-8 0,-5 1,-11 3,-17l-1 1c-1,1 -2,2 -4,2 -2,0 -4,-1 -5,-2 -1,-1 -2,-3 -2,-4 0,-2 1,-3 2,-5l1 -1c6,-5 10,-9 14,-12 4,-3 7,-5 11,-7 5,-2 9,-3 14,-3 5,0 10,1 15,3 2,0 3,1 4,3 1,2 1,3 1,5l0 0c6,4 9,10 9,18 0,7 -2,14 -7,21 -5,7 -10,14 -16,19 -5,4 -11,7 -17,7zm18 -62c-3,0 -5,0 -7,1 -8,2 -14,8 -17,18 -2,5 -2,10 -2,14 0,2 0,3 0,5 1,5 3,8 5,9 1,1 2,1 4,1 3,0 6,-1 8,-4 6,-5 10,-10 14,-16 3,-5 5,-10 5,-14 0,-4 -2,-7 -5,-9 -1,-1 -2,-1 -3,-3 -1,-1 -1,-2 -1,-4l-1 0zm24 54c-1,0 -2,0 -4,-1 -2,-1 -3,-3 -3,-5 0,-1 0,-2 1,-3 1,-1 2,-3 3,-7 2,-3 4,-7 6,-12 3,-7 5,-13 7,-18 -3,2 -6,3 -7,4 -2,2 -4,3 -5,4 -1,1 -2,2 -2,3 -1,1 -3,2 -5,2 -2,0 -3,-1 -4,-2 -1,-1 -2,-3 -2,-4 0,-2 1,-4 2,-5 2,-2 6,-5 11,-9 3,-2 6,-4 9,-6 3,-1 5,-2 8,-2 2,0 4,1 6,2 3,2 4,5 4,9 0,2 0,4 -1,7 0,0 0,1 -1,3 6,-6 12,-11 16,-14 7,-5 12,-7 17,-7 1,0 2,0 3,0 2,1 4,2 6,4 2,2 3,5 3,9 0,3 -1,8 -2,14 -2,6 -2,10 -2,14 0,3 1,5 2,6l0 0c1,0 3,-1 5,-3 3,-2 6,-6 11,-11 4,-5 7,-8 8,-11 2,-3 3,-4 3,-4 1,-2 3,-3 5,-3 1,0 2,0 3,1 2,1 3,3 3,5 0,1 0,2 -1,3 -1,1 -2,3 -4,6 -2,3 -4,6 -7,10 -10,13 -19,19 -26,20 -4,0 -8,-1 -11,-4 -3,-4 -5,-9 -5,-15 0,-4 1,-9 3,-17 0,-1 1,-3 1,-4 0,-2 1,-3 1,-4 0,-2 0,-3 0,-3 -2,0 -5,2 -9,5 -4,3 -11,9 -19,17 -7,7 -12,13 -16,17 -4,5 -6,7 -6,7 -1,2 -3,2 -5,2zm212 -135c2,2 2,3 2,5 0,1 0,2 -1,3 -3,6 -9,10 -18,12 -9,2 -20,3 -34,3 0,1 0,1 -1,2 0,1 0,1 0,2 -3,9 -12,22 -26,39 -1,5 -2,11 -4,18 0,3 -1,6 -1,10 0,6 0,12 1,18 1,6 2,11 3,15 1,4 2,7 2,8 0,1 0,2 0,2 0,1 0,2 -1,3 -1,1 -2,2 -3,2 0,0 -1,0 -2,0 -1,0 -2,0 -4,-1 -1,-1 -2,-2 -2,-3 -1,-3 -3,-9 -5,-18 -2,-9 -3,-19 -3,-28 0,-3 0,-7 1,-10l-11 12 -4 4c-1,1 -3,2 -4,2 -2,0 -3,-1 -4,-2 -1,-1 -2,-3 -2,-5 0,-2 1,-3 2,-4 9,-9 19,-19 29,-31 3,-10 7,-23 14,-37 -10,0 -19,1 -26,2 -7,1 -12,3 -16,7 0,1 1,2 1,4 0,2 -1,3 -2,4 -1,1 -2,2 -4,2 -2,0 -3,-1 -5,-2 -2,-2 -3,-4 -3,-7 0,-1 0,-3 1,-4 2,-7 8,-12 19,-14 10,-2 24,-3 42,-3l3 -3c3,-4 6,-6 10,-6 1,0 2,0 3,0 3,2 5,4 5,9 10,0 19,-1 25,-2 6,-1 11,-3 14,-5 1,-1 1,-1 1,-1 2,-1 3,-2 5,-2 1,0 3,0 4,1zm30 89c2,1 2,3 2,5 0,1 0,3 -1,4 0,0 -1,2 -4,5 -2,3 -6,6 -10,11 -5,5 -9,9 -13,11 -4,2 -7,4 -10,4 -1,0 -2,0 -3,0 -4,-1 -7,-4 -8,-10 0,-2 0,-4 0,-8 -5,4 -8,7 -10,9 -2,2 -6,4 -10,8 -2,1 -4,2 -7,3 -3,1 -5,1 -8,1 -4,0 -7,-1 -9,-4 -3,-4 -4,-8 -4,-13 0,-7 3,-13 8,-20 5,-7 11,-13 18,-18 7,-5 13,-7 17,-7 4,0 8,1 10,2 3,1 5,2 5,3l0 1c2,-3 4,-6 6,-7 1,-1 2,-1 4,-1 2,0 4,1 5,2 1,2 2,3 2,5 0,2 0,3 -1,5 -1,2 -3,5 -6,8l-4 5c0,0 0,0 0,0 0,0 0,0 0,0 -3,8 -4,15 -3,20 3,-2 7,-5 13,-11 3,-3 5,-6 7,-8 2,-3 3,-4 4,-5 1,-2 3,-2 5,-2 1,0 3,0 4,1zm-50 8c5,-5 8,-8 10,-10l0 -1c-2,0 -3,-1 -4,-2l0 0c0,0 -1,-1 -2,-1 -1,0 -2,-1 -4,-1 -7,0 -15,5 -25,16 -2,2 -4,5 -5,8 -1,3 -2,5 -2,8 0,3 1,4 3,4 1,0 3,-1 5,-2 5,-4 9,-7 12,-9 3,-2 7,-6 12,-11zm51 41c-4,0 -7,-1 -10,-3 -6,-5 -9,-10 -9,-18 0,-8 3,-17 9,-26 5,-9 11,-16 18,-22 5,-4 10,-6 15,-6 2,0 3,0 3,0 4,1 8,3 10,6 3,3 5,6 6,8 0,1 1,2 1,3 0,2 -1,3 -2,5 -1,1 -3,2 -4,2 -2,0 -4,-1 -6,-4 -1,-1 -2,-3 -3,-4 -2,-2 -3,-2 -5,-2 -2,0 -4,1 -7,3 -6,5 -11,11 -15,18 -5,8 -7,15 -7,20 0,3 1,6 4,7 1,0 1,1 3,1 2,0 5,-1 8,-2 6,-2 12,-6 20,-12 6,-4 11,-9 17,-14 5,-5 8,-8 8,-8 1,-1 3,-2 5,-2 2,0 3,1 4,2 1,1 2,3 2,4 0,2 -1,3 -2,4 -1,1 -4,4 -9,9 -5,5 -11,10 -17,15 -15,11 -27,17 -35,17zm169 -137c2,2 2,3 2,5 0,1 0,2 -1,3 -3,6 -9,10 -18,12 -9,2 -20,3 -34,3 0,1 0,1 -1,2 0,1 0,1 0,2 -3,9 -12,22 -26,39 -1,5 -2,11 -4,18 0,3 -1,6 -1,10 0,6 0,12 1,18 1,6 2,11 3,15 1,4 2,7 2,8 0,1 0,2 0,2 0,1 0,2 -1,3 -1,1 -2,2 -3,2 0,0 -1,0 -2,0 -1,0 -2,0 -4,-1 -1,-1 -2,-2 -2,-3 -1,-3 -3,-9 -5,-18 -2,-9 -3,-19 -3,-28 0,-3 0,-7 1,-10l-11 12 -4 4c-1,1 -3,2 -4,2 -2,0 -3,-1 -4,-2 -1,-1 -2,-3 -2,-5 0,-2 1,-3 2,-4 9,-9 19,-19 29,-31 3,-10 7,-23 14,-37 -10,0 -19,1 -26,2 -7,1 -12,3 -16,7 0,1 1,2 1,4 0,2 -1,3 -2,4 -1,1 -2,2 -4,2 -2,0 -3,-1 -5,-2 -2,-2 -3,-4 -3,-7 0,-1 0,-3 1,-4 2,-7 8,-12 19,-14 10,-2 24,-3 42,-3l3 -3c3,-4 6,-6 10,-6 1,0 2,0 3,0 3,2 5,4 5,9 10,0 19,-1 25,-2 6,-1 11,-3 14,-5 1,-1 1,-1 1,-1 2,-1 3,-2 5,-2 1,0 3,0 4,1z"/>
  </g>

  <g id="_780833824" class="porto w3-hover-opacity" style="cursor:pointer" onclick="window.location.href='./porto'">
   <g>
    <polygon class="fil10" points="8827,5541 4744,5541 4744,3268 8827,3268 "/>
    <path class="fil3" d="M8848 5562l-4125 0 0 -2315 4125 0 0 2315zm-4083 -42l0 0 4042 0 0 -2231 -4042 0 0 2231z"/>
   </g>
   <polygon class="fil35" points="9348,5725 9108,5794 4463,5794 4224,5725 4224,5558 9348,5558 "/>
   <path class="fil1" d="M9111 5815l-4652 -1 -254 -74 0 -204 5162 0 0 204 -256 74zm-4645 -42l0 0 4640 0 223 -65 0 -130 -5087 0 0 130 223 65z"/>
   <polygon class="fil1" points="4236,5711 4463,5794 9108,5794 9354,5711 "/>
   <g>
    <polygon class="fil17" points="8443,5371 5128,5371 5128,3438 8443,3438 "/>
    <path class="fil17" d="M8460 5389l-3349 0 0 -1969 3349 0 0 1969zm-3315 -35l0 0 3281 0 0 -1898 -3281 0 0 1898z"/>
   </g>
   <path class="fil36" d="M8394 3485l13 -14 -12 -13 8 0 6 7c1,1 2,2 3,3 1,-1 2,-2 3,-3l6 -7 8 0 -12 13 13 14 -8 0 -8 -9 -2 -2 -10 11 -8 0z"/>
   <polygon class="fil36" points="8243,3477 8243,3469 8278,3469 8278,3477 "/>
   <g>
    <rect class="fil13 str2" x="8329" y="3450" width="30.7744" height="29.8113"/>
    <rect class="fil13 str2" x="8318" y="3457" width="30.7744" height="29.8113"/>
   </g>
   <rect class="fil12" x="5111" y="3549" width="3349" height="107"/>
   <rect class="fil12" x="5334" y="3495" width="162" height="107"/>
   <polygon class="fil16" points="5860,4568 5860,4011 6698,4011 6698,4568 "/>
   <polygon class="fil37" points="6988,4624 6988,4067 7825,4067 7825,4624 "/>
   <polygon class="fil38" points="5844,5265 5844,4708 6681,4708 6681,5265 "/>
   <polygon class="fil15" points="6974,5307 6974,4750 7811,4750 7811,5307 "/>
   <path class="fil36" d="M5358 3775c1,4 2,8 2,12 0,1 0,4 0,7 -1,8 -4,15 -8,22 -4,7 -10,13 -18,18 -10,7 -23,11 -36,13 -4,0 -8,1 -12,1 -6,0 -13,0 -19,-1l-4 8 -2 5c-7,15 -12,26 -14,33 -1,3 -2,6 -2,9 0,2 0,3 1,3 2,1 3,3 3,5 0,1 0,3 -1,4 -1,2 -3,3 -5,3 -1,0 -3,0 -4,-1 -4,-3 -6,-7 -7,-12 0,-4 0,-9 2,-14 1,-5 3,-10 6,-16 3,-6 6,-14 11,-24l3 -6 -6 -1c-1,0 -3,-1 -3,-2 -1,-1 -1,-2 -1,-4 0,-2 1,-4 2,-5 2,-1 4,-2 6,-1l8 2 3 -7c6,-14 10,-26 12,-35 1,-3 1,-5 1,-7 0,-1 0,-2 0,-2 -2,-1 -3,-3 -3,-5 0,0 0,-1 0,-2 0,-1 1,-3 3,-4 -20,7 -34,15 -43,24 -3,4 -5,8 -5,10 0,2 0,3 -1,5 -1,1 -2,2 -4,2 -2,0 -3,0 -5,-1 -2,-1 -2,-2 -3,-4l0 -2c0,-5 2,-11 7,-17 9,-12 26,-22 51,-30 17,-6 32,-9 46,-9 13,0 23,3 31,10 5,4 8,9 10,15zm-11 12c0,-7 -2,-13 -7,-17 -5,-4 -13,-6 -23,-7 -11,0 -24,2 -39,7l1 0c1,0 1,0 2,0 3,1 5,3 6,5 1,2 2,5 2,8 0,10 -5,25 -14,47l-2 3c4,1 9,1 14,1 17,0 30,-4 41,-11 7,-4 12,-10 15,-16 4,-7 5,-13 5,-21zm24 110c-4,0 -8,-1 -11,-3 -3,-2 -5,-4 -7,-7 -2,-3 -3,-7 -4,-11 0,-2 -1,-5 -1,-8 0,-6 1,-11 3,-17l-1 1c-1,1 -3,2 -4,2 -2,0 -4,-1 -5,-2 -1,-1 -2,-3 -2,-4 0,-2 1,-3 2,-5l1 -1c6,-5 10,-9 14,-12 4,-3 7,-5 11,-7 5,-2 10,-3 14,-3 5,0 10,1 16,3 2,0 3,1 4,3 1,2 1,3 1,5l0 0c6,4 10,11 10,19 0,7 -2,14 -7,22 -5,8 -10,14 -17,20 -6,4 -11,7 -17,7zm18 -63c-3,0 -5,0 -7,1 -9,2 -14,8 -18,19 -2,6 -2,10 -2,15 0,2 0,3 0,5 1,5 3,8 5,10 1,1 2,1 4,1 3,0 6,-1 9,-4 6,-5 11,-10 14,-17 3,-6 5,-10 5,-14 0,-4 -2,-7 -5,-9 -1,-1 -2,-1 -3,-3 -1,-1 -1,-2 -1,-4l-1 0zm52 59c-2,0 -5,0 -7,-1 -4,-1 -6,-4 -8,-7 -1,-2 -2,-5 -2,-8 0,-5 1,-10 4,-16 2,-4 4,-7 6,-11 2,-3 5,-6 7,-8 1,-1 2,-3 2,-6 0,-2 0,-4 -1,-6l-1 -3 -27 26c-1,1 -3,2 -4,2 -2,0 -3,-1 -5,-2 -1,-1 -2,-3 -2,-5 0,-2 1,-3 2,-5l34 -31c2,-1 4,-2 5,-2 2,0 4,1 5,3 0,0 1,2 2,4 1,3 2,6 3,9 1,4 2,7 2,10 0,6 -2,11 -6,15 -2,1 -3,4 -5,6 -2,3 -4,6 -5,9 -2,4 -3,8 -3,11 0,1 0,1 0,2 0,0 0,0 1,0 1,0 1,0 2,0l2 0c5,-1 10,-3 15,-7 5,-4 9,-8 12,-12 3,-4 5,-7 7,-10 2,-3 3,-5 3,-5 1,-1 1,-2 2,-3 1,-1 2,-1 3,-1 2,0 4,1 5,2 1,1 2,3 2,5 0,1 0,2 -1,3 -1,3 -4,7 -7,13 -4,6 -9,12 -15,18 -7,6 -14,10 -23,11 -2,0 -4,0 -5,0zm162 -143c2,2 2,3 2,5 0,1 0,2 -1,3 -3,6 -10,10 -19,12 -9,2 -21,3 -35,3 0,1 -1,1 -1,2 0,1 0,1 0,2 -3,9 -12,22 -27,40 -1,5 -3,11 -4,19 0,3 -1,7 -1,10 0,6 1,12 2,18 1,6 2,11 3,16 1,4 2,7 2,8 0,1 0,2 0,2 0,1 0,2 -1,4 -1,1 -2,2 -3,2 0,0 -1,0 -2,0 -1,0 -3,0 -4,-1 -1,-1 -2,-2 -2,-3 -1,-3 -3,-9 -5,-18 -2,-10 -3,-19 -3,-28 0,-3 0,-7 1,-10l-12 12 -4 4c-1,1 -3,2 -5,2 -2,0 -3,-1 -5,-2 -1,-1 -2,-3 -2,-5 0,-2 1,-3 2,-5 9,-9 19,-20 29,-32 3,-11 7,-23 14,-38 -11,0 -19,1 -26,2 -7,1 -13,3 -17,7 0,1 1,3 1,4 0,2 -1,3 -2,4 -1,1 -2,2 -4,2 -2,0 -3,-1 -5,-2 -2,-2 -3,-4 -3,-8 0,-1 0,-3 1,-4 2,-7 9,-12 19,-14 10,-2 25,-3 43,-4l3 -3c3,-4 6,-6 10,-6 1,0 2,0 3,0 3,2 5,5 6,9 11,0 19,-1 26,-2 7,-1 11,-3 14,-6 1,-1 1,-1 2,-2 2,-1 3,-2 5,-2 1,0 3,0 4,1zm-81 234c-2,0 -4,-1 -6,-3 -1,-1 -2,-4 -2,-6 0,-2 0,-6 1,-11 1,-4 2,-11 5,-22l1 -4c3,-12 8,-31 15,-56l0 0c-2,0 -3,-1 -4,-2 -1,-1 -2,-3 -2,-4 0,-2 1,-3 2,-4 1,-1 2,-2 4,-2l4 -1c1,-3 2,-6 2,-8 2,-7 4,-12 5,-17 5,-17 12,-38 20,-63 4,-11 8,-21 11,-28 3,-8 7,-13 9,-16 2,-2 3,-2 6,-2 2,0 4,1 5,2 2,2 3,5 3,9 0,5 -1,11 -4,18 -3,9 -8,21 -15,36 -7,16 -15,32 -24,48 -1,3 -2,7 -3,11l-2 6c9,-2 17,-5 24,-9 8,-4 14,-8 19,-14 1,-2 3,-2 5,-2 1,0 3,1 4,2 1,1 2,3 2,5 0,1 -1,3 -2,4 -10,11 -26,20 -49,26 3,2 6,5 8,8 3,4 5,9 5,15l0 3c0,6 -3,14 -7,24 -4,9 -8,17 -12,23 -5,9 -10,16 -14,21 -6,7 -10,11 -14,13 -1,0 -2,0 -3,0zm26 -97c-5,18 -10,34 -13,49 -2,9 -4,18 -6,27 0,0 0,0 0,0 0,0 0,0 0,0 4,-6 9,-12 13,-20 5,-8 9,-16 12,-23 3,-7 5,-13 5,-17 0,-3 -1,-5 -2,-8 -1,-3 -4,-5 -9,-8l0 0zm79 10c-4,0 -8,-1 -11,-3 -3,-2 -5,-4 -7,-7 -2,-3 -3,-7 -4,-11 0,-2 -1,-5 -1,-8 0,-6 1,-11 3,-17l-1 1c-1,1 -3,2 -4,2 -2,0 -4,-1 -5,-2 -1,-1 -2,-3 -2,-4 0,-2 1,-3 2,-5l1 -1c6,-5 10,-9 14,-12 4,-3 7,-5 11,-7 5,-2 10,-3 14,-3 5,0 10,1 16,3 2,0 3,1 4,3 1,2 1,3 1,5l0 0c6,4 10,11 10,19 0,7 -2,14 -7,22 -5,8 -10,14 -17,20 -6,4 -11,7 -17,7zm18 -63c-3,0 -5,0 -7,1 -9,2 -14,8 -18,19 -2,6 -2,10 -2,15 0,2 0,3 0,5 1,5 3,8 5,10 1,1 2,1 4,1 3,0 6,-1 9,-4 6,-5 11,-10 14,-17 3,-6 5,-10 5,-14 0,-4 -2,-7 -5,-9 -1,-1 -2,-1 -3,-3 -1,-1 -1,-2 -1,-4l-1 0zm51 57c-2,0 -4,0 -6,-1 -4,-2 -8,-5 -10,-10 -2,-4 -2,-10 -2,-17 0,-12 2,-23 5,-35 3,-11 8,-22 13,-33 5,-10 12,-22 20,-36 4,-8 9,-13 13,-18 2,-2 4,-3 6,-4 1,-1 3,-1 5,-1 1,0 2,0 4,1 3,1 5,4 6,7 0,1 1,3 1,6 0,7 -1,14 -4,23 -6,19 -24,45 -55,80 0,2 0,4 -1,5 0,1 0,3 0,3 0,5 0,9 1,12 1,3 2,4 3,5 1,1 3,0 6,-2 3,-2 6,-4 8,-7 4,-4 7,-9 11,-15 4,-6 5,-8 5,-9 1,-1 1,-2 3,-2 1,-1 2,-1 3,-1 1,0 2,0 3,1 2,1 3,3 3,6 0,1 0,2 -1,3 0,0 -2,3 -5,8 -3,5 -7,11 -13,18 -3,4 -7,7 -11,9 -4,2 -8,4 -12,4zm42 -139c-3,4 -7,9 -10,14 -7,12 -13,22 -18,32 -5,9 -9,18 -12,27 8,-10 16,-20 22,-30 7,-10 11,-19 14,-26 2,-7 3,-12 4,-17zm23 56c-2,0 -3,-1 -5,-2 -1,-1 -2,-3 -2,-5 0,-2 1,-3 2,-5 1,-1 3,-2 4,-2 1,0 1,0 1,-1 0,-1 0,-1 -1,-1 -2,0 -3,-1 -4,-2 -1,-1 -2,-3 -2,-4 0,-2 1,-3 2,-5 1,-1 3,-2 5,-2 3,0 6,1 9,4 2,2 3,5 3,9 0,3 -1,7 -3,9 -3,4 -6,5 -10,5zm-5 80c-1,0 -1,0 -2,0 -3,0 -5,-2 -6,-4 -1,-2 -2,-5 -2,-8 0,-3 0,-6 1,-10 1,-4 2,-9 4,-15 1,-5 3,-10 3,-14l1 -3c-3,2 -6,5 -9,8 -2,2 -4,5 -6,7 -2,2 -3,3 -3,4 -1,2 -3,2 -5,2 -1,0 -3,0 -4,-1 -2,-1 -3,-3 -3,-5 0,-2 0,-3 1,-4 1,-1 2,-3 5,-6 2,-3 5,-5 8,-8 4,-4 8,-7 11,-9 3,-2 6,-3 8,-3 2,0 4,1 6,2 3,2 4,5 4,10 0,1 0,3 0,4 0,1 0,2 0,3 -1,5 -2,11 -4,18 -2,6 -3,11 -3,15 0,2 -1,3 -1,4 4,-2 9,-7 16,-14 3,-4 6,-7 9,-10 2,-3 4,-5 5,-6 1,-2 3,-2 5,-2 1,0 3,0 4,1 2,1 2,3 2,5 0,1 0,3 -1,4 0,0 -2,2 -4,5 -3,3 -6,7 -11,12 -6,6 -10,10 -14,13 -5,4 -10,6 -14,6zm63 9c-4,0 -8,-1 -11,-3 -3,-2 -5,-4 -7,-7 -2,-3 -3,-7 -4,-11 0,-2 -1,-5 -1,-8 0,-6 1,-11 3,-17l-1 1c-1,1 -3,2 -4,2 -2,0 -4,-1 -5,-2 -1,-1 -2,-3 -2,-4 0,-2 1,-3 2,-5l1 -1c6,-5 10,-9 14,-12 4,-3 7,-5 11,-7 5,-2 10,-3 14,-3 5,0 10,1 16,3 2,0 3,1 4,3 1,2 1,3 1,5l0 0c6,4 10,11 10,19 0,7 -2,14 -7,22 -5,8 -10,14 -17,20 -6,4 -11,7 -17,7zm18 -63c-3,0 -5,0 -7,1 -9,2 -14,8 -18,19 -2,6 -2,10 -2,15 0,2 0,3 0,5 1,5 3,8 5,10 1,1 2,1 4,1 3,0 6,-1 9,-4 6,-5 11,-10 14,-17 3,-6 5,-10 5,-14 0,-4 -2,-7 -5,-9 -1,-1 -2,-1 -3,-3 -1,-1 -1,-2 -1,-4l-1 0z"/>
  </g>

  <g id="_780833856" class="lamp">
   <path class="fil39 str2" d="M6870 993c283,0 513,61 513,61 0,0 -230,59 -513,59 -283,0 -513,-59 -513,-59 0,0 230,-61 513,-61z"/>
   <ellipse class="fil13 str2" cx="6873" cy="1032" rx="133" ry="135"/>
   <path class="fil40 str2" d="M7383 1055c-357,-84 -698,-80 -1026,0l456 -456 0 -93 114 0 0 93 456 456z"/>
   <line class="fil32 str2" x1="6862" y1="-21" x2="6870" y2= "505" />
  </g>

  <path class="fil36" d="M5529 2326c0,6 -4,11 -13,13 -7,2 -15,4 -25,4 -10,1 -16,1 -19,1 0,12 -1,25 -2,40 -1,15 -2,27 -3,36l-2 18 -1 19 -3 45c-2,20 -8,30 -19,30 -4,0 -8,-5 -12,-15 -4,-10 -6,-18 -6,-24 0,-2 2,-5 5,-9 3,-5 5,-10 6,-17 2,-11 3,-29 5,-54 2,-25 3,-46 4,-63 -15,1 -31,3 -49,5 -8,1 -25,3 -52,5 -27,3 -48,4 -64,5 -2,25 -3,57 -5,93 -2,37 -3,59 -3,67 0,3 0,7 1,12 1,5 1,9 1,12 0,3 -3,7 -8,10 -5,3 -9,5 -12,5 -4,0 -7,-3 -10,-8 -3,-5 -4,-11 -4,-17 0,-3 0,-9 1,-17 1,-8 1,-15 2,-21 2,-10 3,-19 3,-25 2,-23 3,-45 5,-66 1,-21 2,-35 2,-43 -24,4 -47,6 -69,6 -7,0 -14,-2 -19,-5 -5,-4 -8,-9 -8,-16 0,-5 1,-9 4,-11 3,-3 8,-4 15,-4l31 1c20,1 36,1 49,1 2,-33 3,-59 3,-79 0,-45 0,-85 -1,-120l0 -21c0,-6 2,-11 7,-14 4,-4 10,-5 15,-5 4,0 7,3 9,10 2,7 2,14 2,22 0,8 -1,26 -3,52 -2,45 -3,68 -3,71l-3 83c32,-1 87,-6 165,-15 2,-11 4,-41 8,-88 2,-25 3,-43 4,-55l3 -45c5,-57 8,-92 8,-106 0,-5 2,-9 6,-12 4,-3 8,-5 13,-5 7,0 10,7 10,20 0,8 -2,31 -6,68 -4,48 -7,74 -7,80 -2,30 -5,58 -7,85 -2,27 -4,45 -4,54 7,-1 13,-3 19,-5 7,-2 12,-3 16,-3 4,0 8,2 13,7 5,5 8,8 8,10zm101 -205c0,6 -6,9 -19,9 -7,0 -13,-3 -20,-8 -7,-5 -10,-10 -10,-13 0,-4 2,-8 6,-12 4,-4 8,-6 12,-6 0,0 1,0 4,1 3,1 6,4 10,8 3,3 7,7 10,12 4,5 6,8 6,9zm14 364c0,4 -2,7 -5,9 -3,2 -7,3 -11,3 -5,0 -9,-9 -12,-26 -3,-17 -5,-49 -8,-97 -2,-31 -3,-62 -4,-92 -1,-30 -2,-53 -2,-69 0,-4 1,-7 2,-10 1,-2 4,-3 8,-3 9,0 14,4 17,11 2,7 3,21 3,42l-1 68c0,39 1,70 3,94 0,1 2,13 5,37 3,16 4,27 4,32zm150 -45c0,6 -5,18 -14,38 -9,19 -19,37 -30,53 -11,16 -19,24 -24,24 -4,0 -7,-1 -10,-3 -3,-2 -4,-5 -4,-8 0,-2 2,-8 7,-16 4,-9 7,-14 8,-16l16 -31 10 -27c4,-12 8,-20 10,-26 3,-6 5,-8 8,-8 4,0 9,2 14,7 5,5 7,9 7,14zm538 -326c0,7 -4,13 -11,16 -7,3 -18,6 -32,9 -16,3 -36,6 -60,9 -24,3 -44,5 -59,5 -1,17 -3,64 -5,143 -2,79 -3,138 -3,175 21,0 48,-2 82,-4 29,-2 45,-2 48,-2 7,0 13,2 19,5 6,3 8,8 8,14 0,5 -1,9 -3,12 -2,2 -5,3 -11,3 -2,0 -9,-1 -19,-2 -8,-2 -14,-2 -20,-2 -18,0 -54,1 -109,3 -2,3 -4,5 -7,6 -3,1 -5,2 -7,2 -2,0 -5,-1 -7,-2 -2,-1 -4,-3 -4,-5l-26 3c-30,4 -52,6 -67,6 -13,0 -22,-3 -29,-8 -3,-3 -5,-9 -5,-17 0,-2 1,-5 4,-9 3,-3 5,-5 8,-5 1,0 4,1 9,3 5,2 10,3 15,3 14,0 35,-1 63,-2l27 -2 3 -85c0,-9 1,-17 1,-24 0,-7 1,-13 1,-18l6 -189c-40,3 -59,4 -57,4 -39,3 -62,5 -69,5 -7,0 -13,-2 -19,-6 -6,-4 -9,-10 -9,-16 0,-5 1,-8 4,-11 3,-3 6,-4 10,-4 3,0 6,0 9,1 3,0 6,1 9,1 10,2 19,3 28,3 8,0 25,-1 49,-2 24,-1 40,-2 48,-3 0,-5 2,-9 5,-12 3,-3 7,-5 12,-5 2,0 4,2 6,5 2,3 2,7 2,10 22,-1 63,-6 121,-15 5,-1 10,-3 15,-6 6,-3 9,-5 10,-5 4,0 8,2 11,5 3,3 5,7 5,12zm134 -3c0,6 -5,18 -14,38 -9,19 -19,37 -30,53 -11,16 -19,24 -24,24 -4,0 -7,-1 -10,-3 -3,-2 -4,-5 -4,-8 0,-2 2,-8 7,-16 4,-9 7,-14 8,-16l16 -31 10 -27c4,-12 8,-20 10,-26 3,-6 5,-8 8,-8 4,0 9,2 14,7 5,5 7,9 7,14zm422 367c0,5 -2,9 -5,12 -3,3 -7,5 -12,5 -7,0 -10,-3 -10,-10 0,-78 -3,-138 -8,-179 -5,-41 -14,-62 -26,-62 -21,0 -51,73 -91,218l0 1c0,5 -2,9 -5,12 -3,3 -7,5 -12,5 -7,0 -10,-3 -10,-10 0,-15 1,-39 2,-72 2,-36 2,-65 2,-86 0,-29 -1,-49 -3,-62 -2,-12 -5,-18 -11,-18 -13,0 -30,24 -50,72 -20,48 -41,105 -63,170l-5 15c-2,4 -4,7 -7,10 -3,3 -6,4 -10,4 -5,0 -8,0 -9,-1 -2,-1 -3,-3 -3,-7 -2,-19 -3,-44 -5,-76 -1,-8 -2,-21 -2,-40 -4,-65 -7,-109 -10,-132 -3,-23 -5,-36 -5,-38 0,-3 2,-7 5,-11 3,-4 6,-6 9,-6 6,0 11,4 15,13 2,4 4,21 6,51 2,30 4,67 6,111l3 89c21,-66 43,-125 66,-178 23,-53 44,-80 62,-80 13,0 21,9 26,28 5,19 7,45 7,80 0,19 0,45 -1,80l-1 27c16,-55 32,-101 47,-139 16,-37 31,-56 47,-56 40,0 60,88 60,264zm579 -174c0,19 -7,37 -20,56 -14,19 -32,40 -56,63 -17,17 -38,34 -61,51 -15,11 -31,20 -45,28 -15,8 -26,12 -34,12 -4,0 -7,-1 -10,-3 -3,-2 -4,-5 -4,-10 0,-6 2,-11 7,-16 5,-4 11,-8 19,-11 4,-2 9,-3 16,-5 9,-2 17,-4 24,-8 13,-7 28,-17 46,-30 18,-14 31,-26 41,-37 17,-18 29,-33 38,-47 9,-14 13,-28 13,-43 0,-8 -4,-14 -12,-18 -8,-4 -17,-5 -28,-5 -29,0 -55,5 -78,15 -10,5 -18,8 -21,10 -14,6 -25,11 -34,14 -10,4 -20,7 -29,10 -9,3 -15,5 -19,6l1 22c0,6 0,15 1,28 1,13 1,25 1,36 0,27 -2,48 -6,65 -2,5 -3,9 -5,12 -2,2 -6,3 -11,3 -3,0 -7,-1 -10,-3 -3,-2 -5,-5 -5,-9 0,-1 2,-8 5,-20 3,-12 5,-23 5,-32 0,-30 -1,-68 -4,-115l-2 -27c-2,-25 -3,-46 -3,-60 0,-11 1,-25 2,-43 2,-17 3,-28 3,-34 -15,4 -33,11 -56,21 -7,3 -15,8 -25,14 -10,6 -16,9 -20,9 -3,0 -6,-1 -8,-4 -2,-3 -3,-6 -3,-10 0,-7 13,-17 39,-28 26,-12 54,-22 84,-31 27,-8 52,-14 73,-18 21,-4 43,-6 65,-6 20,0 38,4 51,12 14,8 21,19 21,33 0,34 -19,69 -56,105 17,-2 32,-3 45,-3 18,0 33,4 46,11 13,7 19,20 19,37zm-82 -142c0,-9 -4,-16 -13,-21 -9,-5 -21,-7 -36,-7 -16,0 -36,2 -60,6 -24,4 -42,8 -56,12 -7,26 -10,48 -10,66 0,25 1,57 3,95 4,0 10,-2 19,-5 9,-3 17,-6 24,-9 37,-15 67,-35 91,-60 24,-25 36,-50 36,-76zm378 312c0,6 -2,11 -5,14 -3,3 -8,5 -14,5 -8,0 -15,-8 -21,-24 -6,-16 -10,-33 -12,-50 -2,-17 -3,-50 -3,-101 0,-8 -1,-16 -1,-25 0,-8 0,-15 -1,-21 -11,27 -26,57 -46,91 -19,34 -39,63 -58,87 -19,24 -35,36 -48,36 -13,0 -21,-7 -25,-20 -4,-14 -6,-35 -6,-64 0,-27 4,-58 11,-93 7,-35 15,-61 25,-79 4,-8 7,-14 10,-16 3,-3 6,-4 9,-4 10,0 14,2 14,6 0,2 -2,6 -6,13 -10,19 -19,42 -27,69 -8,27 -12,63 -12,109 0,30 4,46 13,46 10,0 24,-11 41,-33 17,-22 34,-49 51,-80 17,-31 30,-58 39,-80 3,-8 7,-20 10,-36 1,-7 2,-11 3,-14 1,-3 3,-4 4,-4 4,0 9,2 14,5 5,3 8,7 8,11 0,19 1,50 2,95 1,45 3,76 5,93 2,15 4,27 8,35 4,8 8,15 12,20 4,5 6,8 6,9zm296 -214c0,33 -13,69 -39,107 -26,39 -60,73 -100,103 -17,13 -30,19 -38,19 -4,0 -8,-2 -10,-5 -3,-3 -4,-7 -4,-11 0,-4 2,-8 5,-13 4,-4 9,-8 16,-11 27,-12 51,-28 73,-50 22,-22 39,-45 51,-69 12,-24 19,-46 19,-64 0,-7 -2,-13 -5,-16 -3,-4 -9,-5 -16,-5 -16,0 -33,7 -50,20 -17,13 -33,30 -47,51 -11,16 -22,36 -32,58 -10,23 -18,47 -24,72 -3,14 -10,20 -20,20 -3,0 -6,-2 -9,-7 -3,-5 -5,-9 -5,-13 0,-45 -2,-111 -5,-197 -3,-87 -5,-136 -6,-149 0,-2 0,-5 -1,-7 0,-2 -1,-4 -1,-6 0,-2 -1,-5 -1,-7 0,-3 -1,-5 -1,-7 0,-9 4,-13 12,-13 7,0 12,4 16,12 4,8 6,18 6,28l0 31c0,92 1,162 4,212 2,24 3,38 5,41 4,-13 11,-27 20,-43 9,-16 19,-30 29,-44 18,-25 38,-44 59,-59 21,-15 41,-22 58,-22 12,0 22,4 29,12 8,8 11,19 11,34zm285 187c0,3 2,5 5,8 3,3 4,5 4,7 0,5 -2,10 -6,16 -4,6 -8,9 -12,9 -7,0 -12,-4 -15,-12 -3,-8 -5,-18 -5,-28 0,-9 1,-37 2,-83l1 -22c0,-9 -2,-15 -7,-19 -17,29 -34,55 -49,76 -15,22 -34,42 -57,61 -23,19 -47,29 -73,29 -12,0 -22,-4 -29,-12 -7,-8 -10,-18 -10,-30 0,-15 7,-37 21,-63 14,-27 32,-54 53,-82 22,-28 43,-50 65,-68 14,-12 26,-19 34,-23 8,-4 16,-6 23,-6 6,0 13,2 19,6 7,4 12,9 17,16 5,7 7,15 7,24 0,12 -3,23 -10,34l10 -3c4,0 7,5 8,16 0,6 1,19 1,38 1,19 1,35 1,47 0,13 1,25 1,37 0,12 1,21 1,28zm-204 10c21,0 41,-8 60,-23 19,-15 37,-34 52,-55 15,-21 32,-48 51,-79 5,-12 7,-24 7,-38 0,-8 -2,-15 -7,-21 -5,-6 -11,-9 -19,-9 -10,0 -22,7 -37,20 -17,15 -36,34 -55,59 -19,24 -35,49 -48,73 -13,24 -19,43 -19,57 0,12 5,17 16,17z"/>
 </g>
</svg>
