<?xml version="1.0" encoding="UTF-8"?>
<!DOCTYPE svg PUBLIC "-//W3C//DTD SVG 1.1//EN" "http://www.w3.org/Graphics/SVG/1.1/DTD/svg11.dtd">
<!-- Creator: CorelDRAW X6 -->
<svg xmlns="http://www.w3.org/2000/svg" xml:space="preserve" width="13.7795in" height="2.3622in" version="1.1" style="shape-rendering:geometricPrecision; text-rendering:geometricPrecision; image-rendering:optimizeQuality; fill-rule:evenodd; clip-rule:evenodd"
viewBox="0 0 13780 2362"
 xmlns:xlink="http://www.w3.org/1999/xlink">
 <defs>
  <linearGradient id="id0" gradientUnits="userSpaceOnUse" x1="7488.55" y1="717.488" x2="7554.7" y2="717.488">
   <stop offset="0" style="stop-color:#317283"/>
   <stop offset="1" style="stop-color:#898899"/>
  </linearGradient>
  <linearGradient id="id1" gradientUnits="userSpaceOnUse" x1="7487.87" y1="1632.57" x2="7554.01" y2="1632.57">
   <stop offset="0" style="stop-color:#32495E"/>
   <stop offset="1" style="stop-color:#898899"/>
  </linearGradient>
  <linearGradient id="id2" gradientUnits="userSpaceOnUse" x1="7485.21" y1="214.992" x2="7555.43" y2="214.992">
   <stop offset="0" style="stop-color:black"/>
   <stop offset="0.721569" style="stop-color:#44444C"/>
   <stop offset="1" style="stop-color:#898899"/>
  </linearGradient>
  <linearGradient id="id3" gradientUnits="userSpaceOnUse" xlink:href="#id2" x1="7482.85" y1="2117.14" x2="7554.51" y2="2117.14">
  </linearGradient>
  <linearGradient id="id4" gradientUnits="userSpaceOnUse" xlink:href="#id0" x1="6714.96" y1="465.929" x2="6648.81" y2="465.929">
  </linearGradient>
  <linearGradient id="id5" gradientUnits="userSpaceOnUse" xlink:href="#id1" x1="6714.96" y1="1381.25" x2="6648.81" y2="1381.25">
  </linearGradient>
  <linearGradient id="id6" gradientUnits="userSpaceOnUse" xlink:href="#id2" x1="6648.8" y1="214.898" x2="6718.68" y2="214.898">
  </linearGradient>
  <linearGradient id="id7" gradientUnits="userSpaceOnUse" xlink:href="#id2" x1="6647.81" y1="2117.05" x2="6718.68" y2="2117.05">
  </linearGradient>
 </defs>
 <g id="Layer_x0020_1">
  <metadata id="CorelCorpID_0Corel-Layer"/>

  <g id="_726686240" class="contact w3-hover-opacity" style="cursor:pointer" onclick="window.location.href='./contact'">
   <polygon class="fil18" points="7509,1213 6682,677 6694,251 7504,248 "/>
   <polygon class="fil19" points="6712,674 7489,1179 7516,2077 6706,2083 "/>
   <polygon class="fil20" points="7488,2086 7554,2086 7554,1179 7488,1179 "/>
   <polygon class="fil21" points="7489,254 7555,254 7555,1181 7489,1181 "/>
   <polygon class="fil22" points="6649,253 6715,253 6715,679 6649,679 "/>
   <polygon class="fil23" points="6649,2086 6715,2086 6715,677 6649,677 "/>
   <path class="fil24" d="M7487 257c58,0 49,-3 68,18 1,1 0,-20 0,-21l0 -98c0,-1 1,0 0,0l-68 0c-1,0 -1,1 -1,1l0 98c0,1 1,1 1,1z"/>
   <polygon class="fil25" points="6715,257 7489,257 7489,156 6715,156 "/>
   <path class="fil26" d="M6717 257c-59,0 -53,-4 -68,17 0,0 0,-79 0,-100 0,-13 9,-18 21,-18l47 0c1,0 1,1 1,1l0 98c0,1 -1,1 -1,1z"/>
   <path class="fil27" d="M7484 2077c60,-2 54,-2 70,-21 1,-1 0,21 0,22l0 83c0,1 -17,12 -18,12l-52 5c-1,0 -1,-1 -1,-1l0 -98c0,-4 1,-1 1,-1z"/>
   <polygon class="fil25" points="6715,2077 7489,2077 7489,2178 6715,2178 "/>
   <path class="fil28" d="M6717 2077c-53,-2 -45,0 -68,-21 -1,-1 -1,21 -1,22l0 86c0,1 17,13 18,13l51 1c1,0 1,-1 1,-1l0 -98c0,-1 -1,-1 -1,-1z"/>
   <circle class="fil29" cx="7095" cy="1792" r="74"/>
   <path class="fil30" d="M7131 1815l-12 -12c-2,-2 -6,-2 -9,0l-6 6c0,0 -1,0 -1,-1 -4,-2 -9,-5 -14,-10 -5,-5 -8,-11 -10,-14 0,0 0,-1 -1,-1l4 -4 2 -2c2,-2 2,-6 0,-9l-12 -12c-2,-2 -6,-2 -9,0l-3 3 0 0c-1,1 -2,3 -3,5 -1,2 -1,3 -1,5 -2,13 4,25 20,41 22,22 40,20 41,20 2,0 3,-1 5,-1 2,-1 3,-2 5,-3l0 0 3 -3c2,-2 2,-6 0,-9z"/>
   <path class="fil31" d="M6777 2026l643 0c37,0 34,34 36,50l-708 0c0,-44 0,-44 29,-50z"/>
   <path class="fil17" d="M6968 544c0,12 -1,22 -3,31 -2,9 -5,17 -9,23 -4,6 -9,11 -15,14 -6,3 -12,5 -20,5 -7,0 -13,-2 -19,-5 -6,-3 -10,-8 -14,-14 -4,-6 -7,-13 -9,-22 -2,-9 -3,-19 -3,-30 0,-12 1,-23 3,-32 2,-9 5,-17 9,-24 4,-6 9,-11 15,-14 6,-3 13,-5 20,-5 29,0 44,24 44,72zm-16 2c0,-40 -9,-60 -28,-60 -20,0 -30,20 -30,61 0,38 10,57 29,57 19,0 29,-19 29,-58zm100 -34c0,-4 -1,-8 -2,-11 -1,-3 -3,-6 -5,-8 -2,-2 -5,-4 -8,-5 -3,-1 -7,-2 -10,-2 -3,0 -6,0 -9,1 -3,1 -6,2 -9,3 -3,2 -6,3 -8,5 -3,2 -5,4 -7,7l0 -17c5,-4 10,-8 15,-10 6,-2 12,-3 20,-3 6,0 11,1 16,3 5,2 9,4 13,7 4,3 6,7 8,12 2,5 3,10 3,16 0,6 -1,11 -2,15 -1,4 -3,9 -6,13 -3,4 -6,8 -10,11 -4,4 -8,7 -14,11 -7,5 -12,9 -16,12 -4,3 -8,6 -10,9 -3,3 -4,6 -5,9 -1,3 -2,6 -2,10l70 0 0 14 -86 0 0 -7c0,-6 1,-11 2,-16 1,-5 3,-9 6,-13 3,-4 7,-8 12,-12 5,-4 11,-9 18,-14 5,-4 9,-7 13,-10 3,-3 6,-7 8,-10 2,-3 4,-7 4,-10 1,-3 1,-7 1,-11zm54 23c-3,0 -6,-1 -8,-3 -2,-2 -3,-5 -3,-8 0,-3 1,-6 3,-8 2,-2 5,-3 8,-3 3,0 6,1 8,3 2,2 3,5 3,8 0,3 -1,6 -3,8 -2,2 -5,3 -8,3zm0 83c-3,0 -6,-1 -8,-3 -2,-2 -3,-5 -3,-8 0,-3 1,-6 3,-8 2,-2 5,-3 8,-3 3,0 6,1 8,3 2,2 3,5 3,8 0,3 -1,6 -3,8 -2,2 -5,3 -8,3zm121 -73c0,12 -1,22 -3,31 -2,9 -5,17 -9,23 -4,6 -9,11 -15,14 -6,3 -12,5 -20,5 -7,0 -13,-2 -19,-5 -6,-3 -10,-8 -14,-14 -4,-6 -7,-13 -9,-22 -2,-9 -3,-19 -3,-30 0,-12 1,-23 3,-32 2,-9 5,-17 9,-24 4,-6 9,-11 15,-14 6,-3 13,-5 20,-5 29,0 44,24 44,72zm-16 2c0,-40 -9,-60 -28,-60 -20,0 -30,20 -30,61 0,38 10,57 29,57 19,0 29,-19 29,-58zm108 -71l0 92 18 0 0 15 -18 0 0 33 -16 0 0 -33 -66 0 0 -14c6,-7 12,-14 19,-22 6,-8 12,-16 18,-24 6,-8 11,-16 16,-24 5,-8 9,-16 12,-23l17 0zm-64 92l48 0 0 -69c-5,8 -10,16 -14,23 -4,7 -9,13 -12,18 -4,5 -8,10 -11,15 -4,4 -7,9 -10,13z"/>
   <path class="fil32 str0" d="M6632 216l1 1042 1 866c1,29 25,46 65,54l806 0c50,-3 62,-52 60,-92l0 -1862c-3,-54 -27,-79 -68,-82l-791 0c-47,-1 -73,23 -75,75z"/>
   <g>
    <path class="fil18 str1" d="M7653 879c8,-2 12,1 13,8 68,412 136,824 204,1236 4,27 5,52 3,74l-17 59 -38 -52c-9,-21 -16,-45 -20,-71l-201 -1223c-1,-9 2,-14 7,-16l50 -15z"/>
    <rect class="fil33" transform="matrix(0.107852 -0.0353933 0.025689 0.154422 7619.09 944.79)" width="352" height="2001"/>
    <rect class="fil34" transform="matrix(0.149786 -0.0258811 0.0258811 0.149786 7735.14 1626.68)" width="221" height="884" rx="1181" ry="1181"/>
   </g>
   <path class="fil35" d="M7626 2147c0,-138 -112,-250 -250,-250l-562 0c-138,0 -250,112 -250,250 0,46 12,88 34,125l995 0c21,-37 34,-79 34,-125z"/>
   <path class="fil1" d="M7605 2293l-1019 0 -6 -10c-24,-41 -37,-88 -37,-135 0,-149 121,-271 271,-271l562 0c149,0 271,121 271,271 0,47 -13,94 -37,135l-6 10zm-995 -42l0 0 970 0c17,-32 25,-68 25,-104 0,-126 -103,-229 -229,-229l-562 0c-126,0 -229,103 -229,229 0,36 9,72 25,104z"/>
   <path class="fil17" d="M6872 1138c-5,0 -8,-2 -12,-4 -3,-3 -6,-6 -7,-11 -2,-5 -2,-10 -2,-16 0,-6 1,-14 3,-21 4,-15 10,-29 18,-43 10,-16 19,-29 28,-38 11,-12 20,-18 29,-21 2,-1 5,-1 7,-1 5,0 8,1 11,4 2,3 4,6 4,11 0,3 0,5 0,6 -1,5 -3,13 -7,23 -5,12 -11,21 -20,27 -4,3 -7,4 -9,5 -2,1 -3,1 -3,1 -3,0 -5,0 -6,-1 -1,-1 -2,-3 -2,-4 0,-2 1,-3 2,-5 1,-1 3,-2 5,-2 0,0 1,0 3,-1 1,-1 3,-1 5,-3 6,-5 11,-11 14,-20 3,-8 5,-15 6,-20 0,-2 1,-3 1,-4 0,-1 0,-2 0,-2 0,0 0,-1 0,-1l-1 0c-1,0 -3,0 -4,1 -6,1 -13,7 -22,16 -9,10 -18,22 -27,36 -8,13 -13,26 -16,39 -2,7 -3,14 -3,19 0,4 0,8 1,11 1,3 2,4 3,5 1,1 3,1 4,2 4,0 9,-2 15,-5 6,-3 12,-8 19,-15 14,-13 23,-24 27,-33 1,-1 1,-2 3,-3 1,-1 2,-1 4,-1 0,0 1,0 2,0 1,1 2,1 3,2 1,1 1,2 1,3 0,1 0,2 -1,3 -5,11 -15,23 -30,38 -6,6 -13,11 -21,16 -7,5 -14,7 -21,7l-1 0zm91 -14c-4,0 -8,-1 -11,-3 -3,-2 -5,-4 -7,-7 -2,-3 -3,-6 -4,-10 0,-2 -1,-5 -1,-8 0,-5 1,-11 3,-17l-1 1c-1,1 -2,2 -4,2 -2,0 -4,-1 -5,-2 -1,-1 -2,-3 -2,-4 0,-2 1,-3 2,-5l1 -1c6,-5 10,-9 14,-12 4,-3 7,-5 11,-7 5,-2 9,-3 14,-3 5,0 10,1 15,3 2,0 3,1 4,3 1,2 1,3 1,5l0 0c6,4 9,10 9,18 0,7 -2,14 -7,21 -5,7 -10,14 -16,19 -5,4 -11,7 -17,7zm18 -62c-3,0 -5,0 -7,1 -8,2 -14,8 -17,18 -2,5 -2,10 -2,14 0,2 0,3 0,5 1,5 3,8 5,9 1,1 2,1 4,1 3,0 6,-1 8,-4 6,-5 10,-10 14,-16 3,-5 5,-10 5,-14 0,-4 -2,-7 -5,-9 -1,-1 -2,-1 -3,-3 -1,-1 -1,-2 -1,-4l-1 0zm24 54c-1,0 -2,0 -4,-1 -2,-1 -3,-3 -3,-5 0,-1 0,-2 1,-3 1,-1 2,-3 3,-7 2,-3 4,-7 6,-12 3,-7 5,-13 7,-18 -3,2 -6,3 -7,4 -2,2 -4,3 -5,4 -1,1 -2,2 -2,3 -1,1 -3,2 -5,2 -2,0 -3,-1 -4,-2 -1,-1 -2,-3 -2,-4 0,-2 1,-4 2,-5 2,-2 6,-5 11,-9 3,-2 6,-4 9,-6 3,-1 5,-2 8,-2 2,0 4,1 6,2 3,2 4,5 4,9 0,2 0,4 -1,7 0,0 0,1 -1,3 6,-6 12,-11 16,-14 7,-5 12,-7 17,-7 1,0 2,0 3,0 2,1 4,2 6,4 2,2 3,5 3,9 0,3 -1,8 -2,14 -2,6 -2,10 -2,14 0,3 1,5 2,6l0 0c1,0 3,-1 5,-3 3,-2 6,-6 11,-11 4,-5 7,-8 8,-11 2,-3 3,-4 3,-4 1,-2 3,-3 5,-3 1,0 2,0 3,1 2,1 3,3 3,5 0,1 0,2 -1,3 -1,1 -2,3 -4,6 -2,3 -4,6 -7,10 -10,13 -19,19 -26,20 -4,0 -8,-1 -11,-4 -3,-4 -5,-9 -5,-15 0,-4 1,-9 3,-17 0,-1 1,-3 1,-4 0,-2 1,-3 1,-4 0,-2 0,-3 0,-3 -2,0 -5,2 -9,5 -4,3 -11,9 -19,17 -7,7 -12,13 -16,17 -4,5 -6,7 -6,7 -1,2 -3,2 -5,2zm212 -135c2,2 2,3 2,5 0,1 0,2 -1,3 -3,6 -9,10 -18,12 -9,2 -20,3 -34,3 0,1 0,1 -1,2 0,1 0,1 0,2 -3,9 -12,22 -26,39 -1,5 -2,11 -4,18 0,3 -1,6 -1,10 0,6 0,12 1,18 1,6 2,11 3,15 1,4 2,7 2,8 0,1 0,2 0,2 0,1 0,2 -1,3 -1,1 -2,2 -3,2 0,0 -1,0 -2,0 -1,0 -2,0 -4,-1 -1,-1 -2,-2 -2,-3 -1,-3 -3,-9 -5,-18 -2,-9 -3,-19 -3,-28 0,-3 0,-7 1,-10l-11 12 -4 4c-1,1 -3,2 -4,2 -2,0 -3,-1 -4,-2 -1,-1 -2,-3 -2,-5 0,-2 1,-3 2,-4 9,-9 19,-19 29,-31 3,-10 7,-23 14,-37 -10,0 -19,1 -26,2 -7,1 -12,3 -16,7 0,1 1,2 1,4 0,2 -1,3 -2,4 -1,1 -2,2 -4,2 -2,0 -3,-1 -5,-2 -2,-2 -3,-4 -3,-7 0,-1 0,-3 1,-4 2,-7 8,-12 19,-14 10,-2 24,-3 42,-3l3 -3c3,-4 6,-6 10,-6 1,0 2,0 3,0 3,2 5,4 5,9 10,0 19,-1 25,-2 6,-1 11,-3 14,-5 1,-1 1,-1 1,-1 2,-1 3,-2 5,-2 1,0 3,0 4,1zm30 89c2,1 2,3 2,5 0,1 0,3 -1,4 0,0 -1,2 -4,5 -2,3 -6,6 -10,11 -5,5 -9,9 -13,11 -4,2 -7,4 -10,4 -1,0 -2,0 -3,0 -4,-1 -7,-4 -8,-10 0,-2 0,-4 0,-8 -5,4 -8,7 -10,9 -2,2 -6,4 -10,8 -2,1 -4,2 -7,3 -3,1 -5,1 -8,1 -4,0 -7,-1 -9,-4 -3,-4 -4,-8 -4,-13 0,-7 3,-13 8,-20 5,-7 11,-13 18,-18 7,-5 13,-7 17,-7 4,0 8,1 10,2 3,1 5,2 5,3l0 1c2,-3 4,-6 6,-7 1,-1 2,-1 4,-1 2,0 4,1 5,2 1,2 2,3 2,5 0,2 0,3 -1,5 -1,2 -3,5 -6,8l-4 5c0,0 0,0 0,0 0,0 0,0 0,0 -3,8 -4,15 -3,20 3,-2 7,-5 13,-11 3,-3 5,-6 7,-8 2,-3 3,-4 4,-5 1,-2 3,-2 5,-2 1,0 3,0 4,1zm-50 8c5,-5 8,-8 10,-10l0 -1c-2,0 -3,-1 -4,-2l0 0c0,0 -1,-1 -2,-1 -1,0 -2,-1 -4,-1 -7,0 -15,5 -25,16 -2,2 -4,5 -5,8 -1,3 -2,5 -2,8 0,3 1,4 3,4 1,0 3,-1 5,-2 5,-4 9,-7 12,-9 3,-2 7,-6 12,-11zm51 41c-4,0 -7,-1 -10,-3 -6,-5 -9,-10 -9,-18 0,-8 3,-17 9,-26 5,-9 11,-16 18,-22 5,-4 10,-6 15,-6 2,0 3,0 3,0 4,1 8,3 10,6 3,3 5,6 6,8 0,1 1,2 1,3 0,2 -1,3 -2,5 -1,1 -3,2 -4,2 -2,0 -4,-1 -6,-4 -1,-1 -2,-3 -3,-4 -2,-2 -3,-2 -5,-2 -2,0 -4,1 -7,3 -6,5 -11,11 -15,18 -5,8 -7,15 -7,20 0,3 1,6 4,7 1,0 1,1 3,1 2,0 5,-1 8,-2 6,-2 12,-6 20,-12 6,-4 11,-9 17,-14 5,-5 8,-8 8,-8 1,-1 3,-2 5,-2 2,0 3,1 4,2 1,1 2,3 2,4 0,2 -1,3 -2,4 -1,1 -4,4 -9,9 -5,5 -11,10 -17,15 -15,11 -27,17 -35,17zm169 -137c2,2 2,3 2,5 0,1 0,2 -1,3 -3,6 -9,10 -18,12 -9,2 -20,3 -34,3 0,1 0,1 -1,2 0,1 0,1 0,2 -3,9 -12,22 -26,39 -1,5 -2,11 -4,18 0,3 -1,6 -1,10 0,6 0,12 1,18 1,6 2,11 3,15 1,4 2,7 2,8 0,1 0,2 0,2 0,1 0,2 -1,3 -1,1 -2,2 -3,2 0,0 -1,0 -2,0 -1,0 -2,0 -4,-1 -1,-1 -2,-2 -2,-3 -1,-3 -3,-9 -5,-18 -2,-9 -3,-19 -3,-28 0,-3 0,-7 1,-10l-11 12 -4 4c-1,1 -3,2 -4,2 -2,0 -3,-1 -4,-2 -1,-1 -2,-3 -2,-5 0,-2 1,-3 2,-4 9,-9 19,-19 29,-31 3,-10 7,-23 14,-37 -10,0 -19,1 -26,2 -7,1 -12,3 -16,7 0,1 1,2 1,4 0,2 -1,3 -2,4 -1,1 -2,2 -4,2 -2,0 -3,-1 -5,-2 -2,-2 -3,-4 -3,-7 0,-1 0,-3 1,-4 2,-7 8,-12 19,-14 10,-2 24,-3 42,-3l3 -3c3,-4 6,-6 10,-6 1,0 2,0 3,0 3,2 5,4 5,9 10,0 19,-1 25,-2 6,-1 11,-3 14,-5 1,-1 1,-1 1,-1 2,-1 3,-2 5,-2 1,0 3,0 4,1z"/>
  </g>
 </g>
</svg>
