<?xml version="1.0" encoding="UTF-8"?>
<!DOCTYPE svg PUBLIC "-//W3C//DTD SVG 1.1//EN" "http://www.w3.org/Graphics/SVG/1.1/DTD/svg11.dtd">
<!-- Creator: CorelDRAW X6 -->
<svg xmlns="http://www.w3.org/2000/svg" xml:space="preserve" width="2.3622in" height="1.5748in" version="1.1" style="shape-rendering:geometricPrecision; text-rendering:geometricPrecision; image-rendering:optimizeQuality; fill-rule:evenodd; clip-rule:evenodd"
viewBox="0 0 2362 1575"
 xmlns:xlink="http://www.w3.org/1999/xlink">
 <defs>
  <style type="text/css">
   <![CDATA[
    .str0 {stroke:#373435;stroke-width:27.7795}
    .fil0 {fill:none}
   ]]>
  </style>
 </defs>
 <g id="Layer_x0020_1">
  <metadata id="CorelCorpID_0Corel-Layer"/>
  <g id="_897811536">
   <path class="fil0 str0" d="M86 1434c145,-20 977,-308 849,-498 -66,-98 -292,122 -340,189 -1,2 -194,323 -137,249 156,-206 46,59 194,-64 60,-50 -55,112 47,47 94,-60 -16,53 69,-5 58,-40 -70,68 57,-4 80,-45 -74,229 -152,211 18,-149 439,-397 541,-463"/>
   <path class="fil0 str0" d="M321 1460c147,-37 747,-174 891,-174l9 0"/>
   <path class="fil0 str0" d="M411 1480c147,-37 747,-174 891,-174l9 0"/>
  </g>
 </g>
</svg>
