<svg id="svg" version="1.1" width="40" height="550" viewBox="0 0 400 5200" xmlns="http://www.w3.org/2000/svg" xmlns:xlink="http://www.w3.org/1999/xlink" ><g id="svgg"><path id="path0" d="M69.167 2100.250 C 69.478 2116.336,69.659 2117.756,71.863 2121.301 C 77.592 2130.515,90.158 2132.355,96.433 2124.897 L 99.012 2121.832 102.083 2124.416 C 115.604 2135.794,125.000 2124.328,125.000 2096.451 L 125.000 2083.000 96.917 2083.000 L 68.835 2083.000 69.167 2100.250 M92.000 2103.777 C 92.000 2112.278,82.501 2113.214,80.624 2104.898 C 79.834 2101.399,80.453 2101.000,86.667 2101.000 C 91.831 2101.000,92.000 2101.088,92.000 2103.777 M114.000 2103.066 C 114.000 2106.763,112.115 2109.000,109.000 2109.000 C 105.885 2109.000,104.000 2106.763,104.000 2103.066 C 104.000 2101.254,104.614 2101.000,109.000 2101.000 C 113.386 2101.000,114.000 2101.254,114.000 2103.066 M73.314 2139.950 C 67.801 2143.311,66.055 2152.339,69.594 2159.182 C 70.749 2161.416,70.874 2162.460,70.047 2162.971 C 69.312 2163.425,69.012 2166.313,69.203 2171.088 L 69.500 2178.500 90.000 2178.500 L 110.500 2178.500 110.790 2170.250 L 111.081 2162.000 96.612 2162.000 C 81.399 2162.000,78.438 2161.171,79.212 2157.129 C 79.479 2155.734,81.746 2155.428,95.012 2155.000 L 110.500 2154.500 110.790 2146.250 L 111.081 2138.000 93.790 2138.004 C 78.434 2138.007,76.144 2138.225,73.314 2139.950 M69.000 2196.425 C 69.000 2200.526,69.448 2204.159,69.996 2204.498 C 70.625 2204.886,70.440 2206.182,69.496 2208.007 C 66.255 2214.275,68.015 2224.445,72.904 2227.701 C 79.268 2231.938,104.468 2230.323,109.115 2225.380 C 111.631 2222.703,112.592 2211.746,110.656 2207.796 C 109.914 2206.281,110.637 2206.058,117.161 2205.796 L 124.500 2205.500 124.500 2197.500 L 124.500 2189.500 96.750 2189.234 L 69.000 2188.968 69.000 2196.425 M99.711 2207.645 C 102.680 2211.644,99.711 2213.095,89.196 2212.786 L 79.500 2212.500 79.187 2209.785 C 78.939 2207.633,79.354 2206.964,81.187 2206.559 C 89.510 2204.722,97.907 2205.214,99.711 2207.645 M73.381 2239.850 C 68.155 2243.136,66.133 2254.490,69.585 2261.165 C 70.725 2263.368,70.865 2264.535,70.085 2265.315 C 68.059 2267.341,68.680 2283.353,70.750 2282.455 C 71.713 2282.037,79.778 2281.427,88.673 2281.098 C 110.207 2280.302,111.989 2278.728,111.989 2260.500 C 111.989 2246.952,108.278 2240.009,100.850 2239.658 L 97.500 2239.500 97.210 2247.109 C 96.937 2254.303,97.059 2254.809,99.460 2256.382 C 102.068 2258.091,102.949 2262.296,100.956 2263.527 C 98.993 2264.740,97.214 2261.932,94.565 2253.435 C 90.199 2239.430,82.203 2234.302,73.381 2239.850 M85.398 2257.250 C 88.251 2261.695,87.870 2263.518,84.125 2263.339 C 79.718 2263.129,77.545 2260.948,78.389 2257.585 C 79.232 2254.228,83.333 2254.032,85.398 2257.250 " stroke="none" fill="#060606" fill-rule="evenodd"></path><path id="path1" d="M116.667 61.667 C 116.300 62.033,116.000 67.208,116.000 73.167 L 116.000 84.000 93.000 84.000 L 70.000 84.000 70.000 88.000 L 70.000 92.000 92.967 92.000 L 115.934 92.000 116.217 103.250 L 116.500 114.500 119.750 114.813 L 123.000 115.127 123.000 88.063 L 123.000 61.000 120.167 61.000 C 118.608 61.000,117.033 61.300,116.667 61.667 M70.667 123.667 C 70.300 124.033,70.000 125.833,70.000 127.667 L 70.000 131.000 80.577 131.000 C 92.955 131.000,96.121 132.835,97.465 140.793 C 99.150 150.768,95.129 153.743,79.750 153.900 L 70.000 154.000 70.000 157.500 L 70.000 161.000 82.250 160.985 C 95.506 160.969,97.980 160.288,101.373 155.718 C 104.174 151.945,104.845 140.958,102.601 135.587 C 101.720 133.480,101.000 131.586,101.000 131.378 C 101.000 131.170,106.625 131.000,113.500 131.000 L 126.000 131.000 126.000 127.000 L 126.000 123.000 98.667 123.000 C 83.633 123.000,71.033 123.300,70.667 123.667 M80.500 172.167 C 68.688 178.700,65.563 196.194,74.102 207.982 C 79.423 215.327,82.929 208.852,78.004 200.774 C 74.314 194.723,75.662 185.438,80.837 181.250 C 83.769 178.878,84.000 180.065,84.000 197.500 L 84.000 215.000 87.352 215.000 C 95.990 215.000,103.978 204.166,103.994 192.428 C 104.014 178.011,90.698 166.527,80.500 172.167 M93.928 182.635 C 99.560 189.795,98.610 199.493,91.750 204.872 C 90.103 206.164,90.000 205.476,90.000 193.122 C 90.000 179.425,90.452 178.217,93.928 182.635 M70.193 261.250 L 70.500 265.500 80.370 265.788 C 89.140 266.043,90.446 266.322,92.087 268.288 C 94.783 271.518,95.014 271.124,82.000 285.541 C 70.280 298.523,70.000 298.943,70.000 303.500 C 70.000 309.944,70.509 309.594,85.363 292.930 C 92.437 284.994,98.756 278.373,99.405 278.217 C 100.053 278.061,105.184 283.348,110.807 289.967 C 122.169 303.340,123.000 303.866,123.000 297.692 C 123.000 293.679,122.240 292.466,111.873 279.942 L 100.746 266.500 111.623 266.000 L 122.500 265.500 122.807 261.250 L 123.115 257.000 96.500 257.000 L 69.885 257.000 70.193 261.250 M109.496 317.365 C 106.319 322.214,111.675 328.354,115.241 323.950 C 117.403 321.280,117.440 320.073,115.443 317.223 C 113.435 314.355,111.437 314.403,109.496 317.365 M70.404 317.391 C 70.100 318.183,69.997 320.107,70.175 321.666 L 70.500 324.500 87.000 324.500 L 103.500 324.500 103.500 320.500 L 103.500 316.500 87.228 316.225 C 73.805 315.998,70.860 316.202,70.404 317.391 M79.290 336.905 C 67.119 344.552,65.866 365.978,77.041 375.381 C 82.784 380.213,84.144 373.927,78.911 366.741 C 70.100 354.646,82.412 336.110,92.807 345.820 C 98.849 351.464,99.141 361.113,93.473 367.849 C 88.551 373.699,90.677 379.826,96.058 375.298 C 113.478 360.640,97.983 325.162,79.290 336.905 M70.190 392.750 L 70.500 396.500 81.150 397.000 C 95.395 397.669,100.238 402.588,97.068 413.169 C 95.541 418.263,95.111 418.430,82.000 419.000 L 70.500 419.500 70.190 423.250 L 69.879 427.000 82.292 427.000 C 101.640 427.000,109.206 417.395,102.500 401.346 C 101.675 399.371,101.000 397.586,101.000 397.378 C 101.000 397.170,106.625 397.000,113.500 397.000 L 126.000 397.000 126.000 393.000 L 126.000 389.000 97.940 389.000 L 69.879 389.000 70.190 392.750 M82.655 437.482 C 72.242 441.131,66.360 454.895,70.468 466.000 C 73.324 473.722,73.362 474.000,71.556 474.000 C 70.230 474.000,69.944 474.784,70.190 477.750 L 70.500 481.500 85.000 481.787 C 102.817 482.140,104.000 481.905,104.000 478.016 C 104.000 476.141,103.306 474.699,102.091 474.049 C 100.217 473.046,100.219 472.930,102.188 467.763 C 108.428 451.389,96.361 432.681,82.655 437.482 M93.445 448.250 C 99.232 454.047,98.985 463.861,92.899 469.947 C 85.914 476.932,76.000 470.216,76.000 458.500 C 76.000 446.639,85.982 440.775,93.445 448.250 M70.691 495.643 C 70.311 496.023,70.000 497.833,70.000 499.667 L 70.000 503.000 80.577 503.000 C 92.955 503.000,96.121 504.835,97.465 512.793 C 99.150 522.768,95.129 525.743,79.750 525.900 L 70.000 526.000 70.000 529.500 L 70.000 533.000 82.250 532.985 C 95.506 532.969,97.980 532.288,101.373 527.718 C 104.178 523.939,104.845 512.958,102.595 507.574 C 101.127 504.059,101.125 503.629,102.580 502.565 C 103.582 501.832,104.047 500.308,103.836 498.451 L 103.500 495.500 87.441 495.226 C 78.608 495.076,71.070 495.263,70.691 495.643 M115.158 543.310 C 114.461 544.150,112.943 544.521,111.407 544.227 C 107.328 543.447,108.661 547.611,113.643 551.210 C 118.493 554.713,121.329 554.365,122.821 550.084 C 124.724 544.626,118.576 539.191,115.158 543.310 M75.649 566.061 C 66.944 572.909,67.628 592.471,76.725 596.808 C 83.054 599.827,87.788 594.926,90.350 582.704 C 92.181 573.971,93.725 571.942,96.208 575.008 C 98.623 577.991,98.520 584.070,96.000 587.273 C 92.470 591.761,93.765 597.267,97.838 595.087 C 100.842 593.479,103.060 589.288,103.681 584.047 C 106.025 564.257,88.821 558.447,85.007 577.740 C 83.100 587.389,82.024 590.000,79.958 590.000 C 74.666 590.000,74.501 575.322,79.749 571.451 C 81.359 570.263,81.109 564.854,79.419 564.300 C 78.825 564.105,77.128 564.898,75.649 566.061 M117.238 634.162 C 116.414 634.986,116.000 638.841,116.000 645.681 L 116.000 655.962 93.250 656.231 L 70.500 656.500 70.190 660.250 L 69.879 664.000 92.907 664.000 L 115.934 664.000 116.217 675.250 L 116.500 686.500 119.766 686.815 L 123.033 687.129 122.766 660.315 C 122.483 631.784,121.983 629.417,117.238 634.162 M97.822 694.691 L 97.500 697.500 83.691 697.779 L 69.883 698.057 70.191 701.779 L 70.500 705.500 84.000 706.000 L 97.500 706.500 97.810 710.811 C 98.275 717.258,103.331 716.826,103.805 710.298 L 104.110 706.097 109.805 705.798 L 115.500 705.500 115.810 701.750 L 116.121 698.000 110.127 698.000 C 104.331 698.000,104.122 697.909,103.816 695.250 C 103.341 691.116,98.286 690.644,97.822 694.691 M85.250 725.624 L 70.000 733.071 70.000 736.903 L 70.000 740.735 81.441 746.059 C 94.813 752.282,94.843 751.557,80.922 758.539 L 70.000 764.017 70.043 767.758 L 70.086 771.500 85.354 778.750 C 103.008 787.133,104.000 787.340,104.000 782.653 C 104.000 779.378,103.757 779.188,92.500 773.691 C 86.175 770.603,81.000 767.817,81.000 767.500 C 81.000 767.183,86.175 764.397,92.500 761.309 L 104.000 755.693 104.000 751.984 L 104.000 748.275 92.500 742.957 C 86.175 740.032,81.000 737.310,81.000 736.909 C 81.000 736.507,86.175 733.689,92.500 730.648 C 103.977 725.129,104.000 725.111,104.000 721.559 C 104.000 716.678,103.229 716.845,85.250 725.624 M79.290 792.905 C 67.678 800.200,65.846 819.607,75.767 830.214 C 80.283 835.043,81.974 827.931,77.884 821.312 C 74.743 816.231,75.530 807.143,79.467 803.035 C 83.697 798.620,84.000 799.625,84.000 818.059 L 84.000 835.000 87.050 835.000 C 95.946 835.000,103.943 824.601,103.968 813.000 C 104.003 797.448,90.091 786.120,79.290 792.905 M95.404 804.814 C 98.830 811.440,98.011 819.015,93.307 824.213 C 90.383 827.444,90.000 826.141,90.000 812.965 C 90.000 798.974,91.339 796.954,95.404 804.814 M70.188 849.726 L 70.500 853.500 80.840 853.786 C 92.986 854.122,95.454 855.259,97.072 861.268 C 100.056 872.348,97.023 875.379,82.334 876.000 L 70.500 876.500 70.190 880.250 L 69.879 884.000 81.472 884.000 C 94.473 884.000,98.547 882.867,101.443 878.447 C 104.078 874.425,104.713 863.643,102.611 858.612 C 101.129 855.064,101.126 854.628,102.580 853.565 C 103.582 852.832,104.047 851.308,103.836 849.451 L 103.500 846.500 86.688 846.226 L 69.876 845.951 70.188 849.726 M97.822 895.691 L 97.500 898.500 83.691 898.779 L 69.883 899.057 70.191 902.779 L 70.500 906.500 84.000 907.000 L 97.500 907.500 97.810 911.811 C 98.275 918.258,103.331 917.826,103.805 911.298 L 104.110 907.097 109.805 906.798 L 115.500 906.500 115.810 902.750 L 116.121 899.000 110.127 899.000 C 104.331 899.000,104.122 898.909,103.816 896.250 C 103.341 892.116,98.286 891.644,97.822 895.691 M88.000 928.503 C 73.080 938.528,75.796 938.170,65.426 931.481 C 56.137 925.488,55.000 925.382,55.000 930.512 C 55.000 934.267,54.645 933.935,68.000 942.628 C 106.103 967.427,104.005 966.400,103.993 960.250 C 103.986 956.590,103.735 956.337,93.493 949.692 C 80.777 941.441,80.775 942.725,93.517 934.384 C 103.790 927.660,104.028 927.419,103.767 924.008 C 103.368 918.790,101.781 919.243,88.000 928.503 " stroke="none" fill="#fc5454" fill-rule="evenodd"></path><path id="path2" d="M0.000 1200.000 L 0.000 2400.000 92.000 2400.000 L 184.000 2400.000 184.000 1200.000 L 184.000 0.000 92.000 0.000 L 0.000 0.000 0.000 1200.000 M123.500 88.000 L 123.500 115.500 120.000 115.500 L 116.500 115.500 116.217 104.268 L 115.935 93.037 92.717 92.768 L 69.500 92.500 69.500 88.000 L 69.500 83.500 92.750 83.232 L 116.000 82.963 116.000 72.148 C 116.000 60.156,116.141 59.779,120.464 60.203 L 123.500 60.500 123.500 88.000 M126.500 127.000 L 126.500 131.500 114.357 131.780 L 102.214 132.060 103.676 136.780 C 108.797 153.307,101.906 162.002,83.071 162.777 C 69.972 163.317,68.614 162.734,69.182 156.815 L 69.500 153.500 80.500 152.877 C 86.550 152.535,91.805 152.197,92.179 152.127 C 96.410 151.334,97.611 139.318,93.927 134.635 C 91.930 132.095,91.485 132.000,81.627 132.000 C 70.804 132.000,69.000 131.340,69.000 127.382 C 69.000 121.742,67.833 121.947,98.363 122.235 L 126.500 122.500 126.500 127.000 M95.791 172.664 C 109.850 183.005,105.562 212.553,89.567 215.553 C 82.951 216.795,83.000 216.926,83.000 197.948 C 83.000 179.792,82.495 178.223,78.840 185.038 C 76.398 189.591,76.471 196.620,79.004 200.774 C 83.939 208.869,80.426 216.428,74.684 210.071 C 58.704 192.384,77.446 159.169,95.791 172.664 M91.000 192.500 C 91.000 204.583,91.481 205.842,94.284 201.096 C 96.689 197.025,96.549 188.413,94.011 184.250 C 91.128 179.522,91.000 179.874,91.000 192.500 M123.500 261.000 L 123.500 265.500 112.696 266.000 L 101.892 266.500 112.946 279.717 C 123.847 292.751,124.000 293.005,124.000 298.036 C 124.000 305.561,121.922 304.480,110.466 291.000 C 105.091 284.675,100.376 279.371,99.988 279.214 C 99.292 278.931,80.271 299.403,74.249 306.917 C 71.232 310.680,68.997 309.129,69.012 303.281 C 69.024 298.583,69.233 298.269,81.012 285.211 C 94.166 270.629,93.698 271.416,91.087 268.288 C 89.446 266.322,88.140 266.043,79.370 265.788 L 69.500 265.500 69.180 262.155 C 68.558 255.670,67.297 255.941,96.725 256.234 L 123.500 256.500 123.500 261.000 M114.687 314.786 C 116.906 316.196,117.923 320.520,116.645 323.099 C 114.200 328.027,107.000 325.548,107.000 319.777 C 107.000 316.151,111.865 312.991,114.687 314.786 M103.806 320.274 L 104.112 325.048 86.806 324.774 L 69.500 324.500 69.182 321.185 C 68.607 315.201,69.463 314.921,87.392 315.226 L 103.500 315.500 103.806 320.274 M94.588 336.499 C 106.996 343.770,107.881 368.540,96.034 376.975 C 90.493 380.921,88.706 373.469,93.500 366.405 C 101.685 354.344,90.909 337.855,80.766 346.918 C 76.141 351.050,75.852 362.149,80.250 366.739 C 85.958 372.697,83.280 381.472,77.097 377.069 C 57.685 363.246,74.333 324.629,94.588 336.499 M126.819 392.398 C 127.248 397.639,126.449 397.967,113.215 397.985 L 101.930 398.000 103.172 400.250 C 104.996 403.553,104.754 416.839,102.803 420.502 C 99.292 427.098,98.164 427.500,83.148 427.500 L 69.500 427.500 69.182 424.185 C 68.648 418.624,69.946 418.000,82.051 418.000 C 95.189 418.000,96.000 417.481,96.000 409.063 C 96.000 399.361,94.232 398.000,81.627 398.000 C 70.337 398.000,69.000 397.414,69.000 392.467 C 69.000 387.833,68.193 387.949,98.432 388.235 L 126.500 388.500 126.819 392.398 M94.270 437.656 C 102.798 442.015,107.576 459.257,102.782 468.375 C 102.108 469.657,102.169 470.947,102.974 472.452 C 103.622 473.663,104.006 476.194,103.826 478.077 L 103.500 481.500 86.500 481.500 L 69.500 481.500 69.199 477.914 C 69.011 475.663,69.447 473.874,70.374 473.105 C 71.672 472.028,71.663 471.439,70.302 468.191 C 62.648 449.916,78.569 429.633,94.270 437.656 M83.315 446.472 C 78.804 448.422,76.674 453.051,77.225 459.705 C 78.661 477.014,96.000 475.542,96.000 458.111 C 96.000 448.751,90.249 443.474,83.315 446.472 M103.818 498.382 C 103.993 500.517,103.710 502.690,103.190 503.210 C 102.594 503.806,102.780 505.889,103.691 508.829 C 108.797 525.303,101.883 534.003,83.071 534.777 C 69.972 535.317,68.614 534.734,69.182 528.815 L 69.500 525.500 81.000 524.882 C 87.325 524.541,92.580 524.204,92.679 524.132 C 96.729 521.147,97.446 511.108,93.927 506.635 C 91.930 504.095,91.485 504.000,81.627 504.000 C 70.804 504.000,69.000 503.340,69.000 499.382 C 69.000 493.905,68.911 493.931,86.866 494.226 L 103.500 494.500 103.818 498.382 M122.429 542.571 C 124.281 544.424,124.522 551.078,122.800 552.800 C 119.467 556.133,107.697 550.644,108.219 546.000 C 108.441 544.022,109.073 543.491,111.245 543.455 C 112.754 543.431,114.532 542.868,115.195 542.205 C 116.882 540.518,120.561 540.704,122.429 542.571 M81.000 568.059 C 81.000 570.667,80.323 572.677,79.000 574.000 C 76.965 576.035,76.334 581.912,77.630 586.750 C 78.502 590.001,81.713 589.663,82.371 586.250 C 82.663 584.737,83.384 581.014,83.975 577.975 C 87.113 561.823,100.395 559.973,104.043 575.180 C 106.541 585.591,100.593 598.977,94.508 596.641 C 92.519 595.878,92.430 588.433,94.400 587.677 C 96.321 586.939,97.342 580.029,96.037 576.596 C 94.536 572.649,92.291 574.731,91.469 580.832 C 89.759 593.525,86.626 598.000,79.452 598.000 C 67.267 598.000,64.499 569.478,76.206 564.555 C 80.388 562.797,81.000 563.244,81.000 568.059 M122.767 632.835 C 123.749 633.458,123.973 639.691,123.767 660.569 L 123.500 687.500 119.750 687.810 L 116.000 688.121 116.000 677.060 L 116.000 666.000 93.700 666.000 C 69.759 666.000,69.000 665.843,69.000 660.882 C 69.000 654.786,68.123 655.000,93.107 655.000 L 116.000 655.000 116.000 644.167 C 116.000 638.208,116.300 633.033,116.667 632.667 C 117.579 631.754,121.222 631.854,122.767 632.835 M104.000 693.952 C 104.000 696.875,104.062 696.908,110.250 697.202 L 116.500 697.500 116.818 700.815 C 117.280 705.627,115.641 707.000,109.435 707.000 L 104.115 707.000 103.807 711.250 C 103.291 718.382,96.000 717.568,96.000 710.378 L 96.000 707.000 83.622 707.000 C 69.813 707.000,68.636 706.496,69.182 700.815 L 69.500 697.500 82.750 697.221 C 95.836 696.945,96.000 696.913,96.000 694.638 C 96.000 691.563,96.723 691.000,100.667 691.000 C 103.692 691.000,104.000 691.273,104.000 693.952 M104.000 721.541 L 104.000 726.082 92.750 731.430 L 81.500 736.778 92.741 742.139 L 103.982 747.500 103.991 752.020 L 104.000 756.541 92.876 762.077 L 81.753 767.613 92.876 772.985 L 104.000 778.357 104.000 782.620 C 104.000 788.765,103.855 788.744,85.621 779.969 L 69.000 771.971 69.000 767.517 L 69.000 763.064 80.250 757.697 L 91.500 752.331 80.194 746.629 L 68.889 740.927 69.194 736.714 L 69.500 732.500 85.000 724.815 C 103.709 715.539,104.000 715.489,104.000 721.541 M94.588 792.499 C 111.141 802.199,105.517 836.000,87.350 836.000 L 83.000 836.000 83.000 819.000 C 83.000 809.650,82.620 802.000,82.155 802.000 C 77.705 802.000,75.422 817.494,79.250 821.724 C 81.201 823.880,81.713 832.441,79.956 833.527 C 78.037 834.713,74.210 831.129,71.517 825.624 C 61.887 805.942,78.014 782.786,94.588 792.499 M91.000 813.500 C 91.000 826.126,91.128 826.478,94.011 821.750 C 96.437 817.772,96.673 809.202,94.474 804.950 C 91.759 799.699,91.000 801.565,91.000 813.500 M103.818 849.382 C 103.993 851.517,103.677 853.723,103.115 854.285 C 102.420 854.980,102.464 855.976,103.254 857.403 C 105.011 860.578,104.712 873.917,102.803 877.502 C 99.292 884.098,98.164 884.500,83.148 884.500 L 69.500 884.500 69.182 881.185 C 68.648 875.624,69.946 875.000,82.051 875.000 C 95.189 875.000,96.000 874.481,96.000 866.063 C 96.000 856.361,94.232 855.000,81.627 855.000 C 70.337 855.000,69.000 854.414,69.000 849.467 C 69.000 844.906,68.901 844.929,86.940 845.227 L 103.500 845.500 103.818 849.382 M103.816 895.250 C 104.122 897.904,104.339 898.000,110.047 898.000 C 120.422 898.000,120.667 907.301,110.305 907.796 L 104.110 908.093 103.805 912.296 C 103.327 918.881,96.669 918.840,96.193 912.250 L 95.885 908.000 82.962 908.000 L 70.038 908.000 69.411 905.500 C 69.066 904.125,69.066 901.875,69.411 900.500 L 70.038 898.000 82.894 898.000 L 95.750 898.000 96.363 894.936 C 97.229 890.604,103.311 890.861,103.816 895.250 M104.000 923.900 L 104.000 928.800 94.000 935.149 C 88.500 938.640,84.000 941.726,84.000 942.007 C 84.000 942.287,88.500 945.389,94.000 948.901 L 104.000 955.285 104.000 960.059 C 104.000 966.269,102.771 966.556,96.000 961.930 C 92.975 959.863,82.513 952.967,72.750 946.604 L 55.000 935.036 55.000 930.577 C 55.000 924.218,55.983 924.211,65.628 930.498 C 70.370 933.589,74.756 935.888,75.375 935.608 C 75.994 935.327,81.900 931.507,88.500 927.120 C 103.050 917.448,104.000 917.250,104.000 923.900 M125.492 2097.500 C 125.483 2115.423,124.853 2118.959,120.859 2123.507 C 115.660 2129.430,106.943 2130.114,101.526 2125.025 L 99.373 2123.002 96.484 2126.017 C 87.643 2135.245,72.218 2129.595,69.081 2115.980 C 67.935 2111.004,67.608 2083.725,68.682 2082.651 C 69.057 2082.276,81.994 2082.089,97.432 2082.235 L 125.500 2082.500 125.492 2097.500 M81.000 2103.777 C 81.000 2111.302,89.682 2112.099,91.528 2104.744 L 92.217 2102.000 86.608 2102.000 C 81.901 2102.000,81.000 2102.285,81.000 2103.777 M105.000 2104.521 C 105.000 2108.145,109.620 2110.240,111.610 2107.519 C 114.284 2103.862,113.404 2102.000,109.000 2102.000 C 105.391 2102.000,105.000 2102.246,105.000 2104.521 M111.500 2146.500 L 111.500 2155.500 95.684 2155.776 C 79.977 2156.050,79.870 2156.067,80.184 2158.276 C 80.492 2160.440,80.916 2160.513,96.000 2161.000 L 111.500 2161.500 111.793 2169.914 C 112.004 2175.971,111.724 2178.559,110.793 2179.149 C 108.640 2180.515,70.596 2180.196,69.200 2178.800 C 67.723 2177.323,67.577 2163.823,69.023 2162.377 C 69.720 2161.680,69.561 2160.194,68.523 2157.709 C 62.260 2142.719,69.698 2136.858,94.500 2137.239 L 111.500 2137.500 111.500 2146.500 M125.393 2189.582 C 126.489 2192.437,126.046 2204.554,124.800 2205.800 C 124.119 2206.481,120.859 2207.000,117.265 2207.000 C 111.311 2207.000,110.992 2207.117,111.965 2208.934 C 115.197 2214.974,112.027 2225.768,106.173 2228.659 C 100.970 2231.228,76.711 2231.349,72.857 2228.825 C 67.520 2225.330,65.428 2215.699,68.440 2208.490 C 69.293 2206.447,69.497 2204.807,68.940 2204.463 C 67.880 2203.808,67.636 2189.698,68.667 2188.667 C 70.279 2187.055,124.760 2187.933,125.393 2189.582 M82.750 2206.716 C 80.617 2207.039,80.000 2207.679,80.000 2209.566 C 80.000 2212.725,98.500 2213.466,99.694 2210.355 C 101.087 2206.726,93.476 2205.091,82.750 2206.716 M88.012 2239.750 C 89.686 2241.262,92.157 2245.200,93.504 2248.500 L 95.953 2254.500 95.976 2246.817 C 96.018 2233.323,110.446 2237.452,112.562 2251.563 C 116.128 2275.347,110.883 2281.956,88.349 2282.070 C 80.732 2282.109,73.600 2282.497,72.500 2282.932 C 68.615 2284.469,68.000 2283.246,68.000 2273.976 C 68.000 2269.131,68.437 2265.017,68.971 2264.833 C 69.555 2264.633,69.373 2262.905,68.515 2260.500 C 62.850 2244.625,76.881 2229.692,88.012 2239.750 M80.153 2256.247 C 77.321 2259.079,80.068 2263.000,84.882 2263.000 C 86.689 2263.000,86.787 2262.689,85.843 2259.979 C 84.586 2256.374,81.832 2254.568,80.153 2256.247 M97.240 2259.054 C 99.054 2263.499,101.000 2264.032,101.000 2260.083 C 101.000 2258.387,100.587 2257.000,100.082 2257.000 C 99.577 2257.000,98.427 2256.717,97.527 2256.372 C 96.053 2255.806,96.024 2256.074,97.240 2259.054 " stroke="none" fill="#fbebcb" fill-rule="evenodd"></path><path id="path3" d="M123.437 88.000 C 123.437 102.575,123.577 108.537,123.747 101.250 C 123.918 93.962,123.918 82.037,123.747 74.750 C 123.577 67.462,123.437 73.425,123.437 88.000 M82.306 83.747 C 88.800 83.922,99.150 83.921,105.306 83.746 C 111.463 83.571,106.150 83.428,93.500 83.429 C 80.850 83.429,75.813 83.573,82.306 83.747 M82.306 92.747 C 88.800 92.922,99.150 92.921,105.306 92.746 C 111.463 92.571,106.150 92.428,93.500 92.429 C 80.850 92.429,75.813 92.573,82.306 92.747 M126.232 127.000 C 126.232 128.925,126.438 129.713,126.689 128.750 C 126.941 127.787,126.941 126.213,126.689 125.250 C 126.438 124.287,126.232 125.075,126.232 127.000 M75.750 161.740 C 79.188 161.936,84.813 161.936,88.250 161.740 C 91.688 161.545,88.875 161.385,82.000 161.385 C 75.125 161.385,72.313 161.545,75.750 161.740 M82.762 191.748 C 83.246 213.503,83.613 215.610,83.807 197.750 C 83.913 187.988,83.662 179.999,83.250 179.998 C 82.838 179.997,82.618 185.284,82.762 191.748 M80.252 207.500 C 80.263 209.700,80.468 210.482,80.707 209.238 C 80.946 207.994,80.937 206.194,80.687 205.238 C 80.437 204.282,80.241 205.300,80.252 207.500 M83.191 256.747 C 90.171 256.918,101.871 256.919,109.191 256.748 C 116.511 256.577,110.800 256.436,96.500 256.436 C 82.200 256.435,76.211 256.575,83.191 256.747 M122.951 261.724 C 122.677 264.047,122.833 265.567,123.299 265.101 C 123.765 264.635,123.989 262.735,123.798 260.877 C 123.459 257.583,123.438 257.604,122.951 261.724 M82.437 284.250 L 79.500 287.500 82.750 284.563 C 84.537 282.948,86.000 281.485,86.000 281.313 C 86.000 280.540,85.175 281.221,82.437 284.250 M122.847 297.094 C 123.223 302.424,122.742 302.894,119.579 300.287 C 117.626 298.678,117.630 298.715,119.649 300.908 C 120.831 302.192,122.294 302.937,122.899 302.562 C 124.127 301.803,124.426 293.382,123.250 292.653 C 122.838 292.397,122.656 294.396,122.847 297.094 M84.250 388.748 C 91.813 388.917,104.188 388.917,111.750 388.748 C 119.313 388.578,113.125 388.439,98.000 388.439 C 82.875 388.439,76.688 388.578,84.250 388.748 M126.232 393.000 C 126.232 394.925,126.438 395.712,126.689 394.750 C 126.941 393.788,126.941 392.212,126.689 391.250 C 126.438 390.288,126.232 391.075,126.232 393.000 M76.250 427.739 C 79.412 427.937,84.587 427.937,87.750 427.739 C 90.912 427.541,88.325 427.378,82.000 427.378 C 75.675 427.378,73.087 427.541,76.250 427.739 M75.437 441.250 L 72.500 444.500 75.750 441.563 C 77.537 439.948,79.000 438.485,79.000 438.313 C 79.000 437.540,78.175 438.221,75.437 441.250 M75.750 533.740 C 79.188 533.936,84.813 533.936,88.250 533.740 C 91.688 533.545,88.875 533.385,82.000 533.385 C 75.125 533.385,72.313 533.545,75.750 533.740 M108.667 543.667 C 107.424 544.910,107.992 547.749,109.750 549.079 C 111.239 550.206,111.313 550.194,110.250 549.002 C 109.563 548.231,109.000 546.827,109.000 545.883 C 109.000 544.939,109.563 543.940,110.250 543.662 C 110.948 543.381,111.021 543.123,110.417 543.079 C 109.821 543.036,109.033 543.300,108.667 543.667 M97.232 581.000 C 97.232 582.925,97.438 583.712,97.689 582.750 C 97.941 581.788,97.941 580.212,97.689 579.250 C 97.438 578.288,97.232 579.075,97.232 581.000 M122.500 660.500 C 122.500 675.520,122.838 687.600,123.250 687.345 C 123.662 687.091,124.000 675.010,124.000 660.500 C 124.000 645.990,123.662 633.909,123.250 633.655 C 122.838 633.400,122.500 645.480,122.500 660.500 M97.612 691.819 C 97.333 692.270,98.432 692.443,100.053 692.206 C 101.674 691.968,103.000 691.599,103.000 691.387 C 103.000 690.625,98.107 691.017,97.612 691.819 M77.250 697.742 C 80.963 697.934,87.037 697.934,90.750 697.742 C 94.463 697.549,91.425 697.392,84.000 697.392 C 76.575 697.392,73.537 697.549,77.250 697.742 M106.768 697.725 C 108.565 697.947,111.265 697.943,112.768 697.715 C 114.271 697.486,112.800 697.304,109.500 697.310 C 106.200 697.315,104.971 697.502,106.768 697.725 M83.000 817.843 L 83.500 835.500 86.000 835.596 C 88.175 835.680,88.208 835.639,86.250 835.280 C 84.022 834.871,84.000 834.703,84.000 817.993 C 84.000 808.712,83.662 800.908,83.250 800.652 C 82.838 800.396,82.725 808.132,83.000 817.843 M80.232 828.000 C 80.232 829.925,80.438 830.712,80.689 829.750 C 80.941 828.788,80.941 827.212,80.689 826.250 C 80.438 825.288,80.232 826.075,80.232 828.000 M76.000 845.677 C 89.307 846.399,103.776 846.438,103.348 845.750 C 103.092 845.337,95.596 845.085,86.691 845.189 C 77.786 845.293,72.975 845.513,76.000 845.677 M76.287 884.740 C 79.469 884.939,84.419 884.937,87.287 884.736 C 90.154 884.535,87.550 884.372,81.500 884.374 C 75.450 884.376,73.104 884.541,76.287 884.740 M97.655 892.750 C 97.400 893.163,98.680 893.500,100.500 893.500 C 102.320 893.500,103.600 893.163,103.345 892.750 C 103.091 892.337,101.810 892.000,100.500 892.000 C 99.190 892.000,97.909 892.337,97.655 892.750 M77.250 898.742 C 80.963 898.934,87.037 898.934,90.750 898.742 C 94.463 898.549,91.425 898.392,84.000 898.392 C 76.575 898.392,73.537 898.549,77.250 898.742 M106.768 898.725 C 108.565 898.947,111.265 898.943,112.768 898.715 C 114.271 898.486,112.800 898.304,109.500 898.310 C 106.200 898.315,104.971 898.502,106.768 898.725 M97.655 916.250 C 97.909 916.663,99.190 917.000,100.500 917.000 C 101.810 917.000,103.091 916.663,103.345 916.250 C 103.600 915.837,102.320 915.500,100.500 915.500 C 98.680 915.500,97.400 915.837,97.655 916.250 " stroke="none" fill="#fc8f84" fill-rule="evenodd"></path><path id="path4" d="M68.438 2083.300 C 68.164 2084.016,68.080 2090.653,68.251 2098.050 L 68.563 2111.500 68.782 2097.266 L 69.000 2083.032 96.750 2082.749 L 124.500 2082.467 96.719 2082.234 C 74.673 2082.048,68.834 2082.268,68.438 2083.300 M80.667 2101.667 C 80.300 2102.033,80.007 2102.821,80.015 2103.417 C 80.025 2104.104,80.307 2104.065,80.787 2103.310 C 81.203 2102.656,84.009 2101.952,87.022 2101.745 L 92.500 2101.370 86.917 2101.185 C 83.846 2101.083,81.033 2101.300,80.667 2101.667 M106.250 2101.716 C 107.763 2101.945,110.237 2101.945,111.750 2101.716 C 113.263 2101.487,112.025 2101.300,109.000 2101.300 C 105.975 2101.300,104.737 2101.487,106.250 2101.716 M86.797 2137.745 C 91.361 2137.930,98.561 2137.929,102.797 2137.742 C 107.034 2137.555,103.300 2137.404,94.500 2137.405 C 85.700 2137.406,82.234 2137.559,86.797 2137.745 M110.992 2146.205 C 110.721 2150.992,110.858 2154.550,111.295 2154.110 C 111.732 2153.670,111.953 2149.753,111.786 2145.405 L 111.483 2137.500 110.992 2146.205 M67.232 2151.000 C 67.232 2152.925,67.438 2153.713,67.689 2152.750 C 67.941 2151.787,67.941 2150.213,67.689 2149.250 C 67.438 2148.287,67.232 2149.075,67.232 2151.000 M69.183 2162.217 C 67.885 2163.515,67.507 2177.575,68.750 2178.349 C 69.162 2178.606,69.350 2175.420,69.166 2171.269 C 68.926 2165.843,69.199 2163.495,70.137 2162.915 C 70.855 2162.472,71.200 2161.867,70.904 2161.571 C 70.609 2161.275,69.834 2161.566,69.183 2162.217 M88.750 2161.743 C 92.737 2161.932,99.263 2161.932,103.250 2161.743 C 107.237 2161.553,103.975 2161.397,96.000 2161.397 C 88.025 2161.397,84.763 2161.553,88.750 2161.743 M110.992 2170.205 C 110.721 2174.992,110.858 2178.550,111.295 2178.110 C 111.732 2177.670,111.953 2173.753,111.786 2169.405 L 111.483 2161.500 110.992 2170.205 M79.000 2188.703 C 102.660 2189.412,124.772 2189.435,124.347 2188.750 C 124.091 2188.338,111.646 2188.094,96.691 2188.209 C 81.736 2188.324,73.775 2188.547,79.000 2188.703 M68.196 2196.628 C 68.038 2202.382,68.337 2204.020,69.750 2205.128 C 71.285 2206.331,71.353 2206.311,70.300 2204.958 C 69.641 2204.110,68.941 2200.285,68.746 2196.458 L 68.392 2189.500 68.196 2196.628 M90.250 2205.689 C 91.213 2205.941,92.787 2205.941,93.750 2205.689 C 94.713 2205.438,93.925 2205.232,92.000 2205.232 C 90.075 2205.232,89.287 2205.438,90.250 2205.689 M96.500 2212.000 L 93.500 2212.763 96.191 2212.882 C 97.671 2212.947,99.160 2212.550,99.500 2212.000 C 99.840 2211.450,99.979 2211.053,99.809 2211.118 C 99.639 2211.183,98.150 2211.580,96.500 2212.000 M67.272 2216.000 C 67.272 2218.475,67.467 2219.488,67.706 2218.250 C 67.944 2217.012,67.944 2214.988,67.706 2213.750 C 67.467 2212.512,67.272 2213.525,67.272 2216.000 M112.252 2215.500 C 112.263 2217.700,112.468 2218.482,112.707 2217.238 C 112.946 2215.994,112.937 2214.194,112.687 2213.238 C 112.437 2212.282,112.241 2213.300,112.252 2215.500 M84.728 2230.722 C 86.503 2230.943,89.653 2230.946,91.728 2230.730 C 93.802 2230.513,92.350 2230.333,88.500 2230.328 C 84.650 2230.324,82.952 2230.501,84.728 2230.722 M78.250 2237.689 C 79.213 2237.941,80.787 2237.941,81.750 2237.689 C 82.713 2237.438,81.925 2237.232,80.000 2237.232 C 78.075 2237.232,77.287 2237.438,78.250 2237.689 M96.513 2240.250 C 95.766 2242.446,95.473 2255.832,96.181 2255.392 C 96.555 2255.158,97.144 2255.425,97.490 2255.984 C 97.835 2256.543,98.627 2257.000,99.250 2257.000 C 99.873 2257.000,99.583 2256.415,98.605 2255.701 C 97.112 2254.608,96.882 2253.172,97.164 2246.698 C 97.494 2239.129,97.356 2237.766,96.513 2240.250 M67.232 2252.000 C 67.232 2253.925,67.438 2254.713,67.689 2253.750 C 67.941 2252.787,67.941 2251.213,67.689 2250.250 C 67.438 2249.287,67.232 2250.075,67.232 2252.000 M112.343 2260.500 C 112.346 2264.900,112.522 2266.576,112.733 2264.224 C 112.945 2261.872,112.942 2258.272,112.727 2256.224 C 112.512 2254.176,112.339 2256.100,112.343 2260.500 M68.422 2266.344 C 68.138 2267.083,68.045 2271.020,68.214 2275.094 L 68.522 2282.500 69.011 2273.748 C 69.498 2265.026,69.400 2263.794,68.422 2266.344 M82.292 2281.742 C 86.027 2281.935,91.877 2281.934,95.292 2281.739 C 98.706 2281.545,95.650 2281.387,88.500 2281.389 C 81.350 2281.390,78.556 2281.550,82.292 2281.742 " stroke="none" fill="#ac9d85" fill-rule="evenodd"></path><path id="path5" d="M75.784 153.738 C 78.689 153.941,83.189 153.939,85.784 153.734 C 88.378 153.528,86.000 153.363,80.500 153.365 C 75.000 153.368,72.878 153.536,75.784 153.738 M75.784 525.738 C 78.689 525.941,83.189 525.939,85.784 525.734 C 88.378 525.528,86.000 525.363,80.500 525.365 C 75.000 525.368,72.878 525.536,75.784 525.738 M82.306 664.747 C 88.800 664.922,99.150 664.921,105.306 664.746 C 111.463 664.571,106.150 664.428,93.500 664.429 C 80.850 664.429,75.813 664.573,82.306 664.747 M97.252 710.500 C 97.263 712.700,97.468 713.482,97.707 712.238 C 97.946 710.994,97.937 709.194,97.687 708.238 C 97.437 707.282,97.241 708.300,97.252 710.500 M97.252 911.500 C 97.263 913.700,97.468 914.482,97.707 913.238 C 97.946 911.994,97.937 910.194,97.687 909.238 C 97.437 908.282,97.241 909.300,97.252 911.500 " stroke="none" fill="#de766c" fill-rule="evenodd"></path><path id="path6" d="M117.000 60.391 C 117.000 60.605,118.543 60.961,120.430 61.182 C 122.316 61.402,123.640 61.226,123.371 60.791 C 122.887 60.008,117.000 59.638,117.000 60.391 M69.667 83.667 C 68.753 84.581,68.822 91.772,69.750 92.345 C 70.162 92.600,70.500 90.602,70.500 87.905 C 70.500 85.207,70.463 83.000,70.417 83.000 C 70.371 83.000,70.033 83.300,69.667 83.667 M120.000 115.000 L 116.500 115.737 119.691 115.868 C 121.446 115.941,123.160 115.550,123.500 115.000 C 123.840 114.450,123.979 114.059,123.809 114.132 C 123.639 114.204,121.925 114.595,120.000 115.000 M79.500 122.705 C 104.527 123.413,126.772 123.434,126.347 122.750 C 126.091 122.338,113.196 122.095,97.691 122.211 C 82.186 122.327,74.000 122.549,79.500 122.705 M69.232 127.000 C 69.232 128.925,69.438 129.713,69.689 128.750 C 69.941 127.787,69.941 126.213,69.689 125.250 C 69.438 124.287,69.232 125.075,69.232 127.000 M114.000 131.000 L 101.500 131.595 113.691 131.797 C 120.967 131.918,126.131 131.597,126.500 131.000 C 126.840 130.450,126.979 130.091,126.809 130.203 C 126.639 130.314,120.875 130.673,114.000 131.000 M75.250 131.735 C 77.862 131.941,82.138 131.941,84.750 131.735 C 87.362 131.529,85.225 131.360,80.000 131.360 C 74.775 131.360,72.638 131.529,75.250 131.735 M96.286 143.500 C 96.294 146.250,96.488 147.256,96.718 145.736 C 96.947 144.216,96.941 141.966,96.704 140.736 C 96.467 139.506,96.279 140.750,96.286 143.500 M104.272 144.000 C 104.272 146.475,104.467 147.488,104.706 146.250 C 104.944 145.012,104.944 142.988,104.706 141.750 C 104.467 140.512,104.272 141.525,104.272 144.000 M69.252 157.500 C 69.263 159.700,69.468 160.482,69.707 159.238 C 69.946 157.994,69.937 156.194,69.687 155.238 C 69.437 154.282,69.241 155.300,69.252 157.500 M75.784 162.738 C 78.689 162.941,83.189 162.939,85.784 162.734 C 88.378 162.528,86.000 162.363,80.500 162.365 C 75.000 162.368,72.878 162.536,75.784 162.738 M90.175 192.750 C 90.079 199.488,90.338 205.001,90.750 205.002 C 91.162 205.004,91.379 201.291,91.231 196.752 C 90.742 181.796,90.352 180.316,90.175 192.750 M96.286 192.500 C 96.294 195.250,96.488 196.256,96.718 194.736 C 96.947 193.216,96.941 190.966,96.704 189.736 C 96.467 188.506,96.279 189.750,96.286 192.500 M76.252 192.500 C 76.263 194.700,76.468 195.482,76.707 194.238 C 76.946 192.994,76.937 191.194,76.687 190.238 C 76.437 189.282,76.241 190.300,76.252 192.500 M104.252 192.500 C 104.263 194.700,104.468 195.482,104.707 194.238 C 104.946 192.994,104.937 191.194,104.687 190.238 C 104.437 189.282,104.241 190.300,104.252 192.500 M69.398 257.405 C 69.102 258.177,69.016 260.315,69.209 262.155 C 69.515 265.088,69.617 264.915,70.036 260.750 C 70.527 255.879,70.346 254.934,69.398 257.405 M91.385 268.687 C 92.424 269.941,92.878 271.434,92.451 272.187 C 91.850 273.248,91.968 273.258,93.064 272.239 C 94.197 271.187,94.020 270.606,91.998 268.739 C 89.628 266.550,89.614 266.549,91.385 268.687 M96.437 281.250 L 93.500 284.500 96.750 281.563 C 98.537 279.948,100.000 278.485,100.000 278.313 C 100.000 277.540,99.175 278.221,96.437 281.250 M76.437 290.250 L 73.500 293.500 76.750 290.563 C 78.537 288.948,80.000 287.485,80.000 287.313 C 80.000 286.540,79.175 287.221,76.437 290.250 M70.655 296.829 C 68.423 299.296,68.367 307.820,70.578 308.668 C 71.448 309.002,72.794 308.542,73.581 307.640 C 74.365 306.742,74.466 306.456,73.804 307.004 C 69.989 310.161,68.022 300.843,71.655 296.829 C 72.565 295.823,73.085 295.000,72.810 295.000 C 72.535 295.000,71.565 295.823,70.655 296.829 M76.000 315.677 C 89.307 316.399,103.776 316.438,103.348 315.750 C 103.092 315.337,95.596 315.085,86.691 315.189 C 77.786 315.293,72.975 315.513,76.000 315.677 M69.252 320.500 C 69.263 322.700,69.468 323.482,69.707 322.238 C 69.946 320.994,69.937 319.194,69.687 318.238 C 69.437 317.282,69.241 318.300,69.252 320.500 M76.272 357.000 C 76.272 359.475,76.467 360.488,76.706 359.250 C 76.944 358.012,76.944 355.988,76.706 354.750 C 76.467 353.512,76.272 354.525,76.272 357.000 M96.286 357.500 C 96.294 360.250,96.488 361.256,96.718 359.736 C 96.947 358.216,96.941 355.966,96.704 354.736 C 96.467 353.506,96.279 354.750,96.286 357.500 M104.272 357.000 C 104.272 359.475,104.467 360.488,104.706 359.250 C 104.944 358.012,104.944 355.988,104.706 354.750 C 104.467 353.512,104.272 354.525,104.272 357.000 M79.750 367.064 C 82.956 370.718,83.033 378.504,79.856 377.673 C 78.325 377.272,78.020 377.420,78.789 378.189 C 80.981 380.381,83.000 378.232,83.000 373.706 C 83.000 370.207,82.458 368.871,80.250 366.924 L 77.500 364.500 79.750 367.064 M69.394 389.416 C 69.095 390.194,69.013 392.107,69.210 393.666 C 69.504 395.979,69.660 395.718,70.061 392.250 C 70.567 387.877,70.345 386.936,69.394 389.416 M75.784 397.738 C 78.689 397.941,83.189 397.939,85.784 397.734 C 88.378 397.528,86.000 397.363,80.500 397.365 C 75.000 397.368,72.878 397.536,75.784 397.738 M107.789 397.741 C 111.248 397.937,116.648 397.936,119.789 397.738 C 122.930 397.540,120.100 397.380,113.500 397.382 C 106.900 397.384,104.330 397.546,107.789 397.741 M96.286 409.500 C 96.294 412.250,96.488 413.256,96.718 411.736 C 96.947 410.216,96.941 407.966,96.704 406.736 C 96.467 405.506,96.279 406.750,96.286 409.500 M104.272 410.000 C 104.272 412.475,104.467 413.488,104.706 412.250 C 104.944 411.012,104.944 408.988,104.706 407.750 C 104.467 406.512,104.272 407.525,104.272 410.000 M76.287 418.740 C 79.469 418.939,84.419 418.937,87.287 418.736 C 90.154 418.535,87.550 418.372,81.500 418.374 C 75.450 418.376,73.104 418.541,76.287 418.740 M69.000 423.441 C 69.000 425.334,69.346 427.096,69.768 427.357 C 70.191 427.618,70.369 426.070,70.163 423.916 C 69.702 419.080,69.000 418.794,69.000 423.441 M96.286 458.500 C 96.294 461.250,96.488 462.256,96.718 460.736 C 96.947 459.216,96.941 456.966,96.704 455.736 C 96.467 454.506,96.279 455.750,96.286 458.500 M76.252 458.500 C 76.263 460.700,76.468 461.482,76.707 460.238 C 76.946 458.994,76.937 457.194,76.687 456.238 C 76.437 455.282,76.241 456.300,76.252 458.500 M104.252 458.500 C 104.263 460.700,104.468 461.482,104.707 460.238 C 104.946 458.994,104.937 457.194,104.687 456.238 C 104.437 455.282,104.241 456.300,104.252 458.500 M78.299 494.745 C 83.139 494.929,90.789 494.928,95.299 494.743 C 99.810 494.558,95.850 494.408,86.500 494.409 C 77.150 494.410,73.460 494.562,78.299 494.745 M69.232 499.000 C 69.232 500.925,69.438 501.712,69.689 500.750 C 69.941 499.788,69.941 498.212,69.689 497.250 C 69.438 496.288,69.232 497.075,69.232 499.000 M75.250 503.735 C 77.862 503.941,82.138 503.941,84.750 503.735 C 87.362 503.529,85.225 503.360,80.000 503.360 C 74.775 503.360,72.638 503.529,75.250 503.735 M96.300 515.000 C 96.300 518.025,96.487 519.263,96.716 517.750 C 96.945 516.237,96.945 513.763,96.716 512.250 C 96.487 510.738,96.300 511.975,96.300 515.000 M104.272 516.000 C 104.272 518.475,104.467 519.487,104.706 518.250 C 104.944 517.013,104.944 514.987,104.706 513.750 C 104.467 512.513,104.272 513.525,104.272 516.000 M69.252 529.500 C 69.263 531.700,69.468 532.482,69.707 531.238 C 69.946 529.994,69.937 528.194,69.687 527.238 C 69.437 526.282,69.241 527.300,69.252 529.500 M75.784 534.738 C 78.689 534.941,83.189 534.939,85.784 534.734 C 88.378 534.528,86.000 534.363,80.500 534.365 C 75.000 534.368,72.878 534.536,75.784 534.738 M104.272 581.000 C 104.272 583.475,104.467 584.487,104.706 583.250 C 104.944 582.013,104.944 579.987,104.706 578.750 C 104.467 577.513,104.272 578.525,104.272 581.000 M76.252 581.500 C 76.263 583.700,76.468 584.482,76.707 583.238 C 76.946 581.994,76.937 580.194,76.687 579.238 C 76.437 578.282,76.241 579.300,76.252 581.500 M93.402 592.234 C 93.478 595.531,93.896 596.518,95.270 596.640 C 96.404 596.740,96.513 596.631,95.574 596.335 C 94.716 596.065,93.942 594.240,93.706 591.930 L 93.304 587.985 93.402 592.234 M73.220 595.533 C 74.716 597.106,76.119 598.193,76.338 597.947 C 76.557 597.701,75.333 596.414,73.618 595.086 L 70.500 592.672 73.220 595.533 M116.612 632.819 C 116.333 633.270,117.432 633.443,119.053 633.206 C 120.674 632.968,122.000 632.599,122.000 632.387 C 122.000 631.625,117.107 632.017,116.612 632.819 M81.250 655.747 C 87.712 655.921,98.287 655.921,104.750 655.747 C 111.213 655.573,105.925 655.430,93.000 655.430 C 80.075 655.430,74.787 655.573,81.250 655.747 M69.252 660.500 C 69.263 662.700,69.468 663.482,69.707 662.238 C 69.946 660.994,69.937 659.194,69.687 658.238 C 69.437 657.282,69.241 658.300,69.252 660.500 M82.306 665.747 C 88.800 665.922,99.150 665.921,105.306 665.746 C 111.463 665.571,106.150 665.428,93.500 665.429 C 80.850 665.429,75.813 665.573,82.306 665.747 M96.384 692.442 C 96.080 693.234,96.007 694.697,96.223 695.692 C 96.467 696.821,96.809 696.279,97.134 694.250 C 97.678 690.844,97.325 689.991,96.384 692.442 M69.394 698.416 C 69.095 699.194,69.013 701.107,69.210 702.666 C 69.504 704.979,69.660 704.718,70.061 701.250 C 70.567 696.877,70.345 695.936,69.394 698.416 M115.951 701.276 C 116.438 705.396,116.459 705.417,116.798 702.123 C 116.989 700.265,116.765 698.365,116.299 697.899 C 115.833 697.433,115.677 698.953,115.951 701.276 M83.191 706.747 L 95.883 707.059 96.273 710.779 L 96.664 714.500 96.832 710.250 L 97.000 706.000 83.750 706.217 L 70.500 706.435 83.191 706.747 M106.768 706.725 C 108.565 706.947,111.265 706.943,112.768 706.715 C 114.271 706.486,112.800 706.304,109.500 706.310 C 106.200 706.315,104.971 706.502,106.768 706.725 M69.079 736.691 C 69.036 738.996,69.356 741.102,69.791 741.371 C 70.226 741.640,70.418 740.204,70.219 738.180 C 69.672 732.646,69.168 731.987,69.079 736.691 M69.667 762.667 C 68.751 763.582,68.822 771.772,69.750 772.345 C 70.162 772.600,70.500 770.377,70.500 767.405 C 70.500 764.432,70.463 762.000,70.417 762.000 C 70.371 762.000,70.033 762.300,69.667 762.667 M90.175 813.250 C 90.352 825.684,90.742 824.204,91.231 809.248 C 91.379 804.709,91.162 800.996,90.750 800.998 C 90.338 800.999,90.079 806.513,90.175 813.250 M96.286 813.500 C 96.294 816.250,96.488 817.256,96.718 815.736 C 96.947 814.216,96.941 811.966,96.704 810.736 C 96.467 809.506,96.279 810.750,96.286 813.500 M104.272 813.000 C 104.272 815.475,104.467 816.487,104.706 815.250 C 104.944 814.013,104.944 811.987,104.706 810.750 C 104.467 809.513,104.272 810.525,104.272 813.000 M76.252 813.500 C 76.263 815.700,76.468 816.482,76.707 815.238 C 76.946 813.994,76.937 812.194,76.687 811.238 C 76.437 810.282,76.241 811.300,76.252 813.500 M69.394 846.416 C 69.095 847.194,69.013 849.107,69.210 850.666 C 69.504 852.979,69.660 852.718,70.061 849.250 C 70.567 844.877,70.345 843.936,69.394 846.416 M75.784 854.738 C 78.689 854.941,83.189 854.939,85.784 854.734 C 88.378 854.528,86.000 854.363,80.500 854.365 C 75.000 854.368,72.878 854.536,75.784 854.738 M96.300 866.000 C 96.300 869.025,96.487 870.263,96.716 868.750 C 96.945 867.237,96.945 864.763,96.716 863.250 C 96.487 861.737,96.300 862.975,96.300 866.000 M104.272 867.000 C 104.272 869.475,104.467 870.487,104.706 869.250 C 104.944 868.013,104.944 865.987,104.706 864.750 C 104.467 863.513,104.272 864.525,104.272 867.000 M75.750 875.737 C 78.638 875.939,83.362 875.939,86.250 875.737 C 89.138 875.535,86.775 875.370,81.000 875.370 C 75.225 875.370,72.862 875.535,75.750 875.737 M69.000 880.441 C 69.000 882.334,69.346 884.096,69.768 884.357 C 70.191 884.618,70.369 883.070,70.163 880.916 C 69.702 876.080,69.000 875.794,69.000 880.441 M69.232 903.000 C 69.232 904.925,69.438 905.712,69.689 904.750 C 69.941 903.788,69.941 902.212,69.689 901.250 C 69.438 900.288,69.232 901.075,69.232 903.000 M116.150 903.202 L 116.000 906.905 109.750 907.260 L 103.500 907.615 109.781 907.807 C 116.656 908.018,117.479 907.369,116.724 902.334 C 116.363 899.920,116.277 900.048,116.150 903.202 M82.999 907.734 L 96.000 908.058 96.000 911.970 C 96.000 914.122,96.355 916.101,96.788 916.369 C 97.221 916.637,97.334 914.751,97.038 912.178 L 96.500 907.500 83.249 907.455 L 69.997 907.409 82.999 907.734 " stroke="none" fill="#fcb9a1" fill-rule="evenodd"></path><path id="path7" d="" stroke="none" fill="#e0ac94" fill-rule="evenodd"></path><path id="path8" d="M124.996 2096.297 L 125.492 2110.500 125.776 2097.080 C 125.933 2089.699,125.709 2083.308,125.280 2082.877 C 124.851 2082.446,124.723 2088.485,124.996 2096.297 M96.500 2155.000 L 81.500 2155.582 96.191 2155.791 C 105.139 2155.918,111.124 2155.609,111.500 2155.000 C 111.840 2154.450,111.979 2154.094,111.809 2154.209 C 111.639 2154.324,104.750 2154.680,96.500 2155.000 M79.750 2179.746 C 85.388 2179.924,94.612 2179.924,100.250 2179.746 C 105.888 2179.568,101.275 2179.422,90.000 2179.422 C 78.725 2179.422,74.112 2179.568,79.750 2179.746 M125.343 2197.500 C 125.346 2201.900,125.522 2203.576,125.733 2201.224 C 125.945 2198.872,125.942 2195.272,125.727 2193.224 C 125.512 2191.176,125.339 2193.100,125.343 2197.500 M113.728 2206.722 C 115.503 2206.943,118.653 2206.946,120.728 2206.730 C 122.802 2206.513,121.350 2206.333,117.500 2206.328 C 113.650 2206.324,111.952 2206.501,113.728 2206.722 M86.250 2212.716 C 87.763 2212.945,90.237 2212.945,91.750 2212.716 C 93.263 2212.487,92.025 2212.300,89.000 2212.300 C 85.975 2212.300,84.737 2212.487,86.250 2212.716 " stroke="none" fill="#cbbca0" fill-rule="evenodd"></path></g></svg>